SplineFontDB: 3.0
FontName: FiraCodemScript-Light
FullName: Fira Code mScript Light
FamilyName: Fira Code mScript
Weight: Light
Copyright: Copyright (c) 2015 by Nikita Prokopov
Version: 1.205
ItalicAngle: 0
UnderlinePosition: -100
UnderlineWidth: 50
Ascent: 800
Descent: 200
InvalidEm: 0
sfntRevision: 0x0001347a
LayerCount: 2
Layer: 0 1 "Back" 1
Layer: 1 1 "Fore" 0
XUID: [1021 102 -1850447114 27406]
StyleMap: 0x0040
FSType: 0
OS2Version: 4
OS2_WeightWidthSlopeOnly: 0
OS2_UseTypoMetrics: 1
CreationTime: 1519723474
ModificationTime: 1530244175
PfmFamily: 49
TTFWeight: 300
TTFWidth: 5
LineGap: 0
VLineGap: 0
Panose: 2 11 4 9 5 0 0 2 0 4
OS2TypoAscent: 935
OS2TypoAOffset: 0
OS2TypoDescent: -265
OS2TypoDOffset: 0
OS2TypoLinegap: 0
OS2WinAscent: 935
OS2WinAOffset: 0
OS2WinDescent: 265
OS2WinDOffset: 0
HheadAscent: 935
HheadAOffset: 0
HheadDescent: -265
HheadDOffset: 0
OS2SubXSize: 650
OS2SubYSize: 600
OS2SubXOff: 0
OS2SubYOff: 75
OS2SupXSize: 650
OS2SupYSize: 600
OS2SupXOff: 0
OS2SupYOff: 350
OS2StrikeYSize: 50
OS2StrikeYPos: 315
OS2CapHeight: 687
OS2XHeight: 525
OS2Vendor: 'CTDB'
OS2CodePages: 6000009f.00000000
OS2UnicodeRanges: 40000287.02003801.00000000.00000000
Lookup: 1 0 0 "'aalt' Access All Alternates lookup 0" { "'aalt' Access All Alternates lookup 0 subtable"  } ['aalt' ('DFLT' <'dflt' > 'cyrl' <'dflt' > 'grek' <'dflt' > 'latn' <'AFK ' 'AZE ' 'CAT ' 'CRT ' 'KAZ ' 'MOL ' 'PLK ' 'ROM ' 'TAT ' 'TRK ' 'dflt' > 'zinh' <'dflt' > 'zyyy' <'dflt' > ) ]
Lookup: 3 0 0 "'aalt' Access All Alternates lookup 1" { "'aalt' Access All Alternates lookup 1 subtable"  } ['aalt' ('DFLT' <'dflt' > 'cyrl' <'dflt' > 'grek' <'dflt' > 'latn' <'AFK ' 'AZE ' 'CAT ' 'CRT ' 'KAZ ' 'MOL ' 'PLK ' 'ROM ' 'TAT ' 'TRK ' 'dflt' > 'zinh' <'dflt' > 'zyyy' <'dflt' > ) ]

StartChar: .notdef
Encoding: 1114112 -1 0
Width: 600
Flags: W
LayerCount: 2
Fore
SplineSet
90 1050 m 1,0,-1
 510 1050 l 1,1,-1
 510 -350 l 1,2,-1
 90 -350 l 1,3,-1
 90 1050 l 1,0,-1
456 -298 m 1,4,-1
 456 998 l 1,5,-1
 145 998 l 1,6,-1
 145 -298 l 1,7,-1
 456 -298 l 1,4,-1
299.5 155.5 m 128,-1,9
 292 149 292 149 282 149 c 256,10,11
 272 149 272 149 264.5 155.5 c 128,-1,12
 257 162 257 162 257 173 c 2,13,-1
 257 257 l 1,14,15
 310 260 310 260 329 276.5 c 128,-1,16
 348 293 348 293 348 334 c 0,17,18
 348 367 348 367 335 385 c 128,-1,19
 322 403 322 403 287 403 c 0,20,21
 258 403 258 403 235 392 c 0,22,23
 228 389 228 389 222 389 c 0,24,25
 211 389 211 389 204.5 395.5 c 128,-1,26
 198 402 198 402 198 412 c 0,27,28
 198 431 198 431 227.5 441 c 128,-1,29
 257 451 257 451 291 451 c 0,30,31
 351 451 351 451 376.5 419 c 128,-1,32
 402 387 402 387 402 336 c 0,33,34
 402 283 402 283 379.5 254 c 128,-1,35
 357 225 357 225 307 218 c 1,36,-1
 307 173 l 2,37,8
 307 162 307 162 299.5 155.5 c 128,-1,9
257 110 m 128,-1,39
 267 120 267 120 282 120 c 256,40,41
 297 120 297 120 307 110 c 128,-1,42
 317 100 317 100 317 85 c 0,43,44
 317 69 317 69 307 58.5 c 128,-1,45
 297 48 297 48 282 48 c 256,46,47
 267 48 267 48 257 58.5 c 128,-1,48
 247 69 247 69 247 85 c 0,49,38
 247 100 247 100 257 110 c 128,-1,39
EndSplineSet
EndChar

StartChar: A
Encoding: 65 65 4
Width: 600
GlyphClass: 2
Flags: W
AnchorPoint: "Anchor-7" 300 687 basechar 0
AnchorPoint: "Anchor-6" 298 0 basechar 0
LayerCount: 2
Fore
SplineSet
444 184 m 1,0,-1
 150 184 l 1,1,-1
 90 0 l 1,2,-1
 30 0 l 1,3,-1
 258 687 l 1,4,-1
 342 687 l 1,5,-1
 570 0 l 1,6,-1
 504 0 l 1,7,-1
 444 184 l 1,0,-1
172 242 m 1,8,-1
 422 242 l 1,9,-1
 298 627 l 1,10,-1
 172 242 l 1,8,-1
EndSplineSet
Substitution2: "Single Substitution lookup 159 subtable" ordfeminine
Substitution2: "'aalt' Access All Alternates lookup 0 subtable" ordfeminine
EndChar

StartChar: Aogonek
Encoding: 260 260 11
Width: 600
GlyphClass: 2
Flags: W
AnchorPoint: "Anchor-7" 300 687 basechar 0
AnchorPoint: "Anchor-6" 298 0 basechar 0
LayerCount: 2
Fore
SplineSet
439.5 -61 m 128,-1,1
 413 -88 413 -88 413 -116 c 0,2,3
 413 -139 413 -139 425.5 -151 c 128,-1,4
 438 -163 438 -163 468 -163 c 0,5,6
 501 -163 501 -163 532 -156 c 1,7,-1
 525 -216 l 1,8,9
 483 -222 483 -222 460 -222 c 0,10,11
 407 -222 407 -222 377 -196 c 128,-1,12
 347 -170 347 -170 347 -131 c 0,13,14
 347 -36 347 -36 499 16 c 1,15,-1
 444 184 l 1,16,-1
 150 184 l 1,17,-1
 90 0 l 1,18,-1
 30 0 l 1,19,-1
 258 687 l 1,20,-1
 342 687 l 1,21,-1
 570 0 l 1,22,-1
 540 0 l 1,23,0
 466 -34 466 -34 439.5 -61 c 128,-1,1
172 242 m 1,24,-1
 422 242 l 1,25,-1
 298 627 l 1,26,-1
 172 242 l 1,24,-1
EndSplineSet
EndChar

StartChar: AE
Encoding: 198 198 14
Width: 600
GlyphClass: 2
Flags: W
AnchorPoint: "Anchor-7" 364 687 basechar 0
AnchorPoint: "Anchor-6" 300 0 basechar 0
LayerCount: 2
Fore
SplineSet
335 182 m 1,0,-1
 112 182 l 1,1,-1
 56 0 l 1,2,-1
 -12 0 l 1,3,-1
 198 687 l 1,4,-1
 566 687 l 1,5,-1
 558 629 l 1,6,-1
 306 629 l 1,7,-1
 363 378 l 1,8,-1
 557 378 l 1,9,-1
 557 320 l 1,10,-1
 374 320 l 1,11,-1
 431 59 l 1,12,-1
 609 59 l 1,13,-1
 609 0 l 1,14,-1
 374 0 l 1,15,-1
 335 182 l 1,0,-1
136 243 m 1,16,-1
 319 243 l 1,17,-1
 239 631 l 1,18,-1
 136 243 l 1,16,-1
EndSplineSet
EndChar

StartChar: B
Encoding: 66 66 16
Width: 600
GlyphClass: 2
Flags: W
AnchorPoint: "Anchor-7" 300 687 basechar 0
AnchorPoint: "Anchor-6" 300 0 basechar 0
LayerCount: 2
Fore
SplineSet
457 46.5 m 128,-1,1
 384 0 384 0 280 0 c 2,2,-1
 108 0 l 1,3,-1
 108 687 l 1,4,-1
 263 687 l 2,5,6
 363 687 363 687 431.5 647.5 c 128,-1,7
 500 608 500 608 500 515 c 0,8,9
 500 451 500 451 463.5 413.5 c 128,-1,10
 427 376 427 376 372 364 c 1,11,12
 530 337 530 337 530 194 c 0,13,0
 530 93 530 93 457 46.5 c 128,-1,1
290 631 m 2,15,-1
 172 631 l 1,16,-1
 172 390 l 1,17,-1
 300 390 l 2,18,19
 434 390 434 390 434 513 c 0,20,14
 434 631 434 631 290 631 c 2,15,-1
419 298 m 128,-1,22
 376 329 376 329 304 329 c 2,23,-1
 172 329 l 1,24,-1
 172 58 l 1,25,-1
 302 58 l 2,26,27
 367 58 367 58 414.5 86.5 c 128,-1,28
 462 115 462 115 462 188 c 0,29,21
 462 267 462 267 419 298 c 128,-1,22
EndSplineSet
EndChar

StartChar: C
Encoding: 67 67 17
Width: 600
GlyphClass: 2
Flags: W
AnchorPoint: "Anchor-7" 367 687 basechar 0
AnchorPoint: "Anchor-6" 349 0 basechar 0
LayerCount: 2
Fore
SplineSet
464 681.5 m 128,-1,1
 508 666 508 666 551 632 c 1,2,-1
 512 587 l 1,3,4
 479 615 479 615 443 626.5 c 128,-1,5
 407 638 407 638 365 638 c 0,6,7
 265 638 265 638 202 568.5 c 128,-1,8
 139 499 139 499 139 344 c 0,9,10
 139 190 139 190 200 119.5 c 128,-1,11
 261 49 261 49 362 49 c 0,12,13
 416 49 416 49 454.5 64 c 128,-1,14
 493 79 493 79 525 105 c 1,15,-1
 561 60 l 1,16,17
 489 -10 489 -10 363 -10 c 0,18,19
 281 -10 281 -10 215 31 c 128,-1,20
 149 72 149 72 110.5 152 c 128,-1,21
 72 232 72 232 72 344 c 256,22,23
 72 456 72 456 111 535.5 c 128,-1,24
 150 615 150 615 215 656 c 128,-1,25
 280 697 280 697 358 697 c 0,26,0
 420 697 420 697 464 681.5 c 128,-1,1
EndSplineSet
EndChar

StartChar: Ccedilla
Encoding: 199 199 20
Width: 600
GlyphClass: 2
Flags: W
AnchorPoint: "Anchor-7" 367 687 basechar 0
AnchorPoint: "Anchor-6" 349 0 basechar 0
LayerCount: 2
Fore
SplineSet
433.5 -86 m 128,-1,1
 456 -109 456 -109 456 -138 c 0,2,3
 456 -184 456 -184 422.5 -207.5 c 128,-1,4
 389 -231 389 -231 342 -231 c 0,5,6
 279 -231 279 -231 241 -209 c 1,7,-1
 265 -168 l 1,8,9
 294 -183 294 -183 333 -183 c 0,10,11
 395 -183 395 -183 395 -139 c 0,12,13
 395 -112 395 -112 374.5 -102.5 c 128,-1,14
 354 -93 354 -93 311 -93 c 1,15,-1
 316 -6 l 1,16,17
 245 5 245 5 190 49 c 128,-1,18
 135 93 135 93 103.5 168 c 128,-1,19
 72 243 72 243 72 344 c 0,20,21
 72 456 72 456 111 535.5 c 128,-1,22
 150 615 150 615 215 656 c 128,-1,23
 280 697 280 697 358 697 c 0,24,25
 420 697 420 697 464 681.5 c 128,-1,26
 508 666 508 666 551 632 c 1,27,-1
 512 587 l 1,28,29
 479 615 479 615 443 626.5 c 128,-1,30
 407 638 407 638 365 638 c 0,31,32
 265 638 265 638 202 568.5 c 128,-1,33
 139 499 139 499 139 344 c 0,34,35
 139 190 139 190 200 119.5 c 128,-1,36
 261 49 261 49 362 49 c 0,37,38
 416 49 416 49 454.5 64 c 128,-1,39
 493 79 493 79 525 105 c 1,40,-1
 561 60 l 1,41,42
 491 -9 491 -9 366 -10 c 1,43,-1
 366 -60 l 1,44,0
 411 -63 411 -63 433.5 -86 c 128,-1,1
EndSplineSet
EndChar

StartChar: D
Encoding: 68 68 23
Width: 600
GlyphClass: 2
Flags: W
AnchorPoint: "Anchor-7" 283 687 basechar 0
AnchorPoint: "Anchor-6" 300 0 basechar 0
LayerCount: 2
Fore
SplineSet
457.5 75.5 m 128,-1,1
 369 0 369 0 242 0 c 2,2,-1
 93 0 l 1,3,-1
 93 687 l 1,4,-1
 231 687 l 2,5,6
 372 687 372 687 459 614.5 c 128,-1,7
 546 542 546 542 546 347 c 0,8,0
 546 151 546 151 457.5 75.5 c 128,-1,1
443 528.5 m 128,-1,10
 409 591 409 591 360.5 611 c 128,-1,11
 312 631 312 631 251 631 c 2,12,-1
 156 631 l 1,13,-1
 156 55 l 1,14,-1
 252 55 l 2,15,16
 346 55 346 55 411.5 119.5 c 128,-1,17
 477 184 477 184 477 347 c 0,18,9
 477 466 477 466 443 528.5 c 128,-1,10
EndSplineSet
EndChar

StartChar: Eth
Encoding: 208 208 24
Width: 600
GlyphClass: 2
Flags: W
AnchorPoint: "Anchor-7" 292 687 basechar 0
AnchorPoint: "Anchor-6" 309 0 basechar 0
LayerCount: 2
Fore
SplineSet
468 614.5 m 128,-1,1
 555 542 555 542 555 347 c 0,2,3
 555 151 555 151 466.5 75.5 c 128,-1,4
 378 0 378 0 251 0 c 2,5,-1
 102 0 l 1,6,-1
 102 325 l 1,7,-1
 23 325 l 1,8,-1
 23 381 l 1,9,-1
 102 381 l 1,10,-1
 102 687 l 1,11,-1
 240 687 l 2,12,0
 381 687 381 687 468 614.5 c 128,-1,1
420.5 119.5 m 128,-1,14
 486 184 486 184 486 347 c 0,15,16
 486 466 486 466 452 528.5 c 128,-1,17
 418 591 418 591 369.5 611 c 128,-1,18
 321 631 321 631 260 631 c 2,19,-1
 165 631 l 1,20,-1
 165 381 l 1,21,-1
 335 381 l 1,22,-1
 335 325 l 1,23,-1
 165 325 l 1,24,-1
 165 55 l 1,25,-1
 261 55 l 2,26,13
 355 55 355 55 420.5 119.5 c 128,-1,14
EndSplineSet
EndChar

StartChar: E
Encoding: 69 69 27
Width: 600
GlyphClass: 2
Flags: W
AnchorPoint: "Anchor-7" 321 687 basechar 0
AnchorPoint: "Anchor-6" 327 0 basechar 0
LayerCount: 2
Fore
SplineSet
199 630 m 1,0,-1
 199 378 l 1,1,-1
 459 378 l 1,2,-1
 459 320 l 1,3,-1
 199 320 l 1,4,-1
 199 56 l 1,5,-1
 520 56 l 1,6,-1
 520 0 l 1,7,-1
 135 0 l 1,8,-1
 135 687 l 1,9,-1
 508 687 l 1,10,-1
 500 630 l 1,11,-1
 199 630 l 1,0,-1
EndSplineSet
EndChar

StartChar: Eogonek
Encoding: 280 280 36
Width: 600
GlyphClass: 2
Flags: W
AnchorPoint: "Anchor-7" 321 687 basechar 0
AnchorPoint: "Anchor-6" 327 0 basechar 0
LayerCount: 2
Fore
SplineSet
520 56 m 1,0,-1
 520 0 l 1,1,-1
 468 0 l 1,2,3
 394 -34 394 -34 367.5 -61 c 128,-1,4
 341 -88 341 -88 341 -116 c 0,5,6
 341 -139 341 -139 353.5 -151 c 128,-1,7
 366 -163 366 -163 396 -163 c 0,8,9
 429 -163 429 -163 460 -156 c 1,10,-1
 453 -216 l 1,11,12
 411 -222 411 -222 388 -222 c 0,13,14
 335 -222 335 -222 305 -196 c 128,-1,15
 275 -170 275 -170 275 -131 c 0,16,17
 275 -51 275 -51 387 0 c 1,18,-1
 135 0 l 1,19,-1
 135 687 l 1,20,-1
 508 687 l 1,21,-1
 500 630 l 1,22,-1
 199 630 l 1,23,-1
 199 378 l 1,24,-1
 459 378 l 1,25,-1
 459 320 l 1,26,-1
 199 320 l 1,27,-1
 199 56 l 1,28,-1
 520 56 l 1,0,-1
EndSplineSet
EndChar

StartChar: F
Encoding: 70 70 37
Width: 600
GlyphClass: 2
Flags: W
AnchorPoint: "Anchor-7" 300 687 basechar 0
AnchorPoint: "Anchor-6" 300 0 basechar 0
LayerCount: 2
Fore
SplineSet
211 630 m 1,0,-1
 211 371 l 1,1,-1
 489 371 l 1,2,-1
 489 316 l 1,3,-1
 211 316 l 1,4,-1
 211 0 l 1,5,-1
 147 0 l 1,6,-1
 147 687 l 1,7,-1
 538 687 l 1,8,-1
 530 630 l 1,9,-1
 211 630 l 1,0,-1
EndSplineSet
EndChar

StartChar: G
Encoding: 71 71 38
Width: 600
GlyphClass: 2
Flags: W
AnchorPoint: "Anchor-7" 330 687 basechar 0
AnchorPoint: "Anchor-6" 331 0 basechar 0
LayerCount: 2
Fore
SplineSet
121.5 80 m 128,-1,1
 52 170 52 170 52 344 c 0,2,3
 52 457 52 457 91.5 537 c 128,-1,4
 131 617 131 617 194.5 657 c 128,-1,5
 258 697 258 697 331 697 c 0,6,7
 393 697 393 697 435 680 c 128,-1,8
 477 663 477 663 520 624 c 1,9,-1
 478 580 l 1,10,11
 417 638 417 638 329 638 c 256,12,13
 241 638 241 638 181.5 568.5 c 128,-1,14
 122 499 122 499 122 344 c 0,15,16
 122 193 122 193 172 121 c 128,-1,17
 222 49 222 49 320 49 c 0,18,19
 396 49 396 49 464 86 c 1,20,-1
 464 311 l 1,21,-1
 314 311 l 1,22,-1
 306 371 l 1,23,-1
 530 371 l 1,24,-1
 530 47 l 1,25,26
 476 19 476 19 426.5 4.5 c 128,-1,27
 377 -10 377 -10 310 -10 c 0,28,0
 191 -10 191 -10 121.5 80 c 128,-1,1
EndSplineSet
EndChar

StartChar: H
Encoding: 72 72 43
Width: 600
GlyphClass: 2
Flags: W
AnchorPoint: "Anchor-7" 300 687 basechar 0
AnchorPoint: "Anchor-6" 300 0 basechar 0
LayerCount: 2
Fore
SplineSet
444 0 m 1,0,-1
 444 337 l 1,1,-1
 156 337 l 1,2,-1
 156 0 l 1,3,-1
 93 0 l 1,4,-1
 93 687 l 1,5,-1
 156 687 l 1,6,-1
 156 389 l 1,7,-1
 444 389 l 1,8,-1
 444 687 l 1,9,-1
 507 687 l 1,10,-1
 507 0 l 1,11,-1
 444 0 l 1,0,-1
EndSplineSet
EndChar

StartChar: Hbar
Encoding: 294 294 44
Width: 600
Flags: W
LayerCount: 2
Fore
SplineSet
598 570 m 1,0,-1
 598 512 l 1,1,-1
 509 512 l 1,2,-1
 509 0 l 1,3,-1
 446 0 l 1,4,-1
 446 335 l 1,5,-1
 154 335 l 1,6,-1
 154 0 l 1,7,-1
 91 0 l 1,8,-1
 91 512 l 1,9,-1
 2 512 l 1,10,-1
 2 570 l 1,11,-1
 91 570 l 1,12,-1
 91 687 l 1,13,-1
 154 687 l 1,14,-1
 154 570 l 1,15,-1
 446 570 l 1,16,-1
 446 687 l 1,17,-1
 509 687 l 1,18,-1
 509 570 l 1,19,-1
 598 570 l 1,0,-1
446 390 m 1,20,-1
 446 512 l 1,21,-1
 154 512 l 1,22,-1
 154 390 l 1,23,-1
 446 390 l 1,20,-1
EndSplineSet
EndChar

StartChar: I
Encoding: 73 73 46
Width: 600
GlyphClass: 2
Flags: W
AnchorPoint: "Anchor-7" 300 687 basechar 0
AnchorPoint: "Anchor-6" 300 0 basechar 0
LayerCount: 2
Fore
SplineSet
489 687 m 1,0,-1
 489 633 l 1,1,-1
 333 633 l 1,2,-1
 333 54 l 1,3,-1
 489 54 l 1,4,-1
 489 0 l 1,5,-1
 111 0 l 1,6,-1
 111 54 l 1,7,-1
 267 54 l 1,8,-1
 267 633 l 1,9,-1
 111 633 l 1,10,-1
 111 687 l 1,11,-1
 489 687 l 1,0,-1
EndSplineSet
EndChar

StartChar: IJ
Encoding: 306 306 47
Width: 600
Flags: W
LayerCount: 2
Fore
SplineSet
356.5 -28 m 128,-1,1
 414 7 414 7 436.5 63.5 c 128,-1,2
 459 120 459 120 459 202 c 2,3,-1
 459 624 l 1,4,-1
 191 624 l 1,5,-1
 191 63 l 1,6,-1
 279 63 l 1,7,-1
 279 0 l 1,8,-1
 12 0 l 1,9,-1
 12 63 l 1,10,-1
 120 63 l 1,11,-1
 120 624 l 1,12,-1
 12 624 l 1,13,-1
 12 687 l 1,14,-1
 525 687 l 1,15,-1
 525 193 l 2,16,17
 525 62 525 62 456.5 -24 c 128,-1,18
 388 -110 388 -110 206 -122 c 1,19,-1
 198 -71 l 1,20,0
 299 -63 299 -63 356.5 -28 c 128,-1,1
EndSplineSet
EndChar

StartChar: Iogonek
Encoding: 302 302 55
Width: 600
GlyphClass: 2
Flags: W
AnchorPoint: "Anchor-7" 300 687 basechar 0
AnchorPoint: "Anchor-6" 300 0 basechar 0
LayerCount: 2
Fore
SplineSet
333 633 m 1,0,-1
 333 54 l 1,1,-1
 489 54 l 1,2,-1
 489 0 l 1,3,-1
 333 0 l 1,4,5
 259 -34 259 -34 232.5 -61 c 128,-1,6
 206 -88 206 -88 206 -116 c 0,7,8
 206 -139 206 -139 218.5 -151 c 128,-1,9
 231 -163 231 -163 261 -163 c 0,10,11
 294 -163 294 -163 325 -156 c 1,12,-1
 318 -216 l 1,13,14
 276 -222 276 -222 253 -222 c 0,15,16
 200 -222 200 -222 170 -196 c 128,-1,17
 140 -170 140 -170 140 -131 c 0,18,19
 140 -51 140 -51 252 0 c 1,20,-1
 111 0 l 1,21,-1
 111 54 l 1,22,-1
 267 54 l 1,23,-1
 267 633 l 1,24,-1
 111 633 l 1,25,-1
 111 687 l 1,26,-1
 489 687 l 1,27,-1
 489 633 l 1,28,-1
 333 633 l 1,0,-1
EndSplineSet
EndChar

StartChar: J
Encoding: 74 74 57
Width: 600
GlyphClass: 2
Flags: W
AnchorPoint: "Anchor-7" 349 687 basechar 0
AnchorPoint: "Anchor-6" 300 0 basechar 0
LayerCount: 2
Fore
SplineSet
488 223 m 2,0,1
 488 128 488 128 438 58.5 c 128,-1,2
 388 -11 388 -11 265 -11 c 0,3,4
 218 -11 218 -11 169.5 5 c 128,-1,5
 121 21 121 21 83 51 c 1,6,-1
 114 96 l 1,7,8
 193 47 193 47 267 47 c 0,9,10
 343 47 343 47 383.5 96 c 128,-1,11
 424 145 424 145 424 229 c 2,12,-1
 424 631 l 1,13,-1
 223 631 l 1,14,-1
 223 687 l 1,15,-1
 488 687 l 1,16,-1
 488 223 l 2,0,1
EndSplineSet
EndChar

StartChar: K
Encoding: 75 75 59
Width: 600
GlyphClass: 2
Flags: W
AnchorPoint: "Anchor-7" 335 687 basechar 0
AnchorPoint: "Anchor-6" 329 0 basechar 0
LayerCount: 2
Fore
SplineSet
182 0 m 1,0,-1
 119 0 l 1,1,-1
 119 687 l 1,2,-1
 182 687 l 1,3,-1
 182 0 l 1,0,-1
187 367 m 1,4,-1
 482 687 l 1,5,-1
 561 687 l 1,6,-1
 271 370 l 1,7,-1
 580 0 l 1,8,-1
 496 0 l 1,9,-1
 187 367 l 1,4,-1
EndSplineSet
EndChar

StartChar: L
Encoding: 76 76 61
Width: 600
GlyphClass: 2
Flags: W
AnchorPoint: "Anchor-7" 181 687 basechar 0
AnchorPoint: "Anchor-6" 336 0 basechar 0
LayerCount: 2
Fore
SplineSet
148 0 m 1,0,-1
 148 687 l 1,1,-1
 212 687 l 1,2,-1
 212 62 l 1,3,-1
 531 62 l 1,4,-1
 522 0 l 1,5,-1
 148 0 l 1,0,-1
EndSplineSet
EndChar

StartChar: Lslash
Encoding: 321 321 66
Width: 600
GlyphClass: 2
Flags: W
AnchorPoint: "Anchor-7" 174 687 basechar 0
AnchorPoint: "Anchor-6" 329 0 basechar 0
LayerCount: 2
Fore
SplineSet
205 62 m 1,0,-1
 524 62 l 1,1,-1
 515 0 l 1,2,-1
 141 0 l 1,3,-1
 141 279 l 1,4,-1
 81 242 l 1,5,-1
 50 289 l 1,6,-1
 141 344 l 1,7,-1
 141 687 l 1,8,-1
 205 687 l 1,9,-1
 205 384 l 1,10,-1
 382 495 l 1,11,-1
 414 448 l 1,12,-1
 205 319 l 1,13,-1
 205 62 l 1,0,-1
EndSplineSet
EndChar

StartChar: M
Encoding: 77 77 67
Width: 600
GlyphClass: 2
Flags: W
AnchorPoint: "Anchor-7" 300 687 basechar 0
AnchorPoint: "Anchor-6" 300 0 basechar 0
LayerCount: 2
Fore
SplineSet
566 0 m 1,0,-1
 500 0 l 1,1,-1
 475 379 l 2,2,3
 470 444 470 444 468 557 c 0,4,5
 466 617 466 617 465 626 c 2,6,-1
 338 125 l 1,7,-1
 262 125 l 1,8,-1
 125 626 l 1,9,-1
 126 576 l 2,10,11
 126 472 126 472 121 380 c 2,12,-1
 98 0 l 1,13,-1
 34 0 l 1,14,-1
 73 687 l 1,15,-1
 180 687 l 1,16,-1
 302 209 l 1,17,-1
 419 687 l 1,18,-1
 527 687 l 1,19,-1
 566 0 l 1,0,-1
EndSplineSet
EndChar

StartChar: N
Encoding: 78 78 68
Width: 600
GlyphClass: 2
Flags: W
AnchorPoint: "Anchor-7" 296 687 basechar 0
AnchorPoint: "Anchor-6" 300 0 basechar 0
LayerCount: 2
Fore
SplineSet
148 619 m 1,0,-1
 150 554 l 2,1,2
 156 452 156 452 156 370 c 2,3,-1
 156 0 l 1,4,-1
 93 0 l 1,5,-1
 93 687 l 1,6,-1
 185 687 l 1,7,-1
 452 64 l 1,8,9
 453 73 453 73 450 127 c 0,10,11
 449 141 449 141 446.5 200 c 128,-1,12
 444 259 444 259 444 319 c 2,13,-1
 444 687 l 1,14,-1
 507 687 l 1,15,-1
 507 0 l 1,16,-1
 409 0 l 1,17,-1
 148 619 l 1,0,-1
EndSplineSet
EndChar

StartChar: Eng
Encoding: 330 330 72
Width: 600
GlyphClass: 2
Flags: W
AnchorPoint: "Anchor-7" 296 687 basechar 0
AnchorPoint: "Anchor-6" 300 0 basechar 0
LayerCount: 2
Fore
SplineSet
507 687 m 1,0,-1
 507 -72 l 2,1,2
 507 -139 507 -139 472.5 -173.5 c 128,-1,3
 438 -208 438 -208 379 -208 c 0,4,5
 345 -208 345 -208 318 -198 c 128,-1,6
 291 -188 291 -188 273 -173 c 1,7,-1
 298 -126 l 1,8,9
 320 -140 320 -140 336.5 -146 c 128,-1,10
 353 -152 353 -152 378 -152 c 0,11,12
 410 -152 410 -152 426.5 -132.5 c 128,-1,13
 443 -113 443 -113 443 -75 c 2,14,-1
 443 0 l 1,15,-1
 409 0 l 1,16,-1
 148 619 l 1,17,-1
 150 554 l 2,18,19
 156 452 156 452 156 370 c 2,20,-1
 156 0 l 1,21,-1
 93 0 l 1,22,-1
 93 687 l 1,23,-1
 185 687 l 1,24,-1
 452 64 l 1,25,26
 453 73 453 73 450 127 c 0,27,28
 449 141 449 141 446.5 200 c 128,-1,29
 444 259 444 259 444 319 c 2,30,-1
 444 687 l 1,31,-1
 507 687 l 1,0,-1
EndSplineSet
EndChar

StartChar: O
Encoding: 79 79 74
Width: 600
GlyphClass: 2
Flags: W
AnchorPoint: "Anchor-7" 300 687 basechar 0
AnchorPoint: "Anchor-6" 300 0 basechar 0
LayerCount: 2
Fore
SplineSet
482.5 86.5 m 128,-1,1
 419 -10 419 -10 300 -10 c 256,2,3
 181 -10 181 -10 117.5 85 c 128,-1,4
 54 180 54 180 54 341 c 0,5,6
 54 446 54 446 82 526 c 128,-1,7
 110 606 110 606 165.5 651.5 c 128,-1,8
 221 697 221 697 300 697 c 0,9,10
 419 697 419 697 482.5 601 c 128,-1,11
 546 505 546 505 546 343 c 0,12,0
 546 183 546 183 482.5 86.5 c 128,-1,1
436 563 m 128,-1,14
 393 638 393 638 300 638 c 256,15,16
 207 638 207 638 164 562 c 128,-1,17
 121 486 121 486 121 341 c 0,18,19
 121 49 121 49 300 49 c 0,20,21
 393 49 393 49 436 123.5 c 128,-1,22
 479 198 479 198 479 343 c 256,23,13
 479 488 479 488 436 563 c 128,-1,14
EndSplineSet
Substitution2: "Single Substitution lookup 159 subtable" ordmasculine
Substitution2: "'aalt' Access All Alternates lookup 0 subtable" ordmasculine
EndChar

StartChar: Oslash
Encoding: 216 216 82
Width: 600
GlyphClass: 2
Flags: W
AnchorPoint: "Anchor-7" 300 687 basechar 0
AnchorPoint: "Anchor-6" 300 0 basechar 0
LayerCount: 2
Fore
SplineSet
516 536 m 128,-1,1
 546 454 546 454 546 343 c 0,2,3
 546 183 546 183 482.5 86.5 c 128,-1,4
 419 -10 419 -10 300 -10 c 0,5,6
 264 -10 264 -10 234 -1 c 1,7,-1
 200 -110 l 1,8,-1
 135 -95 l 1,9,-1
 174 26 l 1,10,11
 115 67 115 67 84.5 148.5 c 128,-1,12
 54 230 54 230 54 341 c 0,13,14
 54 446 54 446 82 526 c 128,-1,15
 110 606 110 606 165.5 651.5 c 128,-1,16
 221 697 221 697 300 697 c 0,17,18
 339 697 339 697 369 687 c 1,19,-1
 402 803 l 1,20,-1
 466 787 l 1,21,-1
 427 659 l 1,22,0
 486 618 486 618 516 536 c 128,-1,1
141.5 174 m 128,-1,24
 159 111 159 111 196 82 c 1,25,-1
 353 630 l 1,26,27
 329 636 329 636 300 636 c 0,28,29
 208 636 208 636 166 560.5 c 128,-1,30
 124 485 124 485 124 341 c 0,31,23
 124 237 124 237 141.5 174 c 128,-1,24
433.5 125 m 128,-1,33
 476 199 476 199 476 343 c 0,34,35
 476 449 476 449 458.5 512.5 c 128,-1,36
 441 576 441 576 404 606 c 1,37,-1
 246 57 l 1,38,39
 270 51 270 51 300 51 c 0,40,32
 391 51 391 51 433.5 125 c 128,-1,33
EndSplineSet
EndChar

StartChar: OE
Encoding: 338 338 85
Width: 600
GlyphClass: 2
Flags: W
AnchorPoint: "Anchor-7" 300 687 basechar 0
AnchorPoint: "Anchor-6" 300 0 basechar 0
LayerCount: 2
Fore
SplineSet
272 687 m 1,1,-1
 612 687 l 1,2,-1
 604 629 l 1,3,-1
 341 629 l 1,4,5
 407 558 407 558 414 378 c 1,6,-1
 577 378 l 1,7,-1
 577 320 l 1,8,-1
 414 320 l 1,9,10
 410 136 410 136 338 59 c 1,11,-1
 623 59 l 1,12,-1
 623 0 l 1,13,-1
 269 0 l 1,14,15
 236 -10 236 -10 208 -10 c 0,16,17
 -4 -10 -4 -10 -4 341 c 0,18,19
 -4 515 -4 515 50 606 c 128,-1,20
 104 697 104 697 208 697 c 0,21,0
 242 697 242 697 272 687 c 1,1,-1
107.5 567 m 128,-1,23
 75 497 75 497 75 341 c 0,24,25
 75 187 75 187 108 118 c 128,-1,26
 141 49 141 49 207 49 c 0,27,28
 277 49 277 49 309.5 118 c 128,-1,29
 342 187 342 187 342 343 c 0,30,31
 342 498 342 498 309.5 567.5 c 128,-1,32
 277 637 277 637 207 637 c 0,33,22
 140 637 140 637 107.5 567 c 128,-1,23
EndSplineSet
EndChar

StartChar: P
Encoding: 80 80 86
Width: 600
GlyphClass: 2
Flags: W
AnchorPoint: "Anchor-7" 300 687 basechar 0
AnchorPoint: "Anchor-6" 300 0 basechar 0
LayerCount: 2
Fore
SplineSet
481 314.5 m 128,-1,1
 411 263 411 263 288 263 c 2,2,-1
 195 263 l 1,3,-1
 195 0 l 1,4,-1
 132 0 l 1,5,-1
 132 687 l 1,6,-1
 294 687 l 2,7,8
 416 687 416 687 483.5 635.5 c 128,-1,9
 551 584 551 584 551 480 c 0,10,0
 551 366 551 366 481 314.5 c 128,-1,1
434 597 m 128,-1,12
 387 633 387 633 308 633 c 2,13,-1
 195 633 l 1,14,-1
 195 318 l 1,15,-1
 301 318 l 2,16,17
 386 318 386 318 433.5 353.5 c 128,-1,18
 481 389 481 389 481 479 c 0,19,11
 481 561 481 561 434 597 c 128,-1,12
EndSplineSet
EndChar

StartChar: Thorn
Encoding: 222 222 87
Width: 600
GlyphClass: 2
Flags: W
AnchorPoint: "Anchor-7" 300 687 basechar 0
AnchorPoint: "Anchor-6" 300 0 basechar 0
LayerCount: 2
Fore
SplineSet
185 569 m 1,0,-1
 296 569 l 2,1,2
 418 569 418 569 484 516 c 128,-1,3
 550 463 550 463 550 355 c 0,4,5
 550 241 550 241 479 186.5 c 128,-1,6
 408 132 408 132 289 132 c 2,7,-1
 185 132 l 1,8,-1
 185 0 l 1,9,-1
 121 0 l 1,10,-1
 121 687 l 1,11,-1
 185 687 l 1,12,-1
 185 569 l 1,0,-1
185 515 m 1,13,-1
 185 187 l 1,14,-1
 307 187 l 2,15,16
 391 187 391 187 436.5 224 c 128,-1,17
 482 261 482 261 482 353 c 0,18,19
 482 436 482 436 435.5 475.5 c 128,-1,20
 389 515 389 515 309 515 c 2,21,-1
 185 515 l 1,13,-1
EndSplineSet
EndChar

StartChar: Q
Encoding: 81 81 88
Width: 600
GlyphClass: 2
Flags: W
AnchorPoint: "Anchor-7" 300 687 basechar 0
AnchorPoint: "Anchor-6" 300 0 basechar 0
LayerCount: 2
Fore
SplineSet
514.5 146 m 128,-1,1
 481 66 481 66 406 23 c 1,2,3
 476 8 476 8 516 -29.5 c 128,-1,4
 556 -67 556 -67 580 -140 c 1,5,-1
 501 -173 l 1,6,7
 468 -88 468 -88 421 -48 c 128,-1,8
 374 -8 374 -8 290 -8 c 0,9,10
 214 -8 214 -8 160 35.5 c 128,-1,11
 106 79 106 79 77.5 157.5 c 128,-1,12
 49 236 49 236 49 341 c 0,13,14
 49 445 49 445 77.5 525.5 c 128,-1,15
 106 606 106 606 162.5 651.5 c 128,-1,16
 219 697 219 697 299 697 c 256,17,18
 379 697 379 697 435 652.5 c 128,-1,19
 491 608 491 608 519.5 528.5 c 128,-1,20
 548 449 548 449 548 343 c 0,21,0
 548 226 548 226 514.5 146 c 128,-1,1
299 638 m 0,23,24
 116 638 116 638 116 341 c 0,25,26
 116 199 116 199 161.5 124 c 128,-1,27
 207 49 207 49 299 49 c 0,28,29
 481 49 481 49 481 343 c 0,30,22
 481 638 481 638 299 638 c 0,23,24
EndSplineSet
EndChar

StartChar: R
Encoding: 82 82 89
Width: 600
GlyphClass: 2
Flags: W
AnchorPoint: "Anchor-7" 300 687 basechar 0
AnchorPoint: "Anchor-6" 296 0 basechar 0
LayerCount: 2
Fore
SplineSet
481 375 m 128,-1,1
 432 326 432 326 353 309 c 1,2,-1
 565 0 l 1,3,-1
 485 0 l 1,4,-1
 285 304 l 1,5,-1
 178 304 l 1,6,-1
 178 0 l 1,7,-1
 115 0 l 1,8,-1
 115 687 l 1,9,-1
 279 687 l 2,10,11
 402 687 402 687 466 639 c 128,-1,12
 530 591 530 591 530 499 c 0,13,0
 530 424 530 424 481 375 c 128,-1,1
419.5 600.5 m 128,-1,15
 379 632 379 632 292 632 c 2,16,-1
 178 632 l 1,17,-1
 178 359 l 1,18,-1
 290 359 l 2,19,20
 374 359 374 359 417 392 c 128,-1,21
 460 425 460 425 460 499 c 0,22,14
 460 569 460 569 419.5 600.5 c 128,-1,15
EndSplineSet
EndChar

StartChar: S
Encoding: 83 83 93
Width: 600
GlyphClass: 2
Flags: W
AnchorPoint: "Anchor-7" 304 687 basechar 0
AnchorPoint: "Anchor-6" 296 0 basechar 0
LayerCount: 2
Fore
SplineSet
498.5 84.5 m 128,-1,1
 470 40 470 40 415.5 15 c 128,-1,2
 361 -10 361 -10 285 -10 c 0,3,4
 216 -10 216 -10 156 11.5 c 128,-1,5
 96 33 96 33 53 74 c 1,6,-1
 95 123 l 1,7,8
 133 87 133 87 179.5 67.5 c 128,-1,9
 226 48 226 48 288 48 c 0,10,11
 360 48 360 48 410.5 84 c 128,-1,12
 461 120 461 120 461 189 c 0,13,14
 461 226 461 226 447.5 250.5 c 128,-1,15
 434 275 434 275 400 294.5 c 128,-1,16
 366 314 366 314 303 332 c 0,17,18
 194 363 194 363 138 406 c 128,-1,19
 82 449 82 449 82 526 c 0,20,21
 82 574 82 574 108 613 c 128,-1,22
 134 652 134 652 182 674.5 c 128,-1,23
 230 697 230 697 293 697 c 0,24,25
 359 697 359 697 409.5 678 c 128,-1,26
 460 659 460 659 505 621 c 1,27,-1
 461 574 l 1,28,29
 390 638 390 638 293 638 c 0,30,31
 230 638 230 638 188 609 c 128,-1,32
 146 580 146 580 146 526 c 0,33,34
 146 494 146 494 163 471 c 128,-1,35
 180 448 180 448 219 429 c 128,-1,36
 258 410 258 410 328 390 c 0,37,38
 388 373 388 373 430.5 351 c 128,-1,39
 473 329 473 329 500 289 c 128,-1,40
 527 249 527 249 527 187 c 0,41,0
 527 129 527 129 498.5 84.5 c 128,-1,1
EndSplineSet
EndChar

StartChar: Scedilla
Encoding: 350 350 96
Width: 600
GlyphClass: 2
Flags: W
AnchorPoint: "Anchor-7" 304 687 basechar 0
AnchorPoint: "Anchor-6" 296 0 basechar 0
LayerCount: 2
Fore
SplineSet
470.5 51 m 128,-1,1
 414 -2 414 -2 313 -9 c 1,2,-1
 313 -60 l 1,3,4
 358 -63 358 -63 380.5 -86 c 128,-1,5
 403 -109 403 -109 403 -138 c 0,6,7
 403 -184 403 -184 369.5 -207.5 c 128,-1,8
 336 -231 336 -231 289 -231 c 0,9,10
 226 -231 226 -231 188 -209 c 1,11,-1
 212 -168 l 1,12,13
 241 -183 241 -183 280 -183 c 0,14,15
 342 -183 342 -183 342 -139 c 0,16,17
 342 -112 342 -112 321.5 -102.5 c 128,-1,18
 301 -93 301 -93 258 -93 c 1,19,-1
 263 -9 l 1,20,21
 201 -6 201 -6 147 15.5 c 128,-1,22
 93 37 93 37 53 74 c 1,23,-1
 95 123 l 1,24,25
 133 87 133 87 179.5 67.5 c 128,-1,26
 226 48 226 48 288 48 c 0,27,28
 360 48 360 48 410.5 84 c 128,-1,29
 461 120 461 120 461 189 c 0,30,31
 461 226 461 226 447.5 250.5 c 128,-1,32
 434 275 434 275 400 294.5 c 128,-1,33
 366 314 366 314 303 332 c 0,34,35
 194 363 194 363 138 406 c 128,-1,36
 82 449 82 449 82 526 c 0,37,38
 82 574 82 574 108 613 c 128,-1,39
 134 652 134 652 182 674.5 c 128,-1,40
 230 697 230 697 293 697 c 0,41,42
 359 697 359 697 409.5 678 c 128,-1,43
 460 659 460 659 505 621 c 1,44,-1
 461 574 l 1,45,46
 390 638 390 638 293 638 c 0,47,48
 230 638 230 638 188 609 c 128,-1,49
 146 580 146 580 146 526 c 0,50,51
 146 494 146 494 163 471 c 128,-1,52
 180 448 180 448 219 429 c 128,-1,53
 258 410 258 410 328 390 c 0,54,55
 388 373 388 373 430.5 351 c 128,-1,56
 473 329 473 329 500 289 c 128,-1,57
 527 249 527 249 527 187 c 0,58,0
 527 104 527 104 470.5 51 c 128,-1,1
EndSplineSet
Substitution2: "'locl' Localized Forms in Latin lookup 16 subtable" Scommaaccent
Substitution2: "'locl' Localized Forms in Latin lookup 15 subtable" Scommaaccent
Substitution2: "'aalt' Access All Alternates lookup 0 subtable" Scommaaccent
EndChar

StartChar: T
Encoding: 84 84 99
Width: 600
GlyphClass: 2
Flags: W
AnchorPoint: "Anchor-7" 299 687 basechar 0
AnchorPoint: "Anchor-6" 299 0 basechar 0
LayerCount: 2
Fore
SplineSet
330 628 m 1,0,-1
 330 0 l 1,1,-1
 266 0 l 1,2,-1
 266 628 l 1,3,-1
 45 628 l 1,4,-1
 45 687 l 1,5,-1
 552 687 l 1,6,-1
 545 628 l 1,7,-1
 330 628 l 1,0,-1
EndSplineSet
EndChar

StartChar: Tbar
Encoding: 358 358 100
Width: 600
GlyphClass: 2
Flags: W
AnchorPoint: "Anchor-7" 299 687 basechar 0
AnchorPoint: "Anchor-6" 299 0 basechar 0
LayerCount: 2
Fore
SplineSet
545 628 m 1,0,-1
 330 628 l 1,1,-1
 330 420 l 1,2,-1
 466 420 l 1,3,-1
 466 361 l 1,4,-1
 330 361 l 1,5,-1
 330 0 l 1,6,-1
 266 0 l 1,7,-1
 266 361 l 1,8,-1
 132 361 l 1,9,-1
 132 420 l 1,10,-1
 266 420 l 1,11,-1
 266 628 l 1,12,-1
 45 628 l 1,13,-1
 45 687 l 1,14,-1
 552 687 l 1,15,-1
 545 628 l 1,0,-1
EndSplineSet
EndChar

StartChar: uni0162
Encoding: 354 354 102
Width: 600
GlyphClass: 2
Flags: W
AnchorPoint: "Anchor-7" 299 687 basechar 0
AnchorPoint: "Anchor-6" 299 0 basechar 0
LayerCount: 2
Fore
SplineSet
322 0 m 1,0,-1
 322 -60 l 1,1,2
 367 -63 367 -63 389.5 -86 c 128,-1,3
 412 -109 412 -109 412 -138 c 0,4,5
 412 -184 412 -184 378.5 -207.5 c 128,-1,6
 345 -231 345 -231 298 -231 c 0,7,8
 235 -231 235 -231 197 -209 c 1,9,-1
 221 -168 l 1,10,11
 250 -183 250 -183 289 -183 c 0,12,13
 351 -183 351 -183 351 -139 c 0,14,15
 351 -112 351 -112 330.5 -102.5 c 128,-1,16
 310 -93 310 -93 267 -93 c 1,17,-1
 272 0 l 1,18,-1
 266 0 l 1,19,-1
 266 628 l 1,20,-1
 45 628 l 1,21,-1
 45 687 l 1,22,-1
 552 687 l 1,23,-1
 545 628 l 1,24,-1
 330 628 l 1,25,-1
 330 0 l 1,26,-1
 322 0 l 1,0,-1
EndSplineSet
Substitution2: "'locl' Localized Forms in Latin lookup 16 subtable" uni021A
Substitution2: "'locl' Localized Forms in Latin lookup 15 subtable" uni021A
Substitution2: "'aalt' Access All Alternates lookup 0 subtable" uni021A
EndChar

StartChar: U
Encoding: 85 85 104
Width: 600
GlyphClass: 2
Flags: W
AnchorPoint: "Anchor-7" 300 687 basechar 0
AnchorPoint: "Anchor-6" 300 0 basechar 0
LayerCount: 2
Fore
SplineSet
519 220 m 2,0,1
 519 152 519 152 491 99.5 c 128,-1,2
 463 47 463 47 413 18.5 c 128,-1,3
 363 -10 363 -10 299 -10 c 0,4,5
 233 -10 233 -10 184 19 c 128,-1,6
 135 48 135 48 108 100 c 128,-1,7
 81 152 81 152 81 220 c 2,8,-1
 81 687 l 1,9,-1
 145 687 l 1,10,-1
 145 198 l 2,11,12
 145 126 145 126 186.5 88.5 c 128,-1,13
 228 51 228 51 299 51 c 0,14,15
 371 51 371 51 412.5 88.5 c 128,-1,16
 454 126 454 126 454 198 c 2,17,-1
 454 687 l 1,18,-1
 519 687 l 1,19,-1
 519 220 l 2,0,1
EndSplineSet
EndChar

StartChar: Uogonek
Encoding: 370 370 112
Width: 600
GlyphClass: 2
Flags: W
AnchorPoint: "Anchor-7" 300 687 basechar 0
AnchorPoint: "Anchor-6" 300 0 basechar 0
LayerCount: 2
Fore
SplineSet
519 687 m 1,0,-1
 519 220 l 2,1,2
 519 135 519 135 476.5 76 c 128,-1,3
 434 17 434 17 363 -2 c 1,4,5
 291 -36 291 -36 265.5 -62 c 128,-1,6
 240 -88 240 -88 240 -116 c 0,7,8
 240 -139 240 -139 252.5 -151 c 128,-1,9
 265 -163 265 -163 295 -163 c 0,10,11
 328 -163 328 -163 359 -156 c 1,12,-1
 352 -216 l 1,13,14
 310 -222 310 -222 287 -222 c 0,15,16
 234 -222 234 -222 204 -196 c 128,-1,17
 174 -170 174 -170 174 -131 c 0,18,19
 174 -58 174 -58 269 -8 c 1,20,21
 182 2 182 2 131.5 64 c 128,-1,22
 81 126 81 126 81 220 c 2,23,-1
 81 687 l 1,24,-1
 145 687 l 1,25,-1
 145 198 l 2,26,27
 145 126 145 126 186.5 88.5 c 128,-1,28
 228 51 228 51 299 51 c 0,29,30
 371 51 371 51 412.5 88.5 c 128,-1,31
 454 126 454 126 454 198 c 2,32,-1
 454 687 l 1,33,-1
 519 687 l 1,0,-1
EndSplineSet
EndChar

StartChar: V
Encoding: 86 86 115
Width: 600
GlyphClass: 2
Flags: W
AnchorPoint: "Anchor-7" 300 687 basechar 0
AnchorPoint: "Anchor-6" 300 0 basechar 0
LayerCount: 2
Fore
SplineSet
302 90 m 1,0,-1
 504 687 l 1,1,-1
 567 687 l 1,2,-1
 328 0 l 1,3,-1
 272 0 l 1,4,-1
 32 687 l 1,5,-1
 102 687 l 1,6,-1
 302 90 l 1,0,-1
EndSplineSet
EndChar

StartChar: W
Encoding: 87 87 116
Width: 600
GlyphClass: 2
Flags: W
AnchorPoint: "Anchor-7" 300 687 basechar 0
AnchorPoint: "Anchor-6" 300 0 basechar 0
LayerCount: 2
Fore
SplineSet
593 687 m 1,0,-1
 481 0 l 1,1,-1
 384 0 l 1,2,-1
 297 527 l 1,3,-1
 210 0 l 1,4,-1
 110 0 l 1,5,-1
 7 687 l 1,6,-1
 74 687 l 1,7,-1
 162 82 l 1,8,-1
 253 607 l 1,9,-1
 348 607 l 1,10,-1
 435 82 l 1,11,-1
 531 687 l 1,12,-1
 593 687 l 1,0,-1
EndSplineSet
EndChar

StartChar: X
Encoding: 88 88 121
Width: 600
GlyphClass: 2
Flags: W
AnchorPoint: "Anchor-7" 300 687 basechar 0
AnchorPoint: "Anchor-6" 300 0 basechar 0
LayerCount: 2
Fore
SplineSet
58 687 m 1,0,-1
 135 687 l 1,1,-1
 300 410 l 1,2,-1
 465 687 l 1,3,-1
 535 687 l 1,4,-1
 336 371 l 1,5,-1
 561 0 l 1,6,-1
 484 0 l 1,7,-1
 298 325 l 1,8,-1
 108 0 l 1,9,-1
 39 0 l 1,10,-1
 261 367 l 1,11,-1
 58 687 l 1,0,-1
EndSplineSet
EndChar

StartChar: Y
Encoding: 89 89 122
Width: 600
GlyphClass: 2
Flags: W
AnchorPoint: "Anchor-7" 304 687 basechar 0
AnchorPoint: "Anchor-6" 300 0 basechar 0
LayerCount: 2
Fore
SplineSet
333 267 m 1,0,-1
 333 0 l 1,1,-1
 267 0 l 1,2,-1
 267 266 l 1,3,-1
 33 687 l 1,4,-1
 104 687 l 1,5,-1
 302 328 l 1,6,-1
 502 687 l 1,7,-1
 567 687 l 1,8,-1
 333 267 l 1,0,-1
EndSplineSet
EndChar

StartChar: Z
Encoding: 90 90 127
Width: 600
GlyphClass: 2
Flags: W
AnchorPoint: "Anchor-7" 320 687 basechar 0
AnchorPoint: "Anchor-6" 300 0 basechar 0
LayerCount: 2
Fore
SplineSet
148 59 m 1,0,-1
 517 59 l 1,1,-1
 509 0 l 1,2,-1
 81 0 l 1,3,-1
 81 55 l 1,4,-1
 455 628 l 1,5,-1
 117 628 l 1,6,-1
 117 687 l 1,7,-1
 520 687 l 1,8,-1
 520 631 l 1,9,-1
 148 59 l 1,0,-1
EndSplineSet
EndChar

StartChar: a
Encoding: 97 97 136
Width: 600
GlyphClass: 2
Flags: W
AnchorPoint: "Anchor-7" 292 525 basechar 0
AnchorPoint: "Anchor-6" 300 0 basechar 0
LayerCount: 2
Fore
SplineSet
476.5 57.5 m 128,-1,1
 487 42 487 42 511 35 c 1,2,-1
 494 -11 l 1,3,4
 424 -1 424 -1 408 65 c 1,5,6
 380 28 380 28 339 9 c 128,-1,7
 298 -10 298 -10 246 -10 c 0,8,9
 168 -10 168 -10 123.5 33.5 c 128,-1,10
 79 77 79 77 79 151 c 0,11,12
 79 231 79 231 141.5 274 c 128,-1,13
 204 317 204 317 322 317 c 2,14,-1
 401 317 l 1,15,-1
 401 367 l 2,16,17
 401 427 401 427 367.5 453 c 128,-1,18
 334 479 334 479 270 479 c 0,19,20
 213 479 213 479 136 452 c 1,21,-1
 117 503 l 1,22,23
 206 535 206 535 279 535 c 0,24,25
 369 535 369 535 417.5 490.5 c 128,-1,26
 466 446 466 446 466 370 c 2,27,-1
 466 104 l 2,28,0
 466 73 466 73 476.5 57.5 c 128,-1,1
337.5 60 m 128,-1,30
 375 81 375 81 401 119 c 1,31,-1
 401 269 l 1,32,-1
 314 269 l 2,33,34
 225 269 225 269 186 238 c 128,-1,35
 147 207 147 207 147 149 c 0,36,37
 147 39 147 39 257 39 c 0,38,29
 300 39 300 39 337.5 60 c 128,-1,30
EndSplineSet
Substitution2: "Single Substitution lookup 159 subtable" ordfeminine
Substitution2: "'aalt' Access All Alternates lookup 0 subtable" ordfeminine
EndChar

StartChar: aogonek
Encoding: 261 261 143
Width: 600
GlyphClass: 2
Flags: W
AnchorPoint: "Anchor-7" 292 525 basechar 0
AnchorPoint: "Anchor-6" 300 0 basechar 0
LayerCount: 2
Fore
SplineSet
393.5 -72 m 128,-1,1
 367 -99 367 -99 367 -127 c 0,2,3
 367 -150 367 -150 379.5 -162 c 128,-1,4
 392 -174 392 -174 422 -174 c 0,5,6
 455 -174 455 -174 486 -167 c 1,7,-1
 479 -227 l 1,8,9
 437 -233 437 -233 414 -233 c 0,10,11
 361 -233 361 -233 331 -207 c 128,-1,12
 301 -181 301 -181 301 -142 c 0,13,14
 301 -49 301 -49 451 4 c 1,15,16
 418 24 418 24 408 65 c 1,17,18
 380 28 380 28 339 9 c 128,-1,19
 298 -10 298 -10 246 -10 c 0,20,21
 168 -10 168 -10 123.5 33.5 c 128,-1,22
 79 77 79 77 79 151 c 0,23,24
 79 231 79 231 141.5 274 c 128,-1,25
 204 317 204 317 322 317 c 2,26,-1
 401 317 l 1,27,-1
 401 367 l 2,28,29
 401 427 401 427 367.5 453 c 128,-1,30
 334 479 334 479 270 479 c 0,31,32
 213 479 213 479 136 452 c 1,33,-1
 117 503 l 1,34,35
 206 535 206 535 279 535 c 0,36,37
 369 535 369 535 417.5 490.5 c 128,-1,38
 466 446 466 446 466 370 c 2,39,-1
 466 104 l 2,40,41
 466 73 466 73 476.5 57.5 c 128,-1,42
 487 42 487 42 511 35 c 1,43,-1
 494 -11 l 1,44,0
 420 -45 420 -45 393.5 -72 c 128,-1,1
401 269 m 1,45,-1
 314 269 l 2,46,47
 225 269 225 269 186 238 c 128,-1,48
 147 207 147 207 147 149 c 0,49,50
 147 39 147 39 257 39 c 0,51,52
 300 39 300 39 337.5 60 c 128,-1,53
 375 81 375 81 401 119 c 1,54,-1
 401 269 l 1,45,-1
EndSplineSet
EndChar

StartChar: ae
Encoding: 230 230 146
Width: 600
GlyphClass: 2
Flags: W
AnchorPoint: "Anchor-7" 311 525 basechar 0
AnchorPoint: "Anchor-6" 0 0 basechar 0
LayerCount: 2
Fore
SplineSet
566 467.5 m 128,-1,1
 609 400 609 400 609 280 c 0,2,3
 609 257 609 257 607 235 c 1,4,-1
 330 235 l 1,5,6
 337 138 337 138 364.5 94.5 c 128,-1,7
 392 51 392 51 447 51 c 0,8,9
 476 51 476 51 498.5 61 c 128,-1,10
 521 71 521 71 550 93 c 1,11,-1
 583 41 l 1,12,13
 550 16 550 16 518 3 c 128,-1,14
 486 -10 486 -10 448 -10 c 0,15,16
 398 -10 398 -10 363 13 c 128,-1,17
 328 36 328 36 303 81 c 1,18,19
 266 32 266 32 231 11 c 128,-1,20
 196 -10 196 -10 147 -10 c 0,21,22
 77 -10 77 -10 35.5 34 c 128,-1,23
 -6 78 -6 78 -6 151 c 0,24,25
 -6 232 -6 232 50 275 c 128,-1,26
 106 318 106 318 212 318 c 2,27,-1
 259 318 l 1,28,-1
 259 367 l 2,29,30
 259 422 259 422 235.5 447.5 c 128,-1,31
 212 473 212 473 167 473 c 0,32,33
 141 473 141 473 118.5 467 c 128,-1,34
 96 461 96 461 59 445 c 1,35,-1
 41 501 l 1,36,37
 73 517 73 517 108 526 c 128,-1,38
 143 535 143 535 173 535 c 0,39,40
 231 535 231 535 263 511 c 128,-1,41
 295 487 295 487 311 442 c 1,42,43
 323 485 323 485 356 510 c 128,-1,44
 389 535 389 535 437 535 c 0,45,0
 523 535 523 535 566 467.5 c 128,-1,1
361 433.5 m 128,-1,47
 337 393 337 393 330 295 c 1,48,-1
 538 295 l 1,49,50
 536 386 536 386 512.5 430 c 128,-1,51
 489 474 489 474 435 474 c 0,52,46
 385 474 385 474 361 433.5 c 128,-1,47
210 268 m 2,53,54
 135 268 135 268 103.5 239 c 128,-1,55
 72 210 72 210 72 155 c 0,56,57
 72 101 72 101 94.5 72.5 c 128,-1,58
 117 44 117 44 155 44 c 0,59,60
 190 44 190 44 216.5 69 c 128,-1,61
 243 94 243 94 276 151 c 1,62,63
 259 198 259 198 259 268 c 1,64,-1
 210 268 l 2,53,54
EndSplineSet
EndChar

StartChar: b
Encoding: 98 98 148
Width: 600
GlyphClass: 2
Flags: W
AnchorPoint: "Anchor-7" 300 738 basechar 0
AnchorPoint: "Anchor-6" 300 0 basechar 0
LayerCount: 2
Fore
SplineSet
326 535 m 0,1,2
 428 535 428 535 476 463.5 c 128,-1,3
 524 392 524 392 524 263 c 0,4,5
 524 140 524 140 469.5 65 c 128,-1,6
 415 -10 415 -10 316 -10 c 0,7,8
 268 -10 268 -10 232 6 c 128,-1,9
 196 22 196 22 169 57 c 1,10,-1
 163 0 l 1,11,-1
 109 0 l 1,12,-1
 109 738 l 1,13,-1
 171 746 l 1,14,-1
 171 452 l 1,15,0
 235 535 235 535 326 535 c 0,1,2
415 99.5 m 128,-1,17
 454 155 454 155 454 264 c 0,18,19
 454 369 454 369 419.5 425 c 128,-1,20
 385 481 385 481 317 481 c 0,21,22
 272 481 272 481 235 455 c 128,-1,23
 198 429 198 429 171 390 c 1,24,-1
 171 118 l 1,25,26
 194 84 194 84 229 64 c 128,-1,27
 264 44 264 44 303 44 c 0,28,16
 376 44 376 44 415 99.5 c 128,-1,17
EndSplineSet
EndChar

StartChar: c
Encoding: 99 99 149
Width: 600
GlyphClass: 2
Flags: W
AnchorPoint: "Anchor-7" 344 518 basechar 0
AnchorPoint: "Anchor-6" 339 0 basechar 0
LayerCount: 2
Fore
SplineSet
477 93 m 1,1,-1
 509 52 l 1,2,3
 476 24 476 24 428 7 c 128,-1,4
 380 -10 380 -10 337 -10 c 0,5,6
 224 -10 224 -10 161 63 c 128,-1,7
 98 136 98 136 98 261 c 0,8,9
 98 339 98 339 126 401.5 c 128,-1,10
 154 464 154 464 208 499.5 c 128,-1,11
 262 535 262 535 337 535 c 0,12,13
 433 535 433 535 508 475 c 1,14,-1
 475 431 l 1,15,16
 403 479 403 479 334 479 c 0,17,18
 259 479 259 479 213 423 c 128,-1,19
 167 367 167 367 167 261 c 0,20,21
 167 154 167 154 212.5 100.5 c 128,-1,22
 258 47 258 47 335 47 c 0,23,0
 411 47 411 47 477 93 c 1,1,-1
EndSplineSet
EndChar

StartChar: ccedilla
Encoding: 231 231 152
Width: 600
GlyphClass: 2
Flags: W
AnchorPoint: "Anchor-7" 344 518 basechar 0
AnchorPoint: "Anchor-6" 339 0 basechar 0
LayerCount: 2
Fore
SplineSet
423.5 -86 m 128,-1,1
 446 -109 446 -109 446 -138 c 0,2,3
 446 -184 446 -184 412.5 -207.5 c 128,-1,4
 379 -231 379 -231 332 -231 c 0,5,6
 269 -231 269 -231 231 -209 c 1,7,-1
 255 -168 l 1,8,9
 284 -183 284 -183 323 -183 c 0,10,11
 385 -183 385 -183 385 -139 c 0,12,13
 385 -112 385 -112 364.5 -102.5 c 128,-1,14
 344 -93 344 -93 301 -93 c 1,15,-1
 306 -8 l 1,16,17
 207 2 207 2 152.5 73.5 c 128,-1,18
 98 145 98 145 98 261 c 0,19,20
 98 339 98 339 126 401.5 c 128,-1,21
 154 464 154 464 208 499.5 c 128,-1,22
 262 535 262 535 337 535 c 0,23,24
 433 535 433 535 508 475 c 1,25,-1
 475 431 l 1,26,27
 403 479 403 479 334 479 c 0,28,29
 259 479 259 479 213 423 c 128,-1,30
 167 367 167 367 167 261 c 0,31,32
 167 154 167 154 212.5 100.5 c 128,-1,33
 258 47 258 47 335 47 c 0,34,35
 411 47 411 47 477 93 c 1,36,-1
 509 52 l 1,37,38
 480 26 480 26 438 10 c 128,-1,39
 396 -6 396 -6 356 -9 c 1,40,-1
 356 -60 l 1,41,0
 401 -63 401 -63 423.5 -86 c 128,-1,1
EndSplineSet
EndChar

StartChar: d
Encoding: 100 100 155
Width: 600
GlyphClass: 2
Flags: W
AnchorPoint: "Anchor-7" 300 738 basechar 0
AnchorPoint: "Anchor-6" 300 0 basechar 0
LayerCount: 2
Fore
SplineSet
491 738 m 1,0,-1
 491 0 l 1,1,-1
 437 0 l 1,2,-1
 429 72 l 1,3,4
 371 -10 371 -10 279 -10 c 0,5,6
 177 -10 177 -10 126.5 62.5 c 128,-1,7
 76 135 76 135 76 261 c 0,8,9
 76 340 76 340 100.5 402 c 128,-1,10
 125 464 125 464 171.5 499.5 c 128,-1,11
 218 535 218 535 281 535 c 0,12,13
 329 535 329 535 365 518.5 c 128,-1,14
 401 502 401 502 429 468 c 1,15,-1
 429 746 l 1,16,-1
 491 738 l 1,0,-1
185 425.5 m 128,-1,18
 146 370 146 370 146 262 c 0,19,20
 146 157 146 157 181.5 100.5 c 128,-1,21
 217 44 217 44 286 44 c 0,22,23
 368 44 368 44 429 134 c 1,24,-1
 429 406 l 1,25,26
 405 442 405 442 371 461.5 c 128,-1,27
 337 481 337 481 297 481 c 0,28,17
 224 481 224 481 185 425.5 c 128,-1,18
EndSplineSet
EndChar

StartChar: eth
Encoding: 240 240 156
Width: 600
Flags: W
LayerCount: 2
Fore
SplineSet
270 651 m 1,0,1
 224 676 224 676 145 691 c 1,2,-1
 160 746 l 1,3,4
 252 726 252 726 311 693 c 1,5,-1
 379 766 l 1,6,-1
 421 730 l 1,7,-1
 357 663 l 1,8,9
 443 601 443 601 484 503.5 c 128,-1,10
 525 406 525 406 525 260 c 0,11,12
 525 176 525 176 496 115.5 c 128,-1,13
 467 55 467 55 415 22.5 c 128,-1,14
 363 -10 363 -10 295 -10 c 0,15,16
 234 -10 234 -10 184 19 c 128,-1,17
 134 48 134 48 104.5 103.5 c 128,-1,18
 75 159 75 159 75 235 c 0,19,20
 75 307 75 307 104 363 c 128,-1,21
 133 419 133 419 181.5 450 c 128,-1,22
 230 481 230 481 287 481 c 0,23,24
 390 481 390 481 452 406 c 1,25,26
 439 472 439 472 403.5 528 c 128,-1,27
 368 584 368 584 316 621 c 1,28,-1
 230 534 l 1,29,-1
 183 559 l 1,30,-1
 270 651 l 1,0,1
459 334 m 1,32,33
 431 379 431 379 387 402.5 c 128,-1,34
 343 426 343 426 289 426 c 0,35,36
 226 426 226 426 182.5 379 c 128,-1,37
 139 332 139 332 139 240 c 256,38,39
 139 148 139 148 181.5 96 c 128,-1,40
 224 44 224 44 293 44 c 0,41,42
 371 44 371 44 417 103 c 128,-1,43
 463 162 463 162 463 270 c 0,44,31
 463 294 463 294 459 334 c 1,32,33
EndSplineSet
EndChar

StartChar: dcroat
Encoding: 273 273 158
Width: 600
GlyphClass: 2
Flags: W
AnchorPoint: "Anchor-7" 308 738 basechar 0
AnchorPoint: "Anchor-6" 308 0 basechar 0
LayerCount: 2
Fore
SplineSet
578 599 m 1,0,-1
 499 599 l 1,1,-1
 499 0 l 1,2,-1
 445 0 l 1,3,-1
 437 72 l 1,4,5
 379 -10 379 -10 287 -10 c 0,6,7
 185 -10 185 -10 134.5 62.5 c 128,-1,8
 84 135 84 135 84 261 c 0,9,10
 84 340 84 340 108.5 402 c 128,-1,11
 133 464 133 464 179.5 499.5 c 128,-1,12
 226 535 226 535 289 535 c 0,13,14
 337 535 337 535 373 518.5 c 128,-1,15
 409 502 409 502 437 468 c 1,16,-1
 437 599 l 1,17,-1
 251 599 l 1,18,-1
 251 659 l 1,19,-1
 437 659 l 1,20,-1
 437 746 l 1,21,-1
 499 738 l 1,22,-1
 499 659 l 1,23,-1
 578 659 l 1,24,-1
 578 599 l 1,0,-1
437 406 m 1,25,26
 413 442 413 442 379 461.5 c 128,-1,27
 345 481 345 481 305 481 c 0,28,29
 232 481 232 481 193 425.5 c 128,-1,30
 154 370 154 370 154 262 c 0,31,32
 154 157 154 157 189.5 100.5 c 128,-1,33
 225 44 225 44 294 44 c 0,34,35
 376 44 376 44 437 134 c 1,36,-1
 437 406 l 1,25,26
EndSplineSet
EndChar

StartChar: e
Encoding: 101 101 159
Width: 600
GlyphClass: 2
Flags: W
AnchorPoint: "Anchor-7" 311 525 basechar 0
AnchorPoint: "Anchor-6" 300 0 basechar 0
LayerCount: 2
Fore
SplineSet
202 95.5 m 128,-1,1
 248 47 248 47 316 47 c 0,2,3
 356 47 356 47 388 58.5 c 128,-1,4
 420 70 420 70 458 95 c 1,5,-1
 490 49 l 1,6,7
 454 21 454 21 408.5 5.5 c 128,-1,8
 363 -10 363 -10 319 -10 c 0,9,10
 248 -10 248 -10 195.5 24 c 128,-1,11
 143 58 143 58 115.5 119.5 c 128,-1,12
 88 181 88 181 88 262 c 0,13,14
 88 341 88 341 115.5 403 c 128,-1,15
 143 465 143 465 193.5 500 c 128,-1,16
 244 535 244 535 309 535 c 0,17,18
 405 535 405 535 459 466.5 c 128,-1,19
 513 398 513 398 513 280 c 2,20,-1
 512 238 l 1,21,-1
 155 238 l 1,22,0
 156 144 156 144 202 95.5 c 128,-1,1
203 430 m 128,-1,24
 161 383 161 383 156 293 c 1,25,-1
 454 293 l 1,26,27
 452 384 452 384 413.5 430.5 c 128,-1,28
 375 477 375 477 311 477 c 0,29,23
 245 477 245 477 203 430 c 128,-1,24
EndSplineSet
EndChar

StartChar: eogonek
Encoding: 281 281 168
Width: 600
GlyphClass: 2
Flags: W
AnchorPoint: "Anchor-7" 311 525 basechar 0
AnchorPoint: "Anchor-6" 300 0 basechar 0
LayerCount: 2
Fore
SplineSet
512 238 m 1,0,-1
 155 238 l 1,1,2
 156 144 156 144 202 95.5 c 128,-1,3
 248 47 248 47 316 47 c 0,4,5
 356 47 356 47 388 58.5 c 128,-1,6
 420 70 420 70 458 95 c 1,7,-1
 490 49 l 1,8,9
 443 13 443 13 385 -1 c 1,10,11
 313 -35 313 -35 287 -61.5 c 128,-1,12
 261 -88 261 -88 261 -116 c 0,13,14
 261 -139 261 -139 273.5 -151 c 128,-1,15
 286 -163 286 -163 316 -163 c 0,16,17
 349 -163 349 -163 380 -156 c 1,18,-1
 373 -216 l 1,19,20
 331 -222 331 -222 308 -222 c 0,21,22
 255 -222 255 -222 225 -196 c 128,-1,23
 195 -170 195 -170 195 -131 c 256,24,25
 195 -92 195 -92 224 -60.5 c 128,-1,26
 253 -29 253 -29 311 -10 c 1,27,28
 207 -7 207 -7 147.5 67 c 128,-1,29
 88 141 88 141 88 262 c 0,30,31
 88 341 88 341 115.5 403 c 128,-1,32
 143 465 143 465 193.5 500 c 128,-1,33
 244 535 244 535 309 535 c 0,34,35
 405 535 405 535 459 466.5 c 128,-1,36
 513 398 513 398 513 280 c 2,37,-1
 512 238 l 1,0,-1
454 293 m 1,38,39
 452 384 452 384 413.5 430.5 c 128,-1,40
 375 477 375 477 311 477 c 0,41,42
 245 477 245 477 203 430 c 128,-1,43
 161 383 161 383 156 293 c 1,44,-1
 454 293 l 1,38,39
EndSplineSet
EndChar

StartChar: f
Encoding: 102 102 169
Width: 600
GlyphClass: 2
Flags: W
AnchorPoint: "Anchor-7" 370 738 basechar 0
AnchorPoint: "Anchor-6" 260 0 basechar 0
LayerCount: 2
Fore
SplineSet
543 719 m 1,1,-1
 521 669 l 1,2,3
 473 691 473 691 409 691 c 0,4,5
 351 691 351 691 321 668 c 128,-1,6
 291 645 291 645 291 600 c 2,7,-1
 291 482 l 1,8,-1
 471 482 l 1,9,-1
 465 429 l 1,10,-1
 291 429 l 1,11,-1
 291 0 l 1,12,-1
 229 0 l 1,13,-1
 229 429 l 1,14,-1
 99 429 l 1,15,-1
 99 482 l 1,16,-1
 229 482 l 1,17,-1
 229 596 l 2,18,19
 229 665 229 665 282 705.5 c 128,-1,20
 335 746 335 746 412 746 c 0,21,0
 481 746 481 746 543 719 c 1,1,-1
EndSplineSet
EndChar

StartChar: g
Encoding: 103 103 170
Width: 600
GlyphClass: 2
Flags: W
AnchorPoint: "Anchor-7" 291 525 basechar 0
AnchorPoint: "Anchor-6" 0 0 basechar 0
LayerCount: 2
Fore
SplineSet
547 504 m 1,0,1
 515 495 515 495 481.5 493 c 128,-1,2
 448 491 448 491 393 491 c 1,3,4
 481 450 481 450 481 359 c 0,5,6
 481 279 481 279 430.5 229.5 c 128,-1,7
 380 180 380 180 291 180 c 0,8,9
 262 180 262 180 243.5 182.5 c 128,-1,10
 225 185 225 185 207 192 c 1,11,12
 194 181 194 181 185.5 165.5 c 128,-1,13
 177 150 177 150 177 134 c 0,14,15
 177 86 177 86 251 86 c 2,16,-1
 348 86 l 2,17,18
 398 86 398 86 439.5 67.5 c 128,-1,19
 481 49 481 49 505.5 17.5 c 128,-1,20
 530 -14 530 -14 530 -53 c 0,21,22
 530 -129 530 -129 466.5 -169 c 128,-1,23
 403 -209 403 -209 288 -209 c 0,24,25
 172 -209 172 -209 124 -172.5 c 128,-1,26
 76 -136 76 -136 76 -54 c 1,27,-1
 133 -54 l 1,28,29
 133 -89 133 -89 146 -110 c 128,-1,30
 159 -131 159 -131 192.5 -141.5 c 128,-1,31
 226 -152 226 -152 286 -152 c 0,32,33
 466 -152 466 -152 466 -57 c 0,34,35
 466 -17 466 -17 429 4 c 128,-1,36
 392 25 392 25 335 25 c 2,37,-1
 238 25 l 2,38,39
 178 25 178 25 146.5 53 c 128,-1,40
 115 81 115 81 115 123 c 0,41,42
 115 147 115 147 129.5 170.5 c 128,-1,43
 144 194 144 194 172 212 c 1,44,45
 128 235 128 235 107 270 c 128,-1,46
 86 305 86 305 86 355 c 0,47,48
 86 406 86 406 111.5 447 c 128,-1,49
 137 488 137 488 183 511.5 c 128,-1,50
 229 535 229 535 288 535 c 0,51,52
 382 536 382 536 427 544 c 128,-1,53
 472 552 472 552 525 572 c 1,54,-1
 547 504 l 1,0,1
184 450 m 128,-1,56
 150 414 150 414 150 355 c 0,57,58
 150 295 150 295 184.5 259 c 128,-1,59
 219 223 219 223 289 223 c 0,60,61
 349 223 349 223 381 258 c 128,-1,62
 413 293 413 293 413 355 c 0,63,64
 413 419 413 419 381 452.5 c 128,-1,65
 349 486 349 486 286 486 c 0,66,55
 218 486 218 486 184 450 c 128,-1,56
EndSplineSet
EndChar

StartChar: gcommaaccent
Encoding: 291 291 173
Width: 600
GlyphClass: 2
Flags: W
AnchorPoint: "Anchor-7" 291 525 basechar 0
AnchorPoint: "Anchor-6" 0 0 basechar 0
LayerCount: 2
Fore
SplineSet
253.5 610.5 m 128,-1,1
 240 624 240 624 240 644 c 0,2,3
 240 655 240 655 242.5 664.5 c 128,-1,4
 245 674 245 674 252 690 c 2,5,-1
 303 800 l 1,6,-1
 345 800 l 1,7,-1
 315 683 l 1,8,9
 324 676 324 676 329 665.5 c 128,-1,10
 334 655 334 655 334 644 c 0,11,12
 334 623 334 623 320.5 610 c 128,-1,13
 307 597 307 597 287 597 c 256,14,0
 267 597 267 597 253.5 610.5 c 128,-1,1
547 504 m 1,15,16
 515 495 515 495 481.5 493 c 128,-1,17
 448 491 448 491 393 491 c 1,18,19
 481 450 481 450 481 359 c 0,20,21
 481 279 481 279 430.5 229.5 c 128,-1,22
 380 180 380 180 291 180 c 0,23,24
 262 180 262 180 243.5 182.5 c 128,-1,25
 225 185 225 185 207 192 c 1,26,27
 194 181 194 181 185.5 165.5 c 128,-1,28
 177 150 177 150 177 134 c 0,29,30
 177 86 177 86 251 86 c 2,31,-1
 348 86 l 2,32,33
 398 86 398 86 439.5 67.5 c 128,-1,34
 481 49 481 49 505.5 17.5 c 128,-1,35
 530 -14 530 -14 530 -53 c 0,36,37
 530 -129 530 -129 466.5 -169 c 128,-1,38
 403 -209 403 -209 288 -209 c 0,39,40
 172 -209 172 -209 124 -172.5 c 128,-1,41
 76 -136 76 -136 76 -54 c 1,42,-1
 133 -54 l 1,43,44
 133 -89 133 -89 146 -110 c 128,-1,45
 159 -131 159 -131 192.5 -141.5 c 128,-1,46
 226 -152 226 -152 286 -152 c 0,47,48
 466 -152 466 -152 466 -57 c 0,49,50
 466 -17 466 -17 429 4 c 128,-1,51
 392 25 392 25 335 25 c 2,52,-1
 238 25 l 2,53,54
 178 25 178 25 146.5 53 c 128,-1,55
 115 81 115 81 115 123 c 0,56,57
 115 147 115 147 129.5 170.5 c 128,-1,58
 144 194 144 194 172 212 c 1,59,60
 128 235 128 235 107 270 c 128,-1,61
 86 305 86 305 86 355 c 0,62,63
 86 406 86 406 111.5 447 c 128,-1,64
 137 488 137 488 183 511.5 c 128,-1,65
 229 535 229 535 288 535 c 0,66,67
 382 536 382 536 427 544 c 128,-1,68
 472 552 472 552 525 572 c 1,69,-1
 547 504 l 1,15,16
184 450 m 128,-1,71
 150 414 150 414 150 355 c 0,72,73
 150 295 150 295 184.5 259 c 128,-1,74
 219 223 219 223 289 223 c 0,75,76
 349 223 349 223 381 258 c 128,-1,77
 413 293 413 293 413 355 c 0,78,79
 413 419 413 419 381 452.5 c 128,-1,80
 349 486 349 486 286 486 c 0,81,70
 218 486 218 486 184 450 c 128,-1,71
EndSplineSet
EndChar

StartChar: h
Encoding: 104 104 175
Width: 600
GlyphClass: 2
Flags: W
AnchorPoint: "Anchor-7" 300 738 basechar 0
AnchorPoint: "Anchor-6" 300 0 basechar 0
LayerCount: 2
Fore
SplineSet
171 447 m 1,0,1
 201 489 201 489 247.5 512 c 128,-1,2
 294 535 294 535 343 535 c 0,3,4
 492 535 492 535 492 380 c 2,5,-1
 492 0 l 1,6,-1
 430 0 l 1,7,-1
 430 391 l 2,8,9
 430 438 430 438 404.5 460.5 c 128,-1,10
 379 483 379 483 327 483 c 0,11,12
 280 483 280 483 237.5 454 c 128,-1,13
 195 425 195 425 171 389 c 1,14,-1
 171 0 l 1,15,-1
 109 0 l 1,16,-1
 109 736 l 1,17,-1
 171 744 l 1,18,-1
 171 447 l 1,0,1
EndSplineSet
EndChar

StartChar: hbar
Encoding: 295 295 176
Width: 600
GlyphClass: 2
Flags: W
AnchorPoint: "Anchor-7" 300 738 basechar 0
AnchorPoint: "Anchor-6" 300 0 basechar 0
LayerCount: 2
Fore
SplineSet
492 380 m 2,1,-1
 492 0 l 1,2,-1
 430 0 l 1,3,-1
 430 391 l 2,4,5
 430 438 430 438 404.5 460.5 c 128,-1,6
 379 483 379 483 327 483 c 0,7,8
 280 483 280 483 237.5 454 c 128,-1,9
 195 425 195 425 171 389 c 1,10,-1
 171 0 l 1,11,-1
 109 0 l 1,12,-1
 109 599 l 1,13,-1
 22 599 l 1,14,-1
 22 659 l 1,15,-1
 109 659 l 1,16,-1
 109 736 l 1,17,-1
 171 744 l 1,18,-1
 171 659 l 1,19,-1
 349 659 l 1,20,-1
 349 599 l 1,21,-1
 171 599 l 1,22,-1
 171 447 l 1,23,24
 201 489 201 489 247.5 512 c 128,-1,25
 294 535 294 535 343 535 c 0,26,0
 492 535 492 535 492 380 c 2,1,-1
EndSplineSet
EndChar

StartChar: i
Encoding: 105 105 178
Width: 600
GlyphClass: 2
Flags: W
AnchorPoint: "Anchor-7" 0 0 basechar 0
AnchorPoint: "Anchor-6" 300 0 basechar 0
LayerCount: 2
Fore
SplineSet
338.5 748 m 128,-1,1
 353 734 353 734 353 713 c 0,2,3
 353 690 353 690 338.5 676 c 128,-1,4
 324 662 324 662 300 662 c 0,5,6
 278 662 278 662 264 676 c 128,-1,7
 250 690 250 690 250 713 c 0,8,9
 250 734 250 734 264 748 c 128,-1,10
 278 762 278 762 300 762 c 0,11,0
 324 762 324 762 338.5 748 c 128,-1,1
359 525 m 1,12,-1
 359 54 l 1,13,-1
 511 54 l 1,14,-1
 511 0 l 1,15,-1
 131 0 l 1,16,-1
 131 54 l 1,17,-1
 297 54 l 1,18,-1
 297 471 l 1,19,-1
 136 471 l 1,20,-1
 136 525 l 1,21,-1
 359 525 l 1,12,-1
EndSplineSet
Substitution2: "'locl' Localized Forms in Latin lookup 21 subtable" i.loclTRK
Substitution2: "'locl' Localized Forms in Latin lookup 19 subtable" i.loclTRK
Substitution2: "'locl' Localized Forms in Latin lookup 17 subtable" i.loclTRK
Substitution2: "'locl' Localized Forms in Latin lookup 14 subtable" i.loclTRK
Substitution2: "'locl' Localized Forms in Latin lookup 13 subtable" i.loclTRK
Substitution2: "'aalt' Access All Alternates lookup 0 subtable" i.loclTRK
EndChar

StartChar: dotlessi
Encoding: 305 305 179
Width: 600
GlyphClass: 2
Flags: W
AnchorPoint: "Anchor-7" 302 525 basechar 0
AnchorPoint: "Anchor-6" 0 0 basechar 0
LayerCount: 2
Fore
SplineSet
359 525 m 1,0,-1
 359 54 l 1,1,-1
 511 54 l 1,2,-1
 511 0 l 1,3,-1
 131 0 l 1,4,-1
 131 54 l 1,5,-1
 297 54 l 1,6,-1
 297 471 l 1,7,-1
 136 471 l 1,8,-1
 136 525 l 1,9,-1
 359 525 l 1,0,-1
EndSplineSet
EndChar

StartChar: ij
Encoding: 307 307 186
Width: 600
Flags: W
LayerCount: 2
Fore
SplineSet
221.5 748 m 128,-1,1
 236 734 236 734 236 713 c 0,2,3
 236 691 236 691 222 676.5 c 128,-1,4
 208 662 208 662 185 662 c 256,5,6
 162 662 162 662 148 676 c 128,-1,7
 134 690 134 690 134 713 c 0,8,9
 134 734 134 734 148 748 c 128,-1,10
 162 762 162 762 185 762 c 0,11,0
 207 762 207 762 221.5 748 c 128,-1,1
483 748 m 128,-1,13
 498 734 498 734 498 713 c 0,14,15
 498 691 498 691 483.5 676.5 c 128,-1,16
 469 662 469 662 446 662 c 256,17,18
 423 662 423 662 409.5 676 c 128,-1,19
 396 690 396 690 396 713 c 0,20,21
 396 734 396 734 409.5 748 c 128,-1,22
 423 762 423 762 446 762 c 0,23,12
 468 762 468 762 483 748 c 128,-1,13
487 35 m 2,24,25
 487 -53 487 -53 419.5 -113 c 128,-1,26
 352 -173 352 -173 245 -209 c 1,27,-1
 228 -159 l 1,28,29
 286 -135 286 -135 327 -111.5 c 128,-1,30
 368 -88 368 -88 397.5 -52 c 128,-1,31
 427 -16 427 -16 427 32 c 2,32,-1
 427 473 l 1,33,-1
 212 473 l 1,34,-1
 212 54 l 1,35,-1
 321 54 l 1,36,-1
 321 0 l 1,37,-1
 52 0 l 1,38,-1
 52 54 l 1,39,-1
 153 54 l 1,40,-1
 153 473 l 1,41,-1
 57 473 l 1,42,-1
 57 525 l 1,43,-1
 487 525 l 1,44,-1
 487 35 l 2,24,25
EndSplineSet
EndChar

StartChar: iogonek
Encoding: 303 303 188
Width: 600
GlyphClass: 2
Flags: W
AnchorPoint: "Anchor-7" 302 525 basechar 0
AnchorPoint: "Anchor-6" 0 0 basechar 0
LayerCount: 2
Fore
SplineSet
264.5 676.5 m 128,-1,1
 250 691 250 691 250 713 c 0,2,3
 250 734 250 734 264.5 748 c 128,-1,4
 279 762 279 762 301 762 c 0,5,6
 325 762 325 762 339 748 c 128,-1,7
 353 734 353 734 353 713 c 0,8,9
 353 690 353 690 339 676 c 128,-1,10
 325 662 325 662 301 662 c 0,11,0
 279 662 279 662 264.5 676.5 c 128,-1,1
511 54 m 1,12,-1
 511 0 l 1,13,-1
 359 0 l 1,14,15
 285 -34 285 -34 258.5 -61 c 128,-1,16
 232 -88 232 -88 232 -116 c 0,17,18
 232 -139 232 -139 244.5 -151 c 128,-1,19
 257 -163 257 -163 287 -163 c 0,20,21
 320 -163 320 -163 351 -156 c 1,22,-1
 344 -216 l 1,23,24
 302 -222 302 -222 279 -222 c 0,25,26
 226 -222 226 -222 196 -196 c 128,-1,27
 166 -170 166 -170 166 -131 c 0,28,29
 166 -51 166 -51 278 0 c 1,30,-1
 131 0 l 1,31,-1
 131 54 l 1,32,-1
 297 54 l 1,33,-1
 297 471 l 1,34,-1
 136 471 l 1,35,-1
 136 525 l 1,36,-1
 359 525 l 1,37,-1
 359 54 l 1,38,-1
 511 54 l 1,12,-1
EndSplineSet
EndChar

StartChar: j
Encoding: 106 106 190
Width: 600
GlyphClass: 2
Flags: W
AnchorPoint: "Anchor-7" 367 525 basechar 0
AnchorPoint: "Anchor-6" 0 0 basechar 0
LayerCount: 2
Fore
SplineSet
404 748 m 128,-1,1
 418 734 418 734 418 713 c 0,2,3
 418 690 418 690 404 676 c 128,-1,4
 390 662 390 662 366 662 c 0,5,6
 344 662 344 662 329.5 676.5 c 128,-1,7
 315 691 315 691 315 713 c 0,8,9
 315 734 315 734 329.5 748 c 128,-1,10
 344 762 344 762 366 762 c 0,11,0
 390 762 390 762 404 748 c 128,-1,1
437 64 m 2,12,13
 437 -52 437 -52 354.5 -118 c 128,-1,14
 272 -184 272 -184 114 -209 c 1,15,-1
 104 -161 l 1,16,17
 375 -120 375 -120 375 60 c 2,18,-1
 375 471 l 1,19,-1
 148 471 l 1,20,-1
 148 525 l 1,21,-1
 437 525 l 1,22,-1
 437 64 l 2,12,13
EndSplineSet
EndChar

StartChar: uni0237
Encoding: 567 567 191
Width: 600
GlyphClass: 2
Flags: W
AnchorPoint: "Anchor-7" 367 525 basechar 0
AnchorPoint: "Anchor-6" 0 0 basechar 0
LayerCount: 2
Fore
SplineSet
437 64 m 2,0,1
 437 -52 437 -52 354.5 -118 c 128,-1,2
 272 -184 272 -184 114 -209 c 1,3,-1
 104 -161 l 1,4,5
 375 -120 375 -120 375 60 c 2,6,-1
 375 471 l 1,7,-1
 148 471 l 1,8,-1
 148 525 l 1,9,-1
 437 525 l 1,10,-1
 437 64 l 2,0,1
EndSplineSet
EndChar

StartChar: k
Encoding: 107 107 193
Width: 600
GlyphClass: 2
Flags: W
AnchorPoint: "Anchor-7" 300 738 basechar 0
AnchorPoint: "Anchor-6" 307 0 basechar 0
LayerCount: 2
Fore
SplineSet
179 746 m 1,0,-1
 179 0 l 1,1,-1
 117 0 l 1,2,-1
 117 738 l 1,3,-1
 179 746 l 1,0,-1
532 525 m 1,4,-1
 277 287 l 1,5,-1
 563 0 l 1,6,-1
 473 0 l 1,7,-1
 189 287 l 1,8,-1
 440 525 l 1,9,-1
 532 525 l 1,4,-1
EndSplineSet
EndChar

StartChar: kgreenlandic
Encoding: 312 312 195
Width: 600
GlyphClass: 2
Flags: W
AnchorPoint: "Anchor-7" 300 525 basechar 0
AnchorPoint: "Anchor-6" 300 0 basechar 0
LayerCount: 2
Fore
SplineSet
171 525 m 1,0,-1
 171 0 l 1,1,-1
 109 0 l 1,2,-1
 109 525 l 1,3,-1
 171 525 l 1,0,-1
525 525 m 1,4,-1
 267 288 l 1,5,-1
 556 0 l 1,6,-1
 466 0 l 1,7,-1
 182 285 l 1,8,-1
 433 525 l 1,9,-1
 525 525 l 1,4,-1
EndSplineSet
EndChar

StartChar: l
Encoding: 108 108 196
Width: 600
GlyphClass: 2
Flags: W
AnchorPoint: "Anchor-7" 268 738 basechar 0
AnchorPoint: "Anchor-6" 362 0 basechar 0
LayerCount: 2
Fore
SplineSet
293 119 m 2,0,1
 293 44 293 44 386 44 c 0,2,3
 429 44 429 44 478 63 c 1,4,-1
 496 15 l 1,5,6
 446 -10 446 -10 379 -10 c 0,7,8
 315 -10 315 -10 273 24.5 c 128,-1,9
 231 59 231 59 231 119 c 2,10,-1
 231 683 l 1,11,-1
 68 683 l 1,12,-1
 68 738 l 1,13,-1
 293 738 l 1,14,-1
 293 119 l 2,0,1
EndSplineSet
EndChar

StartChar: lslash
Encoding: 322 322 201
Width: 600
GlyphClass: 2
Flags: W
AnchorPoint: "Anchor-7" 268 738 basechar 0
AnchorPoint: "Anchor-6" 362 0 basechar 0
LayerCount: 2
Fore
SplineSet
496 15 m 1,0,1
 446 -10 446 -10 379 -10 c 0,2,3
 315 -10 315 -10 273 24.5 c 128,-1,4
 231 59 231 59 231 119 c 2,5,-1
 231 320 l 1,6,-1
 157 275 l 1,7,-1
 127 319 l 1,8,-1
 231 381 l 1,9,-1
 231 683 l 1,10,-1
 68 683 l 1,11,-1
 68 738 l 1,12,-1
 293 738 l 1,13,-1
 293 420 l 1,14,-1
 390 481 l 1,15,-1
 420 437 l 1,16,-1
 293 358 l 1,17,-1
 293 119 l 2,18,19
 293 44 293 44 386 44 c 0,20,21
 429 44 429 44 478 63 c 1,22,-1
 496 15 l 1,0,1
EndSplineSet
EndChar

StartChar: m
Encoding: 109 109 202
Width: 600
GlyphClass: 2
Flags: W
AnchorPoint: "Anchor-7" 300 525 basechar 0
AnchorPoint: "Anchor-6" 300 0 basechar 0
LayerCount: 2
Fore
SplineSet
542 392 m 2,1,-1
 542 0 l 1,2,-1
 482 0 l 1,3,-1
 482 379 l 2,4,5
 482 422 482 422 479.5 443.5 c 128,-1,6
 477 465 477 465 467.5 475.5 c 128,-1,7
 458 486 458 486 437 486 c 0,8,9
 378 486 378 486 334 414 c 1,10,-1
 334 0 l 1,11,-1
 265 0 l 1,12,-1
 265 379 l 2,13,14
 265 422 265 422 262.5 443.5 c 128,-1,15
 260 465 260 465 250.5 475.5 c 128,-1,16
 241 486 241 486 220 486 c 0,17,18
 162 486 162 486 117 414 c 1,19,-1
 117 0 l 1,20,-1
 58 0 l 1,21,-1
 58 525 l 1,22,-1
 108 525 l 1,23,-1
 112 461 l 1,24,25
 135 496 135 496 162.5 515.5 c 128,-1,26
 190 535 190 535 228 535 c 0,27,28
 306 535 306 535 327 463 c 1,29,30
 350 498 350 498 377 516.5 c 128,-1,31
 404 535 404 535 443 535 c 0,32,0
 542 535 542 535 542 392 c 2,1,-1
EndSplineSet
EndChar

StartChar: n
Encoding: 110 110 203
Width: 600
GlyphClass: 2
Flags: W
AnchorPoint: "Anchor-7" 300 525 basechar 0
AnchorPoint: "Anchor-6" 301 0 basechar 0
LayerCount: 2
Fore
SplineSet
109 525 m 1,0,-1
 161 525 l 1,1,-1
 167 448 l 1,2,3
 197 488 197 488 247 511.5 c 128,-1,4
 297 535 297 535 343 535 c 0,5,6
 421 535 421 535 456.5 495.5 c 128,-1,7
 492 456 492 456 492 380 c 2,8,-1
 492 0 l 1,9,-1
 430 0 l 1,10,-1
 430 313 l 2,11,12
 430 379 430 379 423.5 414 c 128,-1,13
 417 449 417 449 395 466 c 128,-1,14
 373 483 373 483 328 483 c 0,15,16
 280 483 280 483 237.5 453.5 c 128,-1,17
 195 424 195 424 171 387 c 1,18,-1
 171 0 l 1,19,-1
 109 0 l 1,20,-1
 109 525 l 1,0,-1
EndSplineSet
EndChar

StartChar: napostrophe
Encoding: 329 329 205
Width: 600
GlyphClass: 2
Flags: W
AnchorPoint: "Anchor-7" 306 525 basechar 0
AnchorPoint: "Anchor-6" 307 0 basechar 0
LayerCount: 2
Fore
SplineSet
99 734.5 m 128,-1,1
 113 721 113 721 113 701 c 0,2,3
 113 691 113 691 107.5 674.5 c 128,-1,4
 102 658 102 658 86 622 c 2,5,-1
 45 534 l 1,6,-1
 3 534 l 1,7,-1
 36 661 l 1,8,9
 15 679 15 679 15 701 c 0,10,11
 15 722 15 722 29.5 735 c 128,-1,12
 44 748 44 748 65 748 c 0,13,0
 85 748 85 748 99 734.5 c 128,-1,1
115 525 m 1,14,-1
 167 525 l 1,15,-1
 173 448 l 1,16,17
 203 488 203 488 253 511.5 c 128,-1,18
 303 535 303 535 349 535 c 0,19,20
 427 535 427 535 462.5 495.5 c 128,-1,21
 498 456 498 456 498 380 c 2,22,-1
 498 0 l 1,23,-1
 436 0 l 1,24,-1
 436 313 l 2,25,26
 436 379 436 379 429.5 414 c 128,-1,27
 423 449 423 449 401 466 c 128,-1,28
 379 483 379 483 334 483 c 0,29,30
 286 483 286 483 243.5 453.5 c 128,-1,31
 201 424 201 424 177 387 c 1,32,-1
 177 0 l 1,33,-1
 115 0 l 1,34,-1
 115 525 l 1,14,-1
EndSplineSet
Ligature2: "'locl' Localized Forms in Latin lookup 22 subtable" quoteright n
Ligature2: "'locl' Localized Forms in Latin lookup 22 subtable" quotesingle n
EndChar

StartChar: eng
Encoding: 331 331 208
Width: 600
Flags: W
LayerCount: 2
Fore
SplineSet
478 -92 m 128,-1,1
 464 -133 464 -133 435 -158 c 128,-1,2
 406 -183 406 -183 354 -208 c 1,3,-1
 330 -163 l 1,4,5
 369 -144 369 -144 389 -126.5 c 128,-1,6
 409 -109 409 -109 419.5 -76.5 c 128,-1,7
 430 -44 430 -44 430 15 c 2,8,-1
 430 313 l 2,9,10
 430 380 430 380 423.5 414.5 c 128,-1,11
 417 449 417 449 395 466 c 128,-1,12
 373 483 373 483 327 483 c 0,13,14
 280 483 280 483 237.5 454 c 128,-1,15
 195 425 195 425 171 389 c 1,16,-1
 171 0 l 1,17,-1
 109 0 l 1,18,-1
 109 525 l 1,19,-1
 161 525 l 1,20,-1
 167 448 l 1,21,22
 197 488 197 488 246.5 511.5 c 128,-1,23
 296 535 296 535 343 535 c 0,24,25
 492 535 492 535 492 380 c 2,26,-1
 492 19 l 2,27,0
 492 -51 492 -51 478 -92 c 128,-1,1
EndSplineSet
EndChar

StartChar: o
Encoding: 111 111 210
Width: 600
GlyphClass: 2
Flags: W
AnchorPoint: "Anchor-7" 300 525 basechar 0
AnchorPoint: "Anchor-6" 300 0 basechar 0
LayerCount: 2
Fore
SplineSet
462 462.5 m 128,-1,1
 517 390 517 390 517 263 c 0,2,3
 517 141 517 141 460.5 65.5 c 128,-1,4
 404 -10 404 -10 300 -10 c 0,5,6
 195 -10 195 -10 139 63.5 c 128,-1,7
 83 137 83 137 83 262 c 0,8,9
 83 386 83 386 139.5 460.5 c 128,-1,10
 196 535 196 535 301 535 c 0,11,0
 407 535 407 535 462 462.5 c 128,-1,1
151 262 m 0,13,14
 151 45 151 45 300 45 c 256,15,16
 449 45 449 45 449 263 c 0,17,18
 449 480 449 480 301 480 c 0,19,12
 151 480 151 480 151 262 c 0,13,14
EndSplineSet
Substitution2: "Single Substitution lookup 159 subtable" ordmasculine
Substitution2: "'aalt' Access All Alternates lookup 0 subtable" ordmasculine
EndChar

StartChar: oslash
Encoding: 248 248 218
Width: 600
GlyphClass: 2
Flags: W
AnchorPoint: "Anchor-7" 300 525 basechar 0
AnchorPoint: "Anchor-6" 0 0 basechar 0
LayerCount: 2
Fore
SplineSet
489 412 m 128,-1,1
 517 349 517 349 517 263 c 0,2,3
 517 141 517 141 460.5 65.5 c 128,-1,4
 404 -10 404 -10 300 -10 c 0,5,6
 269 -10 269 -10 244 -3 c 1,7,-1
 208 -128 l 1,8,-1
 151 -112 l 1,9,-1
 193 18 l 1,10,11
 140 49 140 49 111.5 112.5 c 128,-1,12
 83 176 83 176 83 262 c 0,13,14
 83 386 83 386 139.5 460.5 c 128,-1,15
 196 535 196 535 301 535 c 0,16,17
 329 535 329 535 355 529 c 1,18,-1
 394 651 l 1,19,-1
 450 635 l 1,20,-1
 408 507 l 1,21,0
 461 475 461 475 489 412 c 128,-1,1
215 72 m 1,23,-1
 340 475 l 1,24,25
 324 479 324 479 301 479 c 0,26,27
 153 479 153 479 153 262 c 0,28,22
 153 119 153 119 215 72 c 1,23,-1
447 263 m 0,30,31
 447 406 447 406 385 454 c 1,32,-1
 262 51 l 1,33,34
 278 47 278 47 300 47 c 0,35,29
 447 47 447 47 447 263 c 0,30,31
EndSplineSet
EndChar

StartChar: oe
Encoding: 339 339 221
Width: 600
Flags: W
LayerCount: 2
Fore
SplineSet
577 468 m 128,-1,1
 618 401 618 401 618 280 c 0,2,3
 618 257 618 257 616 235 c 1,4,-1
 345 235 l 1,5,6
 352 138 352 138 378 94.5 c 128,-1,7
 404 51 404 51 459 51 c 0,8,9
 487 51 487 51 508.5 61 c 128,-1,10
 530 71 530 71 559 93 c 1,11,-1
 592 41 l 1,12,13
 558 15 558 15 527.5 2.5 c 128,-1,14
 497 -10 497 -10 460 -10 c 0,15,16
 404 -10 404 -10 366.5 18 c 128,-1,17
 329 46 329 46 311 98 c 1,18,19
 289 46 289 46 255.5 18 c 128,-1,20
 222 -10 222 -10 164 -10 c 0,21,22
 81 -10 81 -10 40 63 c 128,-1,23
 -1 136 -1 136 -1 262 c 256,24,25
 -1 388 -1 388 39.5 461.5 c 128,-1,26
 80 535 80 535 164 535 c 0,27,28
 225 535 225 535 258.5 507 c 128,-1,29
 292 479 292 479 311 426 c 1,30,31
 351 535 351 535 452 535 c 0,32,0
 536 535 536 535 577 468 c 128,-1,1
99.5 427 m 128,-1,34
 76 373 76 373 76 262 c 0,35,36
 76 148 76 148 99.5 96.5 c 128,-1,37
 123 45 123 45 176 45 c 0,38,39
 213 45 213 45 234 66.5 c 128,-1,40
 255 88 255 88 264 135.5 c 128,-1,41
 273 183 273 183 273 263 c 0,42,43
 273 375 273 375 250.5 428 c 128,-1,44
 228 481 228 481 176 481 c 0,45,33
 123 481 123 481 99.5 427 c 128,-1,34
376 433.5 m 128,-1,47
 352 393 352 393 345 295 c 1,48,-1
 547 295 l 1,49,50
 545 387 545 387 524 430.5 c 128,-1,51
 503 474 503 474 451 474 c 0,52,46
 400 474 400 474 376 433.5 c 128,-1,47
EndSplineSet
EndChar

StartChar: p
Encoding: 112 112 222
Width: 600
GlyphClass: 2
Flags: W
AnchorPoint: "Anchor-7" 300 525 basechar 0
AnchorPoint: "Anchor-6" 300 0 basechar 0
LayerCount: 2
Fore
SplineSet
472.5 464 m 128,-1,1
 517 393 517 393 517 263 c 0,2,3
 517 138 517 138 466 64 c 128,-1,4
 415 -10 415 -10 315 -10 c 0,5,6
 227 -10 227 -10 171 52 c 1,7,-1
 171 -201 l 1,8,-1
 109 -209 l 1,9,-1
 109 525 l 1,10,-1
 161 525 l 1,11,-1
 168 448 l 1,12,13
 197 489 197 489 237.5 512 c 128,-1,14
 278 535 278 535 328 535 c 0,15,0
 428 535 428 535 472.5 464 c 128,-1,1
235 455 m 128,-1,17
 198 429 198 429 171 390 c 1,18,-1
 171 118 l 1,19,20
 194 85 194 85 229 66 c 128,-1,21
 264 47 264 47 305 47 c 0,22,23
 377 47 377 47 413 100.5 c 128,-1,24
 449 154 449 154 449 264 c 0,25,26
 449 481 449 481 316 481 c 0,27,16
 272 481 272 481 235 455 c 128,-1,17
EndSplineSet
EndChar

StartChar: thorn
Encoding: 254 254 223
Width: 600
GlyphClass: 2
Flags: W
AnchorPoint: "Anchor-7" 300 738 basechar 0
AnchorPoint: "Anchor-6" 300 -193 basechar 0
LayerCount: 2
Fore
SplineSet
171 456 m 1,0,1
 202 494 202 494 242 514.5 c 128,-1,2
 282 535 282 535 328 535 c 0,3,4
 428 535 428 535 472.5 464 c 128,-1,5
 517 393 517 393 517 263 c 0,6,7
 517 138 517 138 466 64 c 128,-1,8
 415 -10 415 -10 315 -10 c 0,9,10
 227 -10 227 -10 171 52 c 1,11,-1
 171 -201 l 1,12,-1
 109 -209 l 1,13,-1
 109 738 l 1,14,-1
 171 746 l 1,15,-1
 171 456 l 1,0,1
235 455 m 128,-1,17
 198 429 198 429 171 390 c 1,18,-1
 171 118 l 1,19,20
 194 85 194 85 229 66 c 128,-1,21
 264 47 264 47 305 47 c 0,22,23
 377 47 377 47 413 100.5 c 128,-1,24
 449 154 449 154 449 264 c 0,25,26
 449 481 449 481 316 481 c 0,27,16
 272 481 272 481 235 455 c 128,-1,17
EndSplineSet
EndChar

StartChar: q
Encoding: 113 113 224
Width: 600
GlyphClass: 2
Flags: W
AnchorPoint: "Anchor-7" 300 525 basechar 0
AnchorPoint: "Anchor-6" 300 0 basechar 0
LayerCount: 2
Fore
SplineSet
432 463 m 1,1,-1
 439 525 l 1,2,-1
 491 525 l 1,3,-1
 491 -209 l 1,4,-1
 429 -201 l 1,5,-1
 429 73 l 1,6,7
 399 30 399 30 360 10 c 128,-1,8
 321 -10 321 -10 277 -10 c 0,9,10
 174 -10 174 -10 128.5 60.5 c 128,-1,11
 83 131 83 131 83 261 c 0,12,13
 83 383 83 383 134.5 459 c 128,-1,14
 186 535 186 535 280 535 c 256,15,0
 374 535 374 535 432 463 c 1,1,-1
151 262 m 0,17,18
 151 46 151 46 285 46 c 0,19,20
 330 46 330 46 366.5 70.5 c 128,-1,21
 403 95 403 95 429 134 c 1,22,-1
 429 406 l 1,23,24
 406 441 406 441 371 461 c 128,-1,25
 336 481 336 481 295 481 c 0,26,16
 151 481 151 481 151 262 c 0,17,18
EndSplineSet
EndChar

StartChar: r
Encoding: 114 114 225
Width: 600
GlyphClass: 2
Flags: W
AnchorPoint: "Anchor-7" 332 525 basechar 0
AnchorPoint: "Anchor-6" 231 0 basechar 0
LayerCount: 2
Fore
SplineSet
521 525 m 1,1,-1
 514 360 l 1,2,-1
 454 360 l 1,3,-1
 454 463 l 1,4,-1
 455 476 l 1,5,-1
 442 476 l 2,6,7
 378 476 378 476 334 432 c 128,-1,8
 290 388 290 388 262 296 c 1,9,-1
 262 52 l 1,10,-1
 370 52 l 1,11,-1
 370 0 l 1,12,-1
 114 0 l 1,13,-1
 114 52 l 1,14,-1
 200 52 l 1,15,-1
 200 473 l 1,16,-1
 114 473 l 1,17,-1
 114 525 l 1,18,-1
 247 525 l 1,19,-1
 259 399 l 1,20,21
 292 467 292 467 336 501 c 128,-1,22
 380 535 380 535 450 535 c 0,23,0
 481 535 481 535 521 525 c 1,1,-1
EndSplineSet
EndChar

StartChar: s
Encoding: 115 115 229
Width: 600
GlyphClass: 2
Flags: W
AnchorPoint: "Anchor-7" 306 525 basechar 0
AnchorPoint: "Anchor-6" 295 0 basechar 0
LayerCount: 2
Fore
SplineSet
383.5 72.5 m 128,-1,1
 422 98 422 98 422 140 c 0,2,3
 422 169 422 169 413 187 c 128,-1,4
 404 205 404 205 376.5 220 c 128,-1,5
 349 235 349 235 294 248 c 0,6,7
 231 264 231 264 192 281 c 128,-1,8
 153 298 153 298 131.5 325.5 c 128,-1,9
 110 353 110 353 110 397 c 0,10,11
 110 460 110 460 163.5 497.5 c 128,-1,12
 217 535 217 535 301 535 c 0,13,14
 408 535 408 535 485 478 c 1,15,-1
 456 432 l 1,16,17
 424 455 424 455 388 467.5 c 128,-1,18
 352 480 352 480 302 480 c 0,19,20
 176 480 176 480 176 402 c 0,21,22
 176 376 176 376 189.5 359.5 c 128,-1,23
 203 343 203 343 233 330.5 c 128,-1,24
 263 318 263 318 320 303 c 0,25,26
 406 280 406 280 448.5 244.5 c 128,-1,27
 491 209 491 209 491 142 c 0,28,29
 491 64 491 64 429.5 27 c 128,-1,30
 368 -10 368 -10 278 -10 c 0,31,32
 160 -10 160 -10 82 59 c 1,33,-1
 120 104 l 1,34,35
 151 77 151 77 192 62 c 128,-1,36
 233 47 233 47 279 47 c 0,37,0
 345 47 345 47 383.5 72.5 c 128,-1,1
EndSplineSet
EndChar

StartChar: scedilla
Encoding: 351 351 232
Width: 600
GlyphClass: 2
Flags: W
AnchorPoint: "Anchor-7" 306 525 basechar 0
AnchorPoint: "Anchor-6" 295 0 basechar 0
LayerCount: 2
Fore
SplineSet
440.5 35 m 128,-1,1
 390 -2 390 -2 312 -9 c 1,2,-1
 312 -60 l 1,3,4
 357 -63 357 -63 379.5 -86 c 128,-1,5
 402 -109 402 -109 402 -138 c 0,6,7
 402 -184 402 -184 368.5 -207.5 c 128,-1,8
 335 -231 335 -231 288 -231 c 0,9,10
 225 -231 225 -231 187 -209 c 1,11,-1
 211 -168 l 1,12,13
 240 -183 240 -183 279 -183 c 0,14,15
 341 -183 341 -183 341 -139 c 0,16,17
 341 -112 341 -112 320.5 -102.5 c 128,-1,18
 300 -93 300 -93 257 -93 c 1,19,-1
 262 -10 l 1,20,21
 153 -5 153 -5 82 59 c 1,22,-1
 120 104 l 1,23,24
 151 77 151 77 192 62 c 128,-1,25
 233 47 233 47 279 47 c 0,26,27
 345 47 345 47 383.5 72.5 c 128,-1,28
 422 98 422 98 422 140 c 0,29,30
 422 169 422 169 413 187 c 128,-1,31
 404 205 404 205 376.5 220 c 128,-1,32
 349 235 349 235 294 248 c 0,33,34
 231 264 231 264 192 281 c 128,-1,35
 153 298 153 298 131.5 325.5 c 128,-1,36
 110 353 110 353 110 397 c 0,37,38
 110 460 110 460 163.5 497.5 c 128,-1,39
 217 535 217 535 301 535 c 0,40,41
 408 535 408 535 485 478 c 1,42,-1
 456 432 l 1,43,44
 424 455 424 455 388 467.5 c 128,-1,45
 352 480 352 480 302 480 c 0,46,47
 176 480 176 480 176 402 c 0,48,49
 176 376 176 376 189.5 359.5 c 128,-1,50
 203 343 203 343 233 330.5 c 128,-1,51
 263 318 263 318 320 303 c 0,52,53
 406 280 406 280 448.5 244.5 c 128,-1,54
 491 209 491 209 491 142 c 0,55,0
 491 72 491 72 440.5 35 c 128,-1,1
EndSplineSet
Substitution2: "'locl' Localized Forms in Latin lookup 16 subtable" scommaaccent
Substitution2: "'locl' Localized Forms in Latin lookup 15 subtable" scommaaccent
Substitution2: "'aalt' Access All Alternates lookup 0 subtable" scommaaccent
EndChar

StartChar: germandbls
Encoding: 223 223 235
Width: 600
Flags: W
LayerCount: 2
Fore
SplineSet
417.5 707 m 128,-1,1
 464 668 464 668 464 606 c 0,2,3
 464 569 464 569 445.5 545 c 128,-1,4
 427 521 427 521 393 494 c 0,5,6
 368 476 368 476 355.5 461 c 128,-1,7
 343 446 343 446 343 428 c 0,8,9
 343 402 343 402 362.5 383.5 c 128,-1,10
 382 365 382 365 424 340 c 0,11,12
 465 315 465 315 490 295 c 128,-1,13
 515 275 515 275 533.5 243 c 128,-1,14
 552 211 552 211 552 167 c 0,15,16
 552 111 552 111 527 71 c 128,-1,17
 502 31 502 31 460.5 10.5 c 128,-1,18
 419 -10 419 -10 370 -10 c 0,19,20
 293 -10 293 -10 240 26 c 1,21,-1
 270 69 l 1,22,23
 289 57 289 57 315.5 50 c 128,-1,24
 342 43 342 43 366 43 c 0,25,26
 425 43 425 43 457 72.5 c 128,-1,27
 489 102 489 102 489 161 c 0,28,29
 489 192 489 192 474.5 215.5 c 128,-1,30
 460 239 460 239 439 255.5 c 128,-1,31
 418 272 418 272 382 294 c 0,32,33
 330 326 330 326 303.5 353 c 128,-1,34
 277 380 277 380 277 423 c 0,35,36
 277 458 277 458 295 479 c 128,-1,37
 313 500 313 500 347 523 c 0,38,39
 376 543 376 543 390.5 558.5 c 128,-1,40
 405 574 405 574 405 597 c 0,41,42
 405 633 405 633 380 662.5 c 128,-1,43
 355 692 355 692 299 692 c 0,44,45
 234 692 234 692 201.5 656 c 128,-1,46
 169 620 169 620 169 539 c 2,47,-1
 169 0 l 1,48,-1
 107 0 l 1,49,-1
 107 534 l 2,50,51
 107 638 107 638 157.5 692 c 128,-1,52
 208 746 208 746 298 746 c 0,53,0
 371 746 371 746 417.5 707 c 128,-1,1
EndSplineSet
EndChar

StartChar: t
Encoding: 116 116 236
Width: 600
GlyphClass: 2
Flags: W
AnchorPoint: "Anchor-7" 241 652 basechar 0
AnchorPoint: "Anchor-6" 374 0 basechar 0
LayerCount: 2
Fore
SplineSet
447.5 -0.5 m 128,-1,1
 411 -10 411 -10 378 -10 c 0,2,3
 301 -10 301 -10 255.5 31.5 c 128,-1,4
 210 73 210 73 210 137 c 2,5,-1
 210 473 l 1,6,-1
 86 473 l 1,7,-1
 86 525 l 1,8,-1
 210 525 l 1,9,-1
 210 646 l 1,10,-1
 272 653 l 1,11,-1
 272 525 l 1,12,-1
 457 525 l 1,13,-1
 448 473 l 1,14,-1
 272 473 l 1,15,-1
 272 139 l 2,16,17
 272 92 272 92 297.5 68 c 128,-1,18
 323 44 323 44 380 44 c 0,19,20
 436 44 436 44 483 70 c 1,21,-1
 510 25 l 1,22,0
 484 9 484 9 447.5 -0.5 c 128,-1,1
EndSplineSet
EndChar

StartChar: tbar
Encoding: 359 359 237
Width: 600
GlyphClass: 2
Flags: W
AnchorPoint: "Anchor-7" 241 652 basechar 0
AnchorPoint: "Anchor-6" 374 0 basechar 0
LayerCount: 2
Fore
SplineSet
510 25 m 1,0,1
 484 9 484 9 447.5 -0.5 c 128,-1,2
 411 -10 411 -10 378 -10 c 0,3,4
 301 -10 301 -10 255.5 31.5 c 128,-1,5
 210 73 210 73 210 137 c 2,6,-1
 210 296 l 1,7,-1
 96 296 l 1,8,-1
 96 349 l 1,9,-1
 210 349 l 1,10,-1
 210 473 l 1,11,-1
 86 473 l 1,12,-1
 86 525 l 1,13,-1
 210 525 l 1,14,-1
 210 646 l 1,15,-1
 272 653 l 1,16,-1
 272 525 l 1,17,-1
 457 525 l 1,18,-1
 448 473 l 1,19,-1
 272 473 l 1,20,-1
 272 349 l 1,21,-1
 450 349 l 1,22,-1
 450 296 l 1,23,-1
 272 296 l 1,24,-1
 272 139 l 2,25,26
 272 92 272 92 297.5 68 c 128,-1,27
 323 44 323 44 380 44 c 0,28,29
 436 44 436 44 483 70 c 1,30,-1
 510 25 l 1,0,1
EndSplineSet
EndChar

StartChar: uni0163
Encoding: 355 355 239
Width: 600
GlyphClass: 2
Flags: W
AnchorPoint: "Anchor-7" 241 652 basechar 0
AnchorPoint: "Anchor-6" 374 0 basechar 0
LayerCount: 2
Fore
SplineSet
458.5 -86 m 128,-1,1
 481 -109 481 -109 481 -138 c 0,2,3
 481 -184 481 -184 447.5 -207.5 c 128,-1,4
 414 -231 414 -231 367 -231 c 0,5,6
 304 -231 304 -231 266 -209 c 1,7,-1
 290 -168 l 1,8,9
 319 -183 319 -183 358 -183 c 0,10,11
 420 -183 420 -183 420 -139 c 0,12,13
 420 -112 420 -112 399.5 -102.5 c 128,-1,14
 379 -93 379 -93 336 -93 c 1,15,-1
 341 -7 l 1,16,17
 280 3 280 3 245 42 c 128,-1,18
 210 81 210 81 210 137 c 2,19,-1
 210 473 l 1,20,-1
 86 473 l 1,21,-1
 86 525 l 1,22,-1
 210 525 l 1,23,-1
 210 646 l 1,24,-1
 272 653 l 1,25,-1
 272 525 l 1,26,-1
 457 525 l 1,27,-1
 448 473 l 1,28,-1
 272 473 l 1,29,-1
 272 139 l 2,30,31
 272 92 272 92 297.5 68 c 128,-1,32
 323 44 323 44 380 44 c 0,33,34
 436 44 436 44 483 70 c 1,35,-1
 510 25 l 1,36,37
 487 11 487 11 455 1.5 c 128,-1,38
 423 -8 423 -8 391 -10 c 1,39,-1
 391 -60 l 1,40,0
 436 -63 436 -63 458.5 -86 c 128,-1,1
EndSplineSet
Substitution2: "'locl' Localized Forms in Latin lookup 16 subtable" uni021B
Substitution2: "'locl' Localized Forms in Latin lookup 15 subtable" uni021B
Substitution2: "'aalt' Access All Alternates lookup 0 subtable" uni021B
EndChar

StartChar: u
Encoding: 117 117 241
Width: 600
GlyphClass: 2
Flags: W
AnchorPoint: "Anchor-7" 300 525 basechar 0
AnchorPoint: "Anchor-6" 0 0 basechar 0
LayerCount: 2
Fore
SplineSet
171 149 m 2,0,1
 171 93 171 93 194.5 67.5 c 128,-1,2
 218 42 218 42 270 42 c 0,3,4
 317 42 317 42 360.5 69 c 128,-1,5
 404 96 404 96 429 134 c 1,6,-1
 429 525 l 1,7,-1
 491 525 l 1,8,-1
 491 0 l 1,9,-1
 439 0 l 1,10,-1
 432 74 l 1,11,12
 400 34 400 34 354 12 c 128,-1,13
 308 -10 308 -10 261 -10 c 0,14,15
 186 -10 186 -10 147.5 29.5 c 128,-1,16
 109 69 109 69 109 142 c 2,17,-1
 109 525 l 1,18,-1
 171 525 l 1,19,-1
 171 149 l 2,0,1
EndSplineSet
EndChar

StartChar: uogonek
Encoding: 371 371 249
Width: 600
GlyphClass: 2
Flags: W
AnchorPoint: "Anchor-7" 300 525 basechar 0
AnchorPoint: "Anchor-6" 0 0 basechar 0
LayerCount: 2
Fore
SplineSet
390.5 -61 m 128,-1,1
 364 -88 364 -88 364 -116 c 0,2,3
 364 -139 364 -139 376.5 -151 c 128,-1,4
 389 -163 389 -163 419 -163 c 0,5,6
 451 -163 451 -163 483 -156 c 1,7,-1
 476 -216 l 1,8,9
 434 -222 434 -222 411 -222 c 0,10,11
 358 -222 358 -222 328 -196 c 128,-1,12
 298 -170 298 -170 298 -131 c 0,13,14
 298 -41 298 -41 438 12 c 1,15,-1
 432 74 l 1,16,17
 400 34 400 34 354 12 c 128,-1,18
 308 -10 308 -10 261 -10 c 0,19,20
 186 -10 186 -10 147.5 29.5 c 128,-1,21
 109 69 109 69 109 142 c 2,22,-1
 109 525 l 1,23,-1
 171 525 l 1,24,-1
 171 149 l 2,25,26
 171 93 171 93 194.5 67.5 c 128,-1,27
 218 42 218 42 270 42 c 0,28,29
 317 42 317 42 360.5 69 c 128,-1,30
 404 96 404 96 429 134 c 1,31,-1
 429 525 l 1,32,-1
 491 525 l 1,33,-1
 491 0 l 1,34,0
 417 -34 417 -34 390.5 -61 c 128,-1,1
EndSplineSet
EndChar

StartChar: v
Encoding: 118 118 252
Width: 600
GlyphClass: 2
Flags: W
AnchorPoint: "Anchor-7" 300 525 basechar 0
AnchorPoint: "Anchor-6" 300 0 basechar 0
LayerCount: 2
Fore
SplineSet
530 525 m 1,0,-1
 334 0 l 1,1,-1
 263 0 l 1,2,-1
 70 525 l 1,3,-1
 135 525 l 1,4,-1
 302 63 l 1,5,-1
 465 525 l 1,6,-1
 530 525 l 1,0,-1
EndSplineSet
EndChar

StartChar: w
Encoding: 119 119 253
Width: 600
GlyphClass: 2
Flags: W
AnchorPoint: "Anchor-7" 300 525 basechar 0
AnchorPoint: "Anchor-6" 300 0 basechar 0
LayerCount: 2
Fore
SplineSet
482 0 m 1,0,-1
 379 0 l 1,1,-1
 304 395 l 1,2,-1
 222 0 l 1,3,-1
 123 0 l 1,4,-1
 22 525 l 1,5,-1
 90 525 l 1,6,-1
 167 38 l 1,7,-1
 260 458 l 1,8,-1
 349 458 l 1,9,-1
 437 38 l 1,10,-1
 514 525 l 1,11,-1
 578 525 l 1,12,-1
 482 0 l 1,0,-1
EndSplineSet
Substitution2: "Single Substitution lookup 174 subtable" LIG
Substitution2: "Single Substitution lookup 173 subtable" w_w_w.liga
AlternateSubs2: "'aalt' Access All Alternates lookup 1 subtable" w_w_w.liga LIG
EndChar

StartChar: x
Encoding: 120 120 258
Width: 600
GlyphClass: 2
Flags: W
AnchorPoint: "Anchor-7" 300 525 basechar 0
AnchorPoint: "Anchor-6" 300 0 basechar 0
LayerCount: 2
Fore
SplineSet
139 0 m 1,0,-1
 66 0 l 1,1,-1
 264 278 l 1,2,-1
 91 525 l 1,3,-1
 168 525 l 1,4,-1
 301 322 l 1,5,-1
 437 525 l 1,6,-1
 512 525 l 1,7,-1
 337 281 l 1,8,-1
 534 0 l 1,9,-1
 454 0 l 1,10,-1
 298 234 l 1,11,-1
 139 0 l 1,0,-1
EndSplineSet
Substitution2: "Single Substitution lookup 240 subtable" x.multiply
Substitution2: "'aalt' Access All Alternates lookup 0 subtable" x.multiply
EndChar

StartChar: y
Encoding: 121 121 259
Width: 600
GlyphClass: 2
Flags: W
AnchorPoint: "Anchor-7" 300 525 basechar 0
AnchorPoint: "Anchor-6" 0 0 basechar 0
LayerCount: 2
Fore
SplineSet
341 -4 m 2,0,1
 310 -92 310 -92 262.5 -144.5 c 128,-1,2
 215 -197 215 -197 124 -209 c 1,3,-1
 114 -155 l 1,4,5
 167 -145 167 -145 198.5 -125 c 128,-1,6
 230 -105 230 -105 247.5 -76 c 128,-1,7
 265 -47 265 -47 280 0 c 1,8,-1
 260 0 l 1,9,-1
 72 525 l 1,10,-1
 138 525 l 1,11,-1
 304 53 l 1,12,-1
 464 525 l 1,13,-1
 528 525 l 1,14,-1
 341 -4 l 2,0,1
EndSplineSet
EndChar

StartChar: z
Encoding: 122 122 264
Width: 600
GlyphClass: 2
Flags: W
AnchorPoint: "Anchor-7" 311 525 basechar 0
AnchorPoint: "Anchor-6" 300 0 basechar 0
LayerCount: 2
Fore
SplineSet
189 58 m 1,0,-1
 490 58 l 1,1,-1
 481 0 l 1,2,-1
 111 0 l 1,3,-1
 111 50 l 1,4,-1
 412 466 l 1,5,-1
 135 466 l 1,6,-1
 135 525 l 1,7,-1
 488 525 l 1,8,-1
 488 474 l 1,9,-1
 189 58 l 1,0,-1
EndSplineSet
EndChar

StartChar: x.multiply
Encoding: 1114125 -1 273
Width: 600
Flags: W
LayerCount: 2
Fore
SplineSet
452 521 m 1,0,-1
 496 477 l 1,1,-1
 344 325 l 1,2,-1
 496 170 l 1,3,-1
 452 127 l 1,4,-1
 300 280 l 1,5,-1
 145 127 l 1,6,-1
 102 170 l 1,7,-1
 256 325 l 1,8,-1
 102 477 l 1,9,-1
 145 521 l 1,10,-1
 300 369 l 1,11,-1
 452 521 l 1,0,-1
EndSplineSet
EndChar

StartChar: w_w_w.liga
Encoding: 1114126 -1 274
Width: 600
Flags: W
LayerCount: 2
Fore
SplineSet
433 525 m 1,0,-1
 495 525 l 1,1,-1
 400 0 l 1,2,-1
 296 0 l 1,3,-1
 223 395 l 1,4,-1
 134 0 l 1,5,-1
 17 0 l 1,6,-1
 -44 395 l 1,7,-1
 -109 0 l 1,8,-1
 -230 0 l 1,9,-1
 -297 395 l 1,10,-1
 -371 0 l 1,11,-1
 -487 0 l 1,12,-1
 -557 395 l 1,13,-1
 -628 0 l 1,14,-1
 -749 0 l 1,15,-1
 -817 395 l 1,16,-1
 -896 0 l 1,17,-1
 -996 0 l 1,18,-1
 -1097 525 l 1,19,-1
 -1029 525 l 1,20,-1
 -952 38 l 1,21,-1
 -859 458 l 1,22,-1
 -770 458 l 1,23,-1
 -686 38 l 1,24,-1
 -601 458 l 1,25,-1
 -509 458 l 1,26,-1
 -426 38 l 1,27,-1
 -340 458 l 1,28,-1
 -248 458 l 1,29,-1
 -170 38 l 1,30,-1
 -87 458 l 1,31,-1
 5 458 l 1,32,-1
 76 38 l 1,33,-1
 181 458 l 1,34,-1
 270 458 l 1,35,-1
 356 38 l 1,36,-1
 433 525 l 1,0,-1
EndSplineSet
EndChar

StartChar: ordfeminine
Encoding: 170 170 275
Width: 600
Flags: W
LayerCount: 2
Fore
SplineSet
407.5 709.5 m 128,-1,1
 448 673 448 673 448 610 c 2,2,-1
 448 403 l 2,3,4
 448 381 448 381 456.5 369 c 128,-1,5
 465 357 465 357 483 352 c 1,6,-1
 468 307 l 1,7,8
 439 311 439 311 420.5 325 c 128,-1,9
 402 339 402 339 393 367 c 1,10,11
 369 339 369 339 333 323.5 c 128,-1,12
 297 308 297 308 259 308 c 0,13,14
 191 308 191 308 149.5 344 c 128,-1,15
 108 380 108 380 108 439 c 0,16,17
 108 504 108 504 165 538.5 c 128,-1,18
 222 573 222 573 325 573 c 2,19,-1
 385 573 l 1,20,-1
 385 608 l 2,21,22
 385 650 385 650 357.5 671 c 128,-1,23
 330 692 330 692 281 692 c 0,24,25
 226 692 226 692 158 667 c 1,26,-1
 138 716 l 1,27,28
 214 746 214 746 290 746 c 0,29,0
 367 746 367 746 407.5 709.5 c 128,-1,1
319 524 m 2,30,31
 175 524 175 524 175 442 c 0,32,33
 175 401 175 401 200.5 379.5 c 128,-1,34
 226 358 226 358 272 358 c 0,35,36
 304 358 304 358 334 373.5 c 128,-1,37
 364 389 364 389 385 416 c 1,38,-1
 385 524 l 1,39,-1
 319 524 l 2,30,31
494 66 m 1,40,-1
 494 0 l 1,41,-1
 107 0 l 1,42,-1
 107 66 l 1,43,-1
 494 66 l 1,40,-1
EndSplineSet
EndChar

StartChar: ordmasculine
Encoding: 186 186 276
Width: 600
Flags: W
LayerCount: 2
Fore
SplineSet
444.5 687.5 m 128,-1,1
 498 629 498 629 498 528 c 0,2,3
 498 464 498 464 473.5 414 c 128,-1,4
 449 364 449 364 404 336 c 128,-1,5
 359 308 359 308 300 308 c 256,6,7
 241 308 241 308 195.5 335 c 128,-1,8
 150 362 150 362 125.5 412 c 128,-1,9
 101 462 101 462 101 528 c 0,10,11
 101 592 101 592 126 641.5 c 128,-1,12
 151 691 151 691 196 718.5 c 128,-1,13
 241 746 241 746 300 746 c 0,14,0
 391 746 391 746 444.5 687.5 c 128,-1,1
204 650.5 m 128,-1,16
 169 609 169 609 169 528 c 0,17,18
 169 446 169 446 203.5 404 c 128,-1,19
 238 362 238 362 300 362 c 0,20,21
 361 362 361 362 395.5 404 c 128,-1,22
 430 446 430 446 430 528 c 0,23,24
 430 609 430 609 395.5 650.5 c 128,-1,25
 361 692 361 692 300 692 c 256,26,15
 239 692 239 692 204 650.5 c 128,-1,16
494 66 m 1,27,-1
 494 0 l 1,28,-1
 107 0 l 1,29,-1
 107 66 l 1,30,-1
 494 66 l 1,27,-1
EndSplineSet
EndChar

StartChar: uni207F
Encoding: 8319 8319 277
Width: 600
Flags: W
LayerCount: 2
Fore
SplineSet
404.5 696.5 m 128,-1,1
 429 670 429 670 429 620 c 2,2,-1
 429 378 l 1,3,-1
 370 378 l 1,4,-1
 370 579 l 2,5,6
 370 634 370 634 360 654 c 128,-1,7
 350 674 350 674 316 674 c 0,8,9
 293 674 293 674 269 658.5 c 128,-1,10
 245 643 245 643 231 623 c 1,11,-1
 231 378 l 1,12,-1
 173 378 l 1,13,-1
 173 717 l 1,14,-1
 225 717 l 1,15,-1
 227 675 l 1,16,17
 246 698 246 698 274 710.5 c 128,-1,18
 302 723 302 723 327 723 c 0,19,0
 380 723 380 723 404.5 696.5 c 128,-1,1
EndSplineSet
EndChar

StartChar: uni052C
Encoding: 1324 1324 278
Width: 600
GlyphClass: 2
Flags: W
AnchorPoint: "Anchor-3" 300 687 basechar 0
AnchorPoint: "Anchor-2" 300 -193 basechar 0
LayerCount: 2
Fore
SplineSet
555 58 m 1,0,-1
 555 -139 l 1,1,-1
 503 -139 l 1,2,-1
 491 0 l 1,3,-1
 117 0 l 1,4,-1
 105 -139 l 1,5,-1
 53 -139 l 1,6,-1
 53 58 l 1,7,-1
 87 58 l 1,8,-1
 87 59 l 1,9,10
 117 86 117 86 148 161 c 128,-1,11
 179 236 179 236 204 360 c 1,12,13
 139 377 139 377 106.5 426 c 128,-1,14
 74 475 74 475 73 565 c 2,15,-1
 73 687 l 1,16,-1
 151 687 l 1,17,-1
 151 569 l 2,18,19
 151 510 151 510 166 474.5 c 128,-1,20
 181 439 181 439 216 423 c 1,21,22
 221 447 221 447 226 485 c 2,23,-1
 255 687 l 1,24,-1
 523 687 l 1,25,-1
 523 58 l 1,26,-1
 555 58 l 1,0,-1
297 437 m 1,27,-1
 293 407 l 1,28,-1
 307 407 l 1,29,-1
 451 407 l 1,30,-1
 451 624 l 1,31,-1
 320 624 l 1,32,-1
 303 482 l 1,33,-1
 297 437 l 1,27,-1
451 58 m 1,34,-1
 451 350 l 1,35,-1
 301 349 l 1,36,-1
 283 349 l 1,37,38
 259 220 259 220 228.5 158.5 c 128,-1,39
 198 97 198 97 161 58 c 1,40,-1
 451 58 l 1,34,-1
EndSplineSet
EndChar

StartChar: uni052A
Encoding: 1322 1322 279
Width: 600
GlyphClass: 2
Flags: W
AnchorPoint: "Anchor-3" 300 687 basechar 0
AnchorPoint: "Anchor-2" 300 -193 basechar 0
LayerCount: 2
Fore
SplineSet
610 0 m 1,0,-1
 533 0 l 1,1,-1
 452 324 l 1,2,-1
 426 324 l 1,3,-1
 426 0 l 1,4,-1
 370 0 l 1,5,-1
 370 -139 l 1,6,-1
 310 -139 l 1,7,-1
 293 0 l 1,8,-1
 63 0 l 1,9,-1
 47 -139 l 1,10,-1
 -12 -139 l 1,11,-1
 -12 55 l 1,12,-1
 23 55 l 1,13,-1
 31 79 l 2,14,15
 53 142 53 142 67 212 c 128,-1,16
 81 282 81 282 91 423 c 2,17,-1
 108 687 l 1,18,-1
 304 687 l 1,19,-1
 304 393 l 1,20,-1
 358 393 l 1,21,-1
 358 687 l 1,22,-1
 426 687 l 1,23,-1
 426 393 l 1,24,-1
 454 393 l 1,25,-1
 522 687 l 1,26,-1
 587 687 l 1,27,-1
 509 357 l 1,28,-1
 610 0 l 1,0,-1
237 626 m 1,29,-1
 176 626 l 1,30,-1
 164 420 l 2,31,32
 155 264 155 264 137.5 185 c 128,-1,33
 120 106 120 106 89 55 c 1,34,-1
 237 55 l 1,35,-1
 237 626 l 1,29,-1
358 324 m 1,36,-1
 304 324 l 1,37,-1
 304 55 l 1,38,-1
 358 55 l 1,39,-1
 358 324 l 1,36,-1
EndSplineSet
EndChar

StartChar: uni052E
Encoding: 1326 1326 280
Width: 600
Flags: W
LayerCount: 2
Fore
SplineSet
540 58 m 1,0,-1
 540 -139 l 1,1,-1
 488 -139 l 1,2,-1
 476 0 l 1,3,-1
 411 0 l 1,4,-1
 411 628 l 1,5,-1
 219 628 l 1,6,-1
 190 396 l 2,7,8
 170 245 170 245 149.5 169 c 128,-1,9
 129 93 129 93 106 61 c 128,-1,10
 83 29 83 29 37 -8 c 1,11,-1
 6 43 l 1,12,13
 33 67 33 67 49 90.5 c 128,-1,14
 65 114 65 114 83.5 177 c 128,-1,15
 102 240 102 240 119 360 c 2,16,-1
 163 687 l 1,17,-1
 475 687 l 1,18,-1
 475 58 l 1,19,-1
 540 58 l 1,0,-1
EndSplineSet
EndChar

StartChar: uni0528
Encoding: 1320 1320 281
Width: 600
GlyphClass: 2
Flags: W
AnchorPoint: "Anchor-3" 300 687 basechar 0
AnchorPoint: "Anchor-2" 300 0 basechar 0
LayerCount: 2
Fore
SplineSet
507 687 m 1,0,-1
 507 0 l 1,1,-1
 444 0 l 1,2,-1
 444 337 l 1,3,-1
 156 337 l 1,4,-1
 156 -72 l 2,5,6
 156 -139 156 -139 121.5 -173.5 c 128,-1,7
 87 -208 87 -208 28 -208 c 0,8,9
 -6 -208 -6 -208 -33 -198 c 128,-1,10
 -60 -188 -60 -188 -78 -173 c 1,11,-1
 -53 -126 l 1,12,13
 -31 -140 -31 -140 -14.5 -146 c 128,-1,14
 2 -152 2 -152 27 -152 c 0,15,16
 59 -152 59 -152 75.5 -132.5 c 128,-1,17
 92 -113 92 -113 92 -75 c 2,18,-1
 92 0 l 1,19,-1
 93 0 l 1,20,-1
 93 687 l 1,21,-1
 156 687 l 1,22,-1
 156 389 l 1,23,-1
 444 389 l 1,24,-1
 444 687 l 1,25,-1
 507 687 l 1,0,-1
EndSplineSet
EndChar

StartChar: uni0411
Encoding: 1041 1041 283
Width: 600
GlyphClass: 2
Flags: W
AnchorPoint: "Anchor-3" 300 687 basechar 0
AnchorPoint: "Anchor-2" 300 0 basechar 0
LayerCount: 2
Fore
SplineSet
477 630 m 1,0,-1
 177 630 l 1,1,-1
 177 414 l 1,2,-1
 269 414 l 2,3,4
 534 414 534 414 534 211 c 0,5,6
 534 97 534 97 464 48.5 c 128,-1,7
 394 0 394 0 268 0 c 2,8,-1
 114 0 l 1,9,-1
 114 687 l 1,10,-1
 483 687 l 1,11,-1
 477 630 l 1,0,-1
177 360 m 1,12,-1
 177 55 l 1,13,-1
 288 55 l 2,14,15
 373 55 373 55 420 88 c 128,-1,16
 467 121 467 121 467 210 c 0,17,18
 467 289 467 289 419 324.5 c 128,-1,19
 371 360 371 360 289 360 c 2,20,-1
 177 360 l 1,12,-1
EndSplineSet
EndChar

StartChar: uni0413
Encoding: 1043 1043 285
Width: 600
GlyphClass: 2
Flags: W
AnchorPoint: "Anchor-3" 354 687 basechar 0
AnchorPoint: "Anchor-2" 182 0 basechar 0
LayerCount: 2
Fore
SplineSet
540 687 m 1,0,-1
 533 626 l 1,1,-1
 213 626 l 1,2,-1
 213 0 l 1,3,-1
 150 0 l 1,4,-1
 150 687 l 1,5,-1
 540 687 l 1,0,-1
EndSplineSet
EndChar

StartChar: uni0490
Encoding: 1168 1168 287
Width: 600
GlyphClass: 2
Flags: W
AnchorPoint: "Anchor-3" 354 687 basechar 0
AnchorPoint: "Anchor-2" 182 0 basechar 0
LayerCount: 2
Fore
SplineSet
475 831 m 1,0,-1
 540 831 l 1,1,-1
 540 687 l 1,2,-1
 533 626 l 1,3,-1
 213 626 l 1,4,-1
 213 0 l 1,5,-1
 150 0 l 1,6,-1
 150 687 l 1,7,-1
 475 687 l 1,8,-1
 475 831 l 1,0,-1
EndSplineSet
EndChar

StartChar: uni0414
Encoding: 1044 1044 288
Width: 600
GlyphClass: 2
Flags: W
AnchorPoint: "Anchor-3" 300 687 basechar 0
AnchorPoint: "Anchor-2" 300 -193 basechar 0
LayerCount: 2
Fore
SplineSet
561 58 m 1,0,-1
 561 -139 l 1,1,-1
 509 -139 l 1,2,-1
 497 0 l 1,3,-1
 67 0 l 1,4,-1
 55 -139 l 1,5,-1
 3 -139 l 1,6,-1
 3 58 l 1,7,-1
 46 58 l 1,8,9
 71 82 71 82 84.5 114.5 c 128,-1,10
 98 147 98 147 107.5 200 c 128,-1,11
 117 253 117 253 133 376 c 2,12,-1
 150 495 l 1,13,-1
 177 687 l 1,14,-1
 511 687 l 1,15,-1
 511 58 l 1,16,-1
 561 58 l 1,0,-1
441 626 m 1,17,-1
 235 626 l 1,18,-1
 218 483 l 1,19,-1
 211 429 l 2,20,21
 193 285 193 285 183.5 222.5 c 128,-1,22
 174 160 174 160 159 122 c 128,-1,23
 144 84 144 84 117 58 c 1,24,-1
 441 58 l 1,25,-1
 441 626 l 1,17,-1
EndSplineSet
EndChar

StartChar: uni0415
Encoding: 1045 1045 289
Width: 600
GlyphClass: 2
Flags: W
AnchorPoint: "Anchor-3" 321 687 basechar 0
AnchorPoint: "Anchor-2" 327 0 basechar 0
LayerCount: 2
Fore
SplineSet
199 630 m 1,0,-1
 199 378 l 1,1,-1
 459 378 l 1,2,-1
 459 320 l 1,3,-1
 199 320 l 1,4,-1
 199 56 l 1,5,-1
 520 56 l 1,6,-1
 520 0 l 1,7,-1
 135 0 l 1,8,-1
 135 687 l 1,9,-1
 508 687 l 1,10,-1
 500 630 l 1,11,-1
 199 630 l 1,0,-1
EndSplineSet
EndChar

StartChar: uni0416
Encoding: 1046 1046 292
Width: 600
GlyphClass: 2
Flags: W
AnchorPoint: "Anchor-3" 300 687 basechar 0
AnchorPoint: "Anchor-2" 300 0 basechar 0
LayerCount: 2
Fore
SplineSet
264 329 m 1,0,-1
 194 329 l 1,1,-1
 82 0 l 1,2,-1
 15 0 l 1,3,-1
 142 360 l 1,4,-1
 31 687 l 1,5,-1
 99 687 l 1,6,-1
 194 396 l 1,7,-1
 264 396 l 1,8,-1
 264 687 l 1,9,-1
 336 687 l 1,10,-1
 336 396 l 1,11,-1
 406 396 l 1,12,-1
 502 687 l 1,13,-1
 569 687 l 1,14,-1
 458 360 l 1,15,-1
 585 0 l 1,16,-1
 516 0 l 1,17,-1
 406 329 l 1,18,-1
 336 329 l 1,19,-1
 336 0 l 1,20,-1
 264 0 l 1,21,-1
 264 329 l 1,0,-1
EndSplineSet
EndChar

StartChar: uni0417
Encoding: 1047 1047 293
Width: 600
GlyphClass: 2
Flags: W
AnchorPoint: "Anchor-3" 301 687 basechar 0
AnchorPoint: "Anchor-2" 296 0 basechar 0
LayerCount: 2
Fore
SplineSet
402 674.5 m 128,-1,1
 454 652 454 652 482 611.5 c 128,-1,2
 510 571 510 571 510 519 c 0,3,4
 510 459 510 459 469.5 421 c 128,-1,5
 429 383 429 383 372 376 c 1,6,7
 413 373 413 373 450.5 352.5 c 128,-1,8
 488 332 488 332 511 295 c 128,-1,9
 534 258 534 258 534 207 c 0,10,11
 534 146 534 146 502.5 96.5 c 128,-1,12
 471 47 471 47 413.5 18.5 c 128,-1,13
 356 -10 356 -10 280 -10 c 0,14,15
 211 -10 211 -10 149.5 15.5 c 128,-1,16
 88 41 88 41 43 88 c 1,17,-1
 88 125 l 1,18,19
 175 49 175 49 281 49 c 0,20,21
 367 49 367 49 414.5 89.5 c 128,-1,22
 462 130 462 130 462 201 c 256,23,24
 462 272 462 272 415 306 c 128,-1,25
 368 340 368 340 292 340 c 2,26,-1
 169 340 l 1,27,-1
 176 400 l 1,28,-1
 284 400 l 2,29,30
 350 400 350 400 396 430.5 c 128,-1,31
 442 461 442 461 442 522 c 0,32,33
 442 579 442 579 397.5 609.5 c 128,-1,34
 353 640 353 640 283 640 c 0,35,36
 227 640 227 640 183.5 622.5 c 128,-1,37
 140 605 140 605 95 570 c 1,38,-1
 56 612 l 1,39,40
 108 655 108 655 162.5 676 c 128,-1,41
 217 697 217 697 280 697 c 0,42,0
 350 697 350 697 402 674.5 c 128,-1,1
EndSplineSet
EndChar

StartChar: uni0418
Encoding: 1048 1048 294
Width: 600
GlyphClass: 2
Flags: W
AnchorPoint: "Anchor-3" 300 687 basechar 0
AnchorPoint: "Anchor-2" 300 0 basechar 0
LayerCount: 2
Fore
SplineSet
93 687 m 1,0,-1
 160 687 l 1,1,-1
 160 305 l 2,2,3
 160 220 160 220 157.5 167 c 128,-1,4
 155 114 155 114 149 57 c 1,5,-1
 416 687 l 1,6,-1
 507 687 l 1,7,-1
 507 0 l 1,8,-1
 440 0 l 1,9,-1
 440 384 l 2,10,11
 440 502 440 502 451 623 c 1,12,-1
 185 0 l 1,13,-1
 93 0 l 1,14,-1
 93 687 l 1,0,-1
EndSplineSet
EndChar

StartChar: uni048A
Encoding: 1162 1162 297
Width: 600
GlyphClass: 2
Flags: W
AnchorPoint: "Anchor-3" 300 687 basechar 0
AnchorPoint: "Anchor-2" 300 0 basechar 0
LayerCount: 2
Fore
SplineSet
203.5 807.5 m 128,-1,1
 164 832 164 832 158 883 c 1,2,-1
 207 895 l 1,3,4
 219 862 219 862 240 848.5 c 128,-1,5
 261 835 261 835 298 835 c 256,6,7
 335 835 335 835 358 848.5 c 128,-1,8
 381 862 381 862 393 895 c 1,9,-1
 442 883 l 1,10,11
 436 832 436 832 395 807.5 c 128,-1,12
 354 783 354 783 298 783 c 0,13,0
 243 783 243 783 203.5 807.5 c 128,-1,1
597 44 m 1,14,-1
 525 -139 l 1,15,-1
 478 -139 l 1,16,-1
 511 0 l 1,17,-1
 440 0 l 1,18,-1
 440 384 l 2,19,20
 440 502 440 502 451 623 c 1,21,-1
 185 0 l 1,22,-1
 93 0 l 1,23,-1
 93 687 l 1,24,-1
 160 687 l 1,25,-1
 160 305 l 2,26,27
 160 220 160 220 157.5 167 c 128,-1,28
 155 114 155 114 149 57 c 1,29,-1
 416 687 l 1,30,-1
 507 687 l 1,31,-1
 507 44 l 1,32,-1
 597 44 l 1,14,-1
EndSplineSet
EndChar

StartChar: uni041A
Encoding: 1050 1050 298
Width: 600
GlyphClass: 2
Flags: W
AnchorPoint: "Anchor-3" 318 687 basechar 0
AnchorPoint: "Anchor-2" 300 0 basechar 0
LayerCount: 2
Fore
SplineSet
256 333 m 1,0,-1
 171 333 l 1,1,-1
 171 0 l 1,2,-1
 107 0 l 1,3,-1
 107 687 l 1,4,-1
 171 687 l 1,5,-1
 171 392 l 1,6,-1
 258 392 l 1,7,-1
 487 687 l 1,8,-1
 561 687 l 1,9,-1
 313 360 l 1,10,-1
 580 0 l 1,11,-1
 497 0 l 1,12,-1
 256 333 l 1,0,-1
EndSplineSet
EndChar

StartChar: uni041B
Encoding: 1051 1051 300
Width: 600
GlyphClass: 2
Flags: W
AnchorPoint: "Anchor-3" 300 687 basechar 0
AnchorPoint: "Anchor-2" 300 0 basechar 0
LayerCount: 2
Fore
SplineSet
507 0 m 1,0,-1
 444 0 l 1,1,-1
 444 628 l 1,2,-1
 236 628 l 1,3,-1
 207 396 l 2,4,5
 187 245 187 245 166.5 169 c 128,-1,6
 146 93 146 93 122.5 60.5 c 128,-1,7
 99 28 99 28 53 -8 c 1,8,-1
 23 43 l 1,9,10
 50 67 50 67 66 90.5 c 128,-1,11
 82 114 82 114 100 177 c 128,-1,12
 118 240 118 240 136 360 c 2,13,-1
 180 687 l 1,14,-1
 507 687 l 1,15,-1
 507 0 l 1,0,-1
EndSplineSet
EndChar

StartChar: uni041E
Encoding: 1054 1054 303
Width: 600
GlyphClass: 2
Flags: W
AnchorPoint: "Anchor-3" 300 687 basechar 0
AnchorPoint: "Anchor-2" 300 0 basechar 0
LayerCount: 2
Fore
SplineSet
482.5 86.5 m 128,-1,1
 419 -10 419 -10 300 -10 c 256,2,3
 181 -10 181 -10 117.5 85 c 128,-1,4
 54 180 54 180 54 341 c 0,5,6
 54 446 54 446 82 526 c 128,-1,7
 110 606 110 606 165.5 651.5 c 128,-1,8
 221 697 221 697 300 697 c 0,9,10
 419 697 419 697 482.5 601 c 128,-1,11
 546 505 546 505 546 343 c 0,12,0
 546 183 546 183 482.5 86.5 c 128,-1,1
436 563 m 128,-1,14
 393 638 393 638 300 638 c 256,15,16
 207 638 207 638 164 562 c 128,-1,17
 121 486 121 486 121 341 c 0,18,19
 121 49 121 49 300 49 c 0,20,21
 393 49 393 49 436 123.5 c 128,-1,22
 479 198 479 198 479 343 c 256,23,13
 479 488 479 488 436 563 c 128,-1,14
EndSplineSet
EndChar

StartChar: uni041F
Encoding: 1055 1055 304
Width: 600
GlyphClass: 2
Flags: W
AnchorPoint: "Anchor-3" 300 687 basechar 0
AnchorPoint: "Anchor-2" 300 0 basechar 0
LayerCount: 2
Fore
SplineSet
444 0 m 1,0,-1
 444 627 l 1,1,-1
 156 627 l 1,2,-1
 156 0 l 1,3,-1
 93 0 l 1,4,-1
 93 687 l 1,5,-1
 507 687 l 1,6,-1
 507 0 l 1,7,-1
 444 0 l 1,0,-1
EndSplineSet
EndChar

StartChar: uni0423
Encoding: 1059 1059 308
Width: 600
GlyphClass: 2
Flags: W
AnchorPoint: "Anchor-3" 310 687 basechar 0
AnchorPoint: "Anchor-2" 300 0 basechar 0
LayerCount: 2
Fore
SplineSet
351 164 m 2,0,1
 328 112 328 112 301.5 78 c 128,-1,2
 275 44 275 44 233 22 c 128,-1,3
 191 0 191 0 126 -10 c 1,4,-1
 116 47 l 1,5,6
 178 57 178 57 213 74.5 c 128,-1,7
 248 92 248 92 266.5 119 c 128,-1,8
 285 146 285 146 299 192 c 1,9,-1
 267 192 l 1,10,-1
 36 687 l 1,11,-1
 103 687 l 1,12,-1
 314 236 l 1,13,-1
 508 687 l 1,14,-1
 572 687 l 1,15,-1
 351 164 l 2,0,1
EndSplineSet
EndChar

StartChar: uni0424
Encoding: 1060 1060 310
Width: 600
GlyphClass: 2
Flags: W
AnchorPoint: "Anchor-3" 300 687 basechar 0
AnchorPoint: "Anchor-2" 300 0 basechar 0
LayerCount: 2
Fore
SplineSet
338 660 m 1,0,1
 463 651 463 651 523.5 573 c 128,-1,2
 584 495 584 495 584 346 c 0,3,4
 584 193 584 193 520.5 113.5 c 128,-1,5
 457 34 457 34 338 29 c 1,6,-1
 338 -26 l 1,7,-1
 262 -26 l 1,8,-1
 262 29 l 1,9,10
 142 34 142 34 79 113 c 128,-1,11
 16 192 16 192 16 346 c 0,12,13
 16 495 16 495 76.5 573 c 128,-1,14
 137 651 137 651 262 660 c 1,15,-1
 262 714 l 1,16,-1
 338 714 l 1,17,-1
 338 660 l 1,0,1
127 542 m 128,-1,19
 84 483 84 483 84 346 c 0,20,21
 84 215 84 215 126 154 c 128,-1,22
 168 93 168 93 260 86 c 1,23,-1
 260 603 l 1,24,18
 170 601 170 601 127 542 c 128,-1,19
340 86 m 1,25,26
 432 93 432 93 474 154 c 128,-1,27
 516 215 516 215 516 346 c 0,28,29
 516 483 516 483 473 542 c 128,-1,30
 430 601 430 601 340 603 c 1,31,-1
 340 86 l 1,25,26
EndSplineSet
EndChar

StartChar: uni0427
Encoding: 1063 1063 312
Width: 600
GlyphClass: 2
Flags: W
AnchorPoint: "Anchor-3" 290 687 basechar 0
AnchorPoint: "Anchor-2" 300 0 basechar 0
LayerCount: 2
Fore
SplineSet
507 687 m 1,0,-1
 507 0 l 1,1,-1
 444 0 l 1,2,-1
 444 293 l 1,3,4
 392 256 392 256 351 241 c 128,-1,5
 310 226 310 226 254 226 c 0,6,7
 197 226 197 226 152.5 250.5 c 128,-1,8
 108 275 108 275 83.5 319 c 128,-1,9
 59 363 59 363 59 420 c 2,10,-1
 59 687 l 1,11,-1
 122 687 l 1,12,-1
 122 427 l 2,13,14
 122 358 122 358 160.5 323 c 128,-1,15
 199 288 199 288 269 288 c 0,16,17
 374 288 374 288 444 356 c 1,18,-1
 444 687 l 1,19,-1
 507 687 l 1,0,-1
EndSplineSet
EndChar

StartChar: uni0426
Encoding: 1062 1062 313
Width: 600
GlyphClass: 2
Flags: W
AnchorPoint: "Anchor-3" 0 0 basechar 0
AnchorPoint: "Anchor-2" 300 0 basechar 0
LayerCount: 2
Fore
SplineSet
507 58 m 1,0,-1
 572 58 l 1,1,-1
 572 -139 l 1,2,-1
 520 -139 l 1,3,-1
 508 0 l 1,4,-1
 93 0 l 1,5,-1
 93 687 l 1,6,-1
 156 687 l 1,7,-1
 156 56 l 1,8,-1
 444 56 l 1,9,-1
 444 687 l 1,10,-1
 507 687 l 1,11,-1
 507 58 l 1,0,-1
EndSplineSet
EndChar

StartChar: uni0428
Encoding: 1064 1064 314
Width: 600
GlyphClass: 2
Flags: W
AnchorPoint: "Anchor-3" 300 687 basechar 0
AnchorPoint: "Anchor-2" 300 0 basechar 0
LayerCount: 2
Fore
SplineSet
551 687 m 1,0,-1
 551 0 l 1,1,-1
 49 0 l 1,2,-1
 49 687 l 1,3,-1
 117 687 l 1,4,-1
 117 61 l 1,5,-1
 267 61 l 1,6,-1
 267 687 l 1,7,-1
 334 687 l 1,8,-1
 334 61 l 1,9,-1
 483 61 l 1,10,-1
 483 687 l 1,11,-1
 551 687 l 1,0,-1
EndSplineSet
EndChar

StartChar: uni0429
Encoding: 1065 1065 315
Width: 600
GlyphClass: 2
Flags: W
AnchorPoint: "Anchor-3" 300 687 basechar 0
AnchorPoint: "Anchor-2" 300 0 basechar 0
LayerCount: 2
Fore
SplineSet
551 58 m 1,0,-1
 616 58 l 1,1,-1
 616 -139 l 1,2,-1
 564 -139 l 1,3,-1
 552 0 l 1,4,-1
 49 0 l 1,5,-1
 49 687 l 1,6,-1
 117 687 l 1,7,-1
 117 61 l 1,8,-1
 267 61 l 1,9,-1
 267 687 l 1,10,-1
 334 687 l 1,11,-1
 334 61 l 1,12,-1
 483 61 l 1,13,-1
 483 687 l 1,14,-1
 551 687 l 1,15,-1
 551 58 l 1,0,-1
EndSplineSet
EndChar

StartChar: uni040F
Encoding: 1039 1039 316
Width: 600
GlyphClass: 2
Flags: W
AnchorPoint: "Anchor-3" 0 0 basechar 0
AnchorPoint: "Anchor-2" 300 0 basechar 0
LayerCount: 2
Fore
SplineSet
507 687 m 1,0,-1
 507 0 l 1,1,-1
 332 0 l 1,2,-1
 332 -139 l 1,3,-1
 280 -139 l 1,4,-1
 268 0 l 1,5,-1
 93 0 l 1,6,-1
 93 687 l 1,7,-1
 156 687 l 1,8,-1
 156 56 l 1,9,-1
 245 56 l 1,10,-1
 245 58 l 1,11,-1
 332 58 l 1,12,-1
 332 56 l 1,13,-1
 444 56 l 1,14,-1
 444 687 l 1,15,-1
 507 687 l 1,0,-1
EndSplineSet
EndChar

StartChar: uni042C
Encoding: 1068 1068 317
Width: 600
GlyphClass: 2
Flags: W
AnchorPoint: "Anchor-3" 300 687 basechar 0
AnchorPoint: "Anchor-2" 300 0 basechar 0
LayerCount: 2
Fore
SplineSet
170 425 m 1,0,-1
 284 425 l 2,1,2
 544 425 544 425 544 217 c 0,3,4
 544 103 544 103 474 51.5 c 128,-1,5
 404 0 404 0 282 0 c 2,6,-1
 106 0 l 1,7,-1
 106 687 l 1,8,-1
 170 687 l 1,9,-1
 170 425 l 1,0,-1
170 371 m 1,10,-1
 170 56 l 1,11,-1
 299 56 l 2,12,13
 382 56 382 56 428 90 c 128,-1,14
 474 124 474 124 474 216 c 0,15,16
 474 298 474 298 426.5 334.5 c 128,-1,17
 379 371 379 371 301 371 c 2,18,-1
 170 371 l 1,10,-1
EndSplineSet
EndChar

StartChar: uni042A
Encoding: 1066 1066 318
Width: 600
Flags: W
LayerCount: 2
Fore
SplineSet
198 425 m 1,0,-1
 320 425 l 2,1,2
 580 425 580 425 580 217 c 0,3,4
 580 103 580 103 510.5 51.5 c 128,-1,5
 441 0 441 0 318 0 c 2,6,-1
 130 0 l 1,7,-1
 130 624 l 1,8,-1
 1 624 l 1,9,-1
 1 687 l 1,10,-1
 198 687 l 1,11,-1
 198 425 l 1,0,-1
198 370 m 1,12,-1
 198 57 l 1,13,-1
 346 57 l 2,14,15
 424 57 424 57 468 91.5 c 128,-1,16
 512 126 512 126 512 216 c 0,17,18
 512 298 512 298 465 334 c 128,-1,19
 418 370 418 370 340 370 c 2,20,-1
 198 370 l 1,12,-1
EndSplineSet
EndChar

StartChar: uni042B
Encoding: 1067 1067 319
Width: 600
GlyphClass: 2
Flags: W
AnchorPoint: "Anchor-3" 300 687 basechar 0
AnchorPoint: "Anchor-2" 300 0 basechar 0
LayerCount: 2
Fore
SplineSet
108 424 m 1,0,-1
 187 424 l 2,1,2
 312 424 312 424 373 371 c 128,-1,3
 434 318 434 318 434 217 c 0,4,5
 434 109 434 109 371.5 54.5 c 128,-1,6
 309 0 309 0 189 0 c 2,7,-1
 34 0 l 1,8,-1
 34 687 l 1,9,-1
 108 687 l 1,10,-1
 108 424 l 1,0,-1
566 687 m 1,11,-1
 566 0 l 1,12,-1
 492 0 l 1,13,-1
 492 687 l 1,14,-1
 566 687 l 1,11,-1
108 371 m 1,15,-1
 108 56 l 1,16,-1
 200 56 l 2,17,18
 277 56 277 56 316.5 94.5 c 128,-1,19
 356 133 356 133 356 216 c 0,20,21
 356 293 356 293 315.5 332 c 128,-1,22
 275 371 275 371 195 371 c 2,23,-1
 108 371 l 1,15,-1
EndSplineSet
EndChar

StartChar: uni0409
Encoding: 1033 1033 320
Width: 600
GlyphClass: 2
Flags: W
AnchorPoint: "Anchor-3" 300 687 basechar 0
AnchorPoint: "Anchor-2" 300 0 basechar 0
LayerCount: 2
Fore
SplineSet
352 425 m 1,0,1
 479 425 479 425 539.5 375 c 128,-1,2
 600 325 600 325 600 217 c 0,3,4
 600 103 600 103 538.5 51.5 c 128,-1,5
 477 0 477 0 362 0 c 2,6,-1
 278 0 l 1,7,-1
 278 625 l 1,8,-1
 173 625 l 1,9,-1
 147 313 l 2,10,11
 137 192 137 192 124 131 c 128,-1,12
 111 70 111 70 94.5 43.5 c 128,-1,13
 78 17 78 17 47 -8 c 1,14,-1
 7 38 l 1,15,16
 25 60 25 60 37 85 c 128,-1,17
 49 110 49 110 59 163 c 128,-1,18
 69 216 69 216 77 310 c 2,19,-1
 110 687 l 1,20,-1
 352 687 l 1,21,-1
 352 425 l 1,0,1
352 369 m 1,22,-1
 352 59 l 1,23,-1
 367 59 l 2,24,25
 421 59 421 59 454 71 c 128,-1,26
 487 83 487 83 505 117.5 c 128,-1,27
 523 152 523 152 523 216 c 0,28,29
 523 300 523 300 485 334.5 c 128,-1,30
 447 369 447 369 370 369 c 2,31,-1
 352 369 l 1,22,-1
EndSplineSet
EndChar

StartChar: uni040A
Encoding: 1034 1034 321
Width: 600
GlyphClass: 2
Flags: W
AnchorPoint: "Anchor-3" 300 687 basechar 0
AnchorPoint: "Anchor-2" 300 0 basechar 0
LayerCount: 2
Fore
SplineSet
350 408 m 1,0,1
 479 409 479 409 539.5 360.5 c 128,-1,2
 600 312 600 312 600 208 c 0,3,4
 600 96 600 96 538.5 48 c 128,-1,5
 477 0 477 0 364 0 c 2,6,-1
 277 0 l 1,7,-1
 277 357 l 1,8,-1
 118 357 l 1,9,-1
 118 0 l 1,10,-1
 45 0 l 1,11,-1
 45 687 l 1,12,-1
 118 687 l 1,13,-1
 118 408 l 1,14,-1
 277 408 l 1,15,-1
 277 687 l 1,16,-1
 350 687 l 1,17,-1
 350 408 l 1,0,1
350 356 m 1,18,-1
 350 55 l 1,19,-1
 369 55 l 2,20,21
 421 54 421 54 453.5 65.5 c 128,-1,22
 486 77 486 77 504 110 c 128,-1,23
 522 143 522 143 522 207 c 0,24,25
 522 289 522 289 484.5 322.5 c 128,-1,26
 447 356 447 356 369 356 c 2,27,-1
 350 356 l 1,18,-1
EndSplineSet
EndChar

StartChar: uni0404
Encoding: 1028 1028 323
Width: 600
GlyphClass: 2
Flags: W
AnchorPoint: "Anchor-3" 300 687 basechar 0
AnchorPoint: "Anchor-2" 300 0 basechar 0
LayerCount: 2
Fore
SplineSet
457.5 681 m 128,-1,1
 503 665 503 665 544 633 c 1,2,-1
 509 590 l 1,3,4
 440 640 440 640 355 640 c 0,5,6
 265 640 265 640 205 578.5 c 128,-1,7
 145 517 145 517 134 382 c 1,8,-1
 453 382 l 1,9,-1
 453 326 l 1,10,-1
 131 326 l 1,11,12
 137 184 137 184 198 115.5 c 128,-1,13
 259 47 259 47 355 47 c 0,14,15
 454 47 454 47 516 109 c 1,16,-1
 554 61 l 1,17,18
 520 30 520 30 470 10 c 128,-1,19
 420 -10 420 -10 354 -10 c 0,20,21
 270 -10 270 -10 204.5 31 c 128,-1,22
 139 72 139 72 102 152 c 128,-1,23
 65 232 65 232 65 344 c 256,24,25
 65 456 65 456 104 535.5 c 128,-1,26
 143 615 143 615 208 656 c 128,-1,27
 273 697 273 697 351 697 c 0,28,0
 412 697 412 697 457.5 681 c 128,-1,1
EndSplineSet
EndChar

StartChar: uni042D
Encoding: 1069 1069 324
Width: 600
GlyphClass: 2
Flags: W
AnchorPoint: "Anchor-3" 292 689 basechar 0
AnchorPoint: "Anchor-2" 300 0 basechar 0
LayerCount: 2
Fore
SplineSet
463 610.5 m 128,-1,1
 532 524 532 524 532 354 c 0,2,3
 532 178 532 178 462 84 c 128,-1,4
 392 -10 392 -10 267 -10 c 0,5,6
 201 -10 201 -10 145 14 c 128,-1,7
 89 38 89 38 50 78 c 1,8,-1
 96 116 l 1,9,10
 133 81 133 81 172.5 64 c 128,-1,11
 212 47 212 47 260 47 c 0,12,13
 357 47 357 47 407.5 115 c 128,-1,14
 458 183 458 183 465 323 c 1,15,-1
 149 323 l 1,16,-1
 149 384 l 1,17,-1
 465 384 l 1,18,19
 458 519 458 519 409 579.5 c 128,-1,20
 360 640 360 640 271 640 c 0,21,22
 216 640 216 640 177 622 c 128,-1,23
 138 604 138 604 98 572 c 1,24,-1
 58 612 l 1,25,26
 155 697 155 697 272 697 c 0,27,0
 394 697 394 697 463 610.5 c 128,-1,1
EndSplineSet
EndChar

StartChar: uni040B
Encoding: 1035 1035 328
Width: 600
Flags: W
LayerCount: 2
Fore
SplineSet
398 628 m 1,0,-1
 232 628 l 1,1,-1
 232 379 l 1,2,3
 295 444 295 444 384 444 c 0,4,5
 562 444 562 444 562 245 c 2,6,-1
 562 0 l 1,7,-1
 495 0 l 1,8,-1
 495 232 l 2,9,10
 495 312 495 312 466.5 346.5 c 128,-1,11
 438 381 438 381 372 381 c 0,12,13
 325 381 325 381 292 364 c 128,-1,14
 259 347 259 347 232 321 c 1,15,-1
 232 0 l 1,16,-1
 165 0 l 1,17,-1
 165 628 l 1,18,-1
 -4 628 l 1,19,-1
 -4 687 l 1,20,-1
 405 687 l 1,21,-1
 398 628 l 1,0,-1
EndSplineSet
EndChar

StartChar: uni042E
Encoding: 1070 1070 329
Width: 600
GlyphClass: 2
Flags: W
AnchorPoint: "Anchor-3" 300 687 basechar 0
AnchorPoint: "Anchor-2" 300 0 basechar 0
LayerCount: 2
Fore
SplineSet
533 610 m 128,-1,1
 576 523 576 523 576 343 c 0,2,3
 576 169 576 169 530.5 79.5 c 128,-1,4
 485 -10 485 -10 387 -10 c 0,5,6
 284 -10 284 -10 241 78 c 128,-1,7
 198 166 198 166 196 327 c 1,8,-1
 122 327 l 1,9,-1
 122 0 l 1,10,-1
 51 0 l 1,11,-1
 51 687 l 1,12,-1
 122 687 l 1,13,-1
 122 387 l 1,14,-1
 197 387 l 1,15,16
 203 543 203 543 247.5 620 c 128,-1,17
 292 697 292 697 387 697 c 0,18,0
 490 697 490 697 533 610 c 128,-1,1
320 608.5 m 128,-1,20
 295 580 295 580 283.5 516 c 128,-1,21
 272 452 272 452 272 344 c 0,22,23
 272 235 272 235 283.5 171 c 128,-1,24
 295 107 295 107 320 78.5 c 128,-1,25
 345 50 345 50 387 50 c 0,26,27
 446 50 446 50 473.5 117 c 128,-1,28
 501 184 501 184 501 343 c 0,29,30
 501 501 501 501 473 569 c 128,-1,31
 445 637 445 637 387 637 c 0,32,19
 345 637 345 637 320 608.5 c 128,-1,20
EndSplineSet
EndChar

StartChar: uni042F
Encoding: 1071 1071 330
Width: 600
GlyphClass: 2
Flags: W
AnchorPoint: "Anchor-3" 300 687 basechar 0
AnchorPoint: "Anchor-2" 300 0 basechar 0
LayerCount: 2
Fore
SplineSet
507 0 m 1,0,-1
 444 0 l 1,1,-1
 444 285 l 1,2,-1
 270 285 l 1,3,-1
 117 0 l 1,4,-1
 43 0 l 1,5,-1
 207 301 l 1,6,7
 148 328 148 328 117 377 c 128,-1,8
 86 426 86 426 86 487 c 0,9,10
 86 581 86 581 152 634 c 128,-1,11
 218 687 218 687 340 687 c 2,12,-1
 507 687 l 1,13,-1
 507 0 l 1,0,-1
325 632 m 2,14,15
 239 632 239 632 198 597.5 c 128,-1,16
 157 563 157 563 157 489 c 0,17,18
 157 343 157 343 301 343 c 2,19,-1
 444 343 l 1,20,-1
 444 632 l 1,21,-1
 325 632 l 2,14,15
EndSplineSet
EndChar

StartChar: uni0402
Encoding: 1026 1026 331
Width: 600
GlyphClass: 2
Flags: W
AnchorPoint: "Anchor-3" 300 687 basechar 0
AnchorPoint: "Anchor-2" 300 -193 basechar 0
LayerCount: 2
Fore
SplineSet
232 379 m 1,0,1
 301 444 301 444 384 444 c 0,2,3
 562 444 562 444 562 245 c 2,4,-1
 562 95 l 2,5,6
 562 0 562 0 523 -48 c 128,-1,7
 484 -96 484 -96 399 -125 c 1,8,-1
 384 -68 l 1,9,10
 429 -50 429 -50 452.5 -30.5 c 128,-1,11
 476 -11 476 -11 485.5 17.5 c 128,-1,12
 495 46 495 46 495 93 c 2,13,-1
 495 232 l 2,14,15
 495 312 495 312 466.5 346.5 c 128,-1,16
 438 381 438 381 372 381 c 0,17,18
 325 381 325 381 292 364 c 128,-1,19
 259 347 259 347 232 321 c 1,20,-1
 232 0 l 1,21,-1
 165 0 l 1,22,-1
 165 628 l 1,23,-1
 -4 628 l 1,24,-1
 -4 687 l 1,25,-1
 405 687 l 1,26,-1
 398 628 l 1,27,-1
 232 628 l 1,28,-1
 232 379 l 1,0,1
EndSplineSet
EndChar

StartChar: uni0460
Encoding: 1120 1120 332
Width: 600
Flags: W
LayerCount: 2
Fore
SplineSet
562 517.5 m 128,-1,1
 583 425 583 425 583 297 c 0,2,3
 583 132 583 132 542.5 62 c 128,-1,4
 502 -8 502 -8 426 -8 c 0,5,6
 336 -8 336 -8 302 98 c 1,7,8
 285 44 285 44 256 18 c 128,-1,9
 227 -8 227 -8 177 -8 c 0,10,11
 136 -8 136 -8 100.5 20.5 c 128,-1,12
 65 49 65 49 41.5 117.5 c 128,-1,13
 18 186 18 186 18 297 c 0,14,15
 18 424 18 424 38.5 512.5 c 128,-1,16
 59 601 59 601 89 687 c 1,17,-1
 159 687 l 1,18,19
 121 600 121 600 103 508 c 128,-1,20
 85 416 85 416 85 300 c 0,21,22
 85 47 85 47 190 47 c 0,23,24
 223 47 223 47 243.5 76.5 c 128,-1,25
 264 106 264 106 264 172 c 2,26,-1
 264 398 l 1,27,-1
 338 398 l 1,28,-1
 338 173 l 2,29,30
 338 108 338 108 361 77.5 c 128,-1,31
 384 47 384 47 420 47 c 0,32,33
 450 47 450 47 471 66 c 128,-1,34
 492 85 492 85 504.5 139.5 c 128,-1,35
 517 194 517 194 517 297 c 0,36,37
 517 410 517 410 498 501.5 c 128,-1,38
 479 593 479 593 443 687 c 1,39,-1
 513 687 l 1,40,0
 541 610 541 610 562 517.5 c 128,-1,1
EndSplineSet
EndChar

StartChar: uni0462
Encoding: 1122 1122 333
Width: 600
GlyphClass: 2
Flags: W
AnchorPoint: "Anchor-3" 300 687 basechar 0
AnchorPoint: "Anchor-2" 300 0 basechar 0
LayerCount: 2
Fore
SplineSet
495 372 m 128,-1,1
 562 320 562 320 562 218 c 0,2,3
 562 106 562 106 490 53 c 128,-1,4
 418 0 418 0 292 0 c 2,5,-1
 162 0 l 1,6,-1
 162 533 l 1,7,-1
 10 533 l 1,8,-1
 10 589 l 1,9,-1
 162 589 l 1,10,-1
 162 687 l 1,11,-1
 226 687 l 1,12,-1
 226 589 l 1,13,-1
 389 589 l 1,14,-1
 389 533 l 1,15,-1
 226 533 l 1,16,-1
 226 424 l 1,17,-1
 311 424 l 2,18,0
 428 424 428 424 495 372 c 128,-1,1
444 91 m 128,-1,20
 492 126 492 126 492 216 c 0,21,22
 492 299 492 299 446.5 334 c 128,-1,23
 401 369 401 369 315 369 c 2,24,-1
 226 369 l 1,25,-1
 226 56 l 1,26,-1
 308 56 l 2,27,19
 396 56 396 56 444 91 c 128,-1,20
EndSplineSet
EndChar

StartChar: uni0464
Encoding: 1124 1124 334
Width: 600
GlyphClass: 2
Flags: W
AnchorPoint: "Anchor-3" 300 687 basechar 0
AnchorPoint: "Anchor-2" 300 0 basechar 0
LayerCount: 2
Fore
SplineSet
591 42 m 1,0,1
 560 17 560 17 526 3.5 c 128,-1,2
 492 -10 492 -10 438 -10 c 0,3,4
 366 -10 366 -10 311.5 28.5 c 128,-1,5
 257 67 257 67 225 142.5 c 128,-1,6
 193 218 193 218 190 325 c 1,7,-1
 113 325 l 1,8,-1
 113 0 l 1,9,-1
 46 0 l 1,10,-1
 46 686 l 1,11,-1
 113 686 l 1,12,-1
 113 387 l 1,13,-1
 191 387 l 1,14,15
 197 487 197 487 230.5 556.5 c 128,-1,16
 264 626 264 626 318.5 661.5 c 128,-1,17
 373 697 373 697 441 697 c 0,18,19
 489 697 489 697 519.5 686.5 c 128,-1,20
 550 676 550 676 583 653 c 1,21,-1
 543 608 l 1,22,23
 517 624 517 624 496.5 630.5 c 128,-1,24
 476 637 476 637 443 637 c 0,25,26
 285 637 285 637 261 384 c 1,27,-1
 512 384 l 1,28,-1
 512 323 l 1,29,-1
 259 323 l 1,30,31
 267 184 267 184 314.5 118 c 128,-1,32
 362 52 362 52 438 52 c 0,33,34
 476 52 476 52 498 61 c 128,-1,35
 520 70 520 70 551 89 c 1,36,-1
 591 42 l 1,0,1
EndSplineSet
EndChar

StartChar: uni0466
Encoding: 1126 1126 335
Width: 600
GlyphClass: 2
Flags: W
AnchorPoint: "Anchor-3" 300 687 basechar 0
AnchorPoint: "Anchor-2" 300 0 basechar 0
LayerCount: 2
Fore
SplineSet
495 0 m 1,0,-1
 397 304 l 1,1,-1
 332 304 l 1,2,-1
 332 0 l 1,3,-1
 262 0 l 1,4,-1
 262 304 l 1,5,-1
 198 304 l 1,6,-1
 100 0 l 1,7,-1
 30 0 l 1,8,-1
 258 687 l 1,9,-1
 342 687 l 1,10,-1
 570 0 l 1,11,-1
 495 0 l 1,0,-1
218 366 m 1,12,-1
 378 366 l 1,13,-1
 298 614 l 1,14,-1
 218 366 l 1,12,-1
EndSplineSet
EndChar

StartChar: uni0468
Encoding: 1128 1128 336
Width: 600
GlyphClass: 2
Flags: W
AnchorPoint: "Anchor-3" 300 687 basechar 0
AnchorPoint: "Anchor-2" 300 0 basechar 0
LayerCount: 2
Fore
SplineSet
518 0 m 1,0,-1
 449 299 l 1,1,-1
 408 299 l 1,2,-1
 408 0 l 1,3,-1
 343 0 l 1,4,-1
 343 299 l 1,5,-1
 301 299 l 1,6,-1
 232 0 l 1,7,-1
 163 0 l 1,8,-1
 238 299 l 1,9,-1
 121 299 l 1,10,-1
 121 1 l 1,11,-1
 48 1 l 1,12,-1
 48 687 l 1,13,-1
 121 687 l 1,14,-1
 121 361 l 1,15,-1
 201 361 l 1,16,-1
 211 305 l 1,17,-1
 229 361 l 1,18,-1
 253 361 l 1,19,-1
 335 687 l 1,20,-1
 419 687 l 1,21,-1
 501 361 l 1,22,-1
 521 361 l 1,23,-1
 542 299 l 1,24,-1
 516 299 l 1,25,-1
 591 0 l 1,26,-1
 518 0 l 1,0,-1
315 361 m 1,27,-1
 435 361 l 1,28,-1
 375 622 l 1,29,-1
 315 361 l 1,27,-1
EndSplineSet
EndChar

StartChar: uni046A
Encoding: 1130 1130 337
Width: 600
GlyphClass: 2
Flags: W
AnchorPoint: "Anchor-3" 300 687 basechar 0
AnchorPoint: "Anchor-2" 300 0 basechar 0
LayerCount: 2
Fore
SplineSet
452 372 m 1,0,-1
 552 0 l 1,1,-1
 487 0 l 1,2,-1
 403 311 l 1,3,-1
 337 311 l 1,4,-1
 337 0 l 1,5,-1
 264 0 l 1,6,-1
 264 311 l 1,7,-1
 199 311 l 1,8,-1
 114 0 l 1,9,-1
 48 0 l 1,10,-1
 160 372 l 1,11,-1
 233 372 l 1,12,-1
 101 639 l 1,13,-1
 101 687 l 1,14,-1
 509 687 l 1,15,-1
 509 639 l 1,16,-1
 369 372 l 1,17,-1
 452 372 l 1,0,-1
178 633 m 1,18,-1
 305 372 l 1,19,-1
 435 633 l 1,20,-1
 178 633 l 1,18,-1
EndSplineSet
EndChar

StartChar: uni046C
Encoding: 1132 1132 338
Width: 600
GlyphClass: 2
Flags: W
AnchorPoint: "Anchor-3" 300 687 basechar 0
AnchorPoint: "Anchor-2" 300 0 basechar 0
LayerCount: 2
Fore
SplineSet
520 372 m 1,0,-1
 632 0 l 1,1,-1
 562 0 l 1,2,-1
 471 311 l 1,3,-1
 418 311 l 1,4,-1
 418 0 l 1,5,-1
 340 0 l 1,6,-1
 340 311 l 1,7,-1
 287 311 l 1,8,-1
 194 0 l 1,9,-1
 124 0 l 1,10,-1
 228 311 l 1,11,-1
 96 311 l 1,12,-1
 96 1 l 1,13,-1
 22 1 l 1,14,-1
 22 687 l 1,15,-1
 96 687 l 1,16,-1
 96 372 l 1,17,-1
 313 372 l 1,18,-1
 191 638 l 1,19,-1
 191 687 l 1,20,-1
 574 687 l 1,21,-1
 574 638 l 1,22,-1
 445 372 l 1,23,-1
 520 372 l 1,0,-1
269 631 m 1,24,-1
 383 372 l 1,25,-1
 500 631 l 1,26,-1
 269 631 l 1,24,-1
EndSplineSet
EndChar

StartChar: uni046E
Encoding: 1134 1134 339
Width: 600
GlyphClass: 2
Flags: W
AnchorPoint: "Anchor-3" 283 687 basechar 0
AnchorPoint: "Anchor-2" 0 0 basechar 0
LayerCount: 2
Fore
SplineSet
306 755 m 1,0,-1
 261 755 l 1,1,-1
 128 856 l 1,2,-1
 160 892 l 1,3,-1
 283 813 l 1,4,-1
 407 892 l 1,5,-1
 438 856 l 1,6,-1
 306 755 l 1,0,-1
451 319 m 128,-1,8
 511 264 511 264 511 171 c 0,9,10
 511 111 511 111 484 64.5 c 128,-1,11
 457 18 457 18 410 -9 c 128,-1,12
 363 -36 363 -36 303 -39 c 0,13,14
 225 -43 225 -43 196.5 -54.5 c 128,-1,15
 168 -66 168 -66 168 -91 c 0,16,17
 168 -130 168 -130 241 -166 c 1,18,-1
 216 -210 l 1,19,20
 161 -186 161 -186 133 -155.5 c 128,-1,21
 105 -125 105 -125 105 -86 c 0,22,23
 105 -38 105 -38 148 -11.5 c 128,-1,24
 191 15 191 15 274 16 c 0,25,26
 355 20 355 20 399.5 58.5 c 128,-1,27
 444 97 444 97 444 168 c 0,28,29
 444 248 444 248 402.5 283 c 128,-1,30
 361 318 361 318 277 318 c 2,31,-1
 177 318 l 1,32,-1
 177 374 l 1,33,-1
 395 630 l 1,34,-1
 89 630 l 1,35,-1
 89 687 l 1,36,-1
 479 687 l 1,37,-1
 479 629 l 1,38,-1
 249 373 l 1,39,-1
 283 373 l 2,40,7
 391 374 391 374 451 319 c 128,-1,8
EndSplineSet
EndChar

StartChar: uni0474
Encoding: 1140 1140 342
Width: 600
GlyphClass: 2
Flags: W
AnchorPoint: "Anchor-3" 286 687 basechar 0
AnchorPoint: "Anchor-2" 300 0 basechar 0
LayerCount: 2
Fore
SplineSet
523 646 m 0,1,2
 502 646 502 646 489 631 c 128,-1,3
 476 616 476 616 467 583 c 2,4,-1
 310 0 l 1,5,-1
 247 0 l 1,6,-1
 34 687 l 1,7,-1
 103 687 l 1,8,-1
 276 93 l 1,9,-1
 414 597 l 2,10,11
 429 648 429 648 453.5 672 c 128,-1,12
 478 696 478 696 519 696 c 0,13,14
 539 696 539 696 555.5 690.5 c 128,-1,15
 572 685 572 685 592 675 c 1,16,-1
 563 637 l 1,17,0
 538 646 538 646 523 646 c 0,1,2
EndSplineSet
EndChar

StartChar: uni0478
Encoding: 1144 1144 344
Width: 600
Flags: W
LayerCount: 2
Fore
SplineSet
49.5 77.5 m 128,-1,1
 15 165 15 165 15 341 c 256,2,3
 15 517 15 517 49.5 607 c 128,-1,4
 84 697 84 697 168 697 c 0,5,6
 250 697 250 697 286 607.5 c 128,-1,7
 322 518 322 518 322 343 c 0,8,9
 322 165 322 165 286.5 77.5 c 128,-1,10
 251 -10 251 -10 168 -10 c 0,11,0
 84 -10 84 -10 49.5 77.5 c 128,-1,1
218.5 77.5 m 128,-1,13
 236 108 236 108 242.5 171 c 128,-1,14
 249 234 249 234 249 343 c 256,15,16
 249 452 249 452 242.5 515 c 128,-1,17
 236 578 236 578 218.5 609 c 128,-1,18
 201 640 201 640 168 640 c 256,19,20
 135 640 135 640 117.5 608.5 c 128,-1,21
 100 577 100 577 93.5 513.5 c 128,-1,22
 87 450 87 450 87 341 c 0,23,24
 87 235 87 235 94.5 171.5 c 128,-1,25
 102 108 102 108 119.5 77.5 c 128,-1,26
 137 47 137 47 168 47 c 0,27,12
 201 47 201 47 218.5 77.5 c 128,-1,13
342 -147 m 1,28,29
 385 -136 385 -136 410.5 -101.5 c 128,-1,30
 436 -67 436 -67 446 0 c 1,31,-1
 415 0 l 1,32,-1
 327 525 l 1,33,-1
 396 525 l 1,34,-1
 463 53 l 1,35,-1
 523 525 l 1,36,-1
 594 525 l 1,37,-1
 509 -4 l 2,38,39
 496 -88 496 -88 457 -138 c 128,-1,40
 418 -188 418 -188 350 -209 c 1,41,-1
 342 -147 l 1,28,29
EndSplineSet
EndChar

StartChar: uni0492
Encoding: 1170 1170 345
Width: 600
GlyphClass: 2
Flags: W
AnchorPoint: "Anchor-3" 386 687 basechar 0
AnchorPoint: "Anchor-2" 214 0 basechar 0
LayerCount: 2
Fore
SplineSet
565 626 m 1,0,-1
 245 626 l 1,1,-1
 245 433 l 1,2,-1
 408 433 l 1,3,-1
 408 376 l 1,4,-1
 245 376 l 1,5,-1
 245 0 l 1,6,-1
 182 0 l 1,7,-1
 182 376 l 1,8,-1
 74 376 l 1,9,-1
 74 433 l 1,10,-1
 182 433 l 1,11,-1
 182 687 l 1,12,-1
 572 687 l 1,13,-1
 565 626 l 1,0,-1
EndSplineSet
EndChar

StartChar: uni0494
Encoding: 1172 1172 346
Width: 600
GlyphClass: 2
Flags: W
AnchorPoint: "Anchor-3" 300 687 basechar 0
AnchorPoint: "Anchor-2" 300 -193 basechar 0
LayerCount: 2
Fore
SplineSet
452.5 418.5 m 128,-1,1
 496 393 496 393 520 346.5 c 128,-1,2
 544 300 544 300 544 237 c 2,3,-1
 544 -71 l 2,4,5
 544 -138 544 -138 509.5 -172.5 c 128,-1,6
 475 -207 475 -207 416 -207 c 0,7,8
 382 -207 382 -207 355 -197 c 128,-1,9
 328 -187 328 -187 310 -172 c 1,10,-1
 335 -125 l 1,11,12
 357 -139 357 -139 373.5 -145 c 128,-1,13
 390 -151 390 -151 415 -151 c 0,14,15
 447 -151 447 -151 463.5 -131.5 c 128,-1,16
 480 -112 480 -112 480 -74 c 2,17,-1
 480 236 l 2,18,19
 480 305 480 305 446 343 c 128,-1,20
 412 381 412 381 347 381 c 0,21,22
 288 381 288 381 244.5 358 c 128,-1,23
 201 335 201 335 160 288 c 1,24,-1
 160 0 l 1,25,-1
 97 0 l 1,26,-1
 97 687 l 1,27,-1
 464 687 l 1,28,-1
 456 630 l 1,29,-1
 161 630 l 1,30,-1
 160 631 l 1,31,-1
 160 360 l 1,32,33
 197 402 197 402 243.5 423 c 128,-1,34
 290 444 290 444 353 444 c 0,35,0
 409 444 409 444 452.5 418.5 c 128,-1,1
EndSplineSet
EndChar

StartChar: uni0496
Encoding: 1174 1174 347
Width: 600
GlyphClass: 2
Flags: W
AnchorPoint: "Anchor-3" 300 687 basechar 0
AnchorPoint: "Anchor-2" 300 0 basechar 0
LayerCount: 2
Fore
SplineSet
565 58 m 1,0,-1
 610 58 l 1,1,-1
 610 -139 l 1,2,-1
 549 -139 l 1,3,-1
 536 0 l 1,4,-1
 509 0 l 1,5,-1
 510 17 l 1,6,-1
 406 329 l 1,7,-1
 336 329 l 1,8,-1
 336 0 l 1,9,-1
 264 0 l 1,10,-1
 264 329 l 1,11,-1
 194 329 l 1,12,-1
 82 0 l 1,13,-1
 15 0 l 1,14,-1
 142 360 l 1,15,-1
 31 687 l 1,16,-1
 99 687 l 1,17,-1
 194 396 l 1,18,-1
 264 396 l 1,19,-1
 264 687 l 1,20,-1
 336 687 l 1,21,-1
 336 396 l 1,22,-1
 406 396 l 1,23,-1
 502 687 l 1,24,-1
 569 687 l 1,25,-1
 458 360 l 1,26,-1
 565 58 l 1,0,-1
EndSplineSet
EndChar

StartChar: uni0498
Encoding: 1176 1176 348
Width: 600
GlyphClass: 2
Flags: W
AnchorPoint: "Anchor-3" 301 687 basechar 0
AnchorPoint: "Anchor-2" 296 0 basechar 0
LayerCount: 2
Fore
SplineSet
507 104 m 128,-1,1
 480 57 480 57 430 27 c 128,-1,2
 380 -3 380 -3 313 -9 c 1,3,-1
 313 -60 l 1,4,5
 358 -63 358 -63 380.5 -86 c 128,-1,6
 403 -109 403 -109 403 -138 c 0,7,8
 403 -184 403 -184 369.5 -207.5 c 128,-1,9
 336 -231 336 -231 289 -231 c 0,10,11
 226 -231 226 -231 188 -209 c 1,12,-1
 212 -168 l 1,13,14
 241 -183 241 -183 280 -183 c 0,15,16
 342 -183 342 -183 342 -139 c 0,17,18
 342 -112 342 -112 321.5 -102.5 c 128,-1,19
 301 -93 301 -93 258 -93 c 1,20,-1
 263 -10 l 1,21,22
 198 -6 198 -6 141.5 19 c 128,-1,23
 85 44 85 44 43 88 c 1,24,-1
 88 125 l 1,25,26
 175 49 175 49 281 49 c 0,27,28
 367 49 367 49 414.5 89.5 c 128,-1,29
 462 130 462 130 462 201 c 256,30,31
 462 272 462 272 415 306 c 128,-1,32
 368 340 368 340 292 340 c 2,33,-1
 169 340 l 1,34,-1
 176 400 l 1,35,-1
 284 400 l 2,36,37
 350 400 350 400 396 430.5 c 128,-1,38
 442 461 442 461 442 522 c 0,39,40
 442 579 442 579 397.5 609.5 c 128,-1,41
 353 640 353 640 283 640 c 0,42,43
 227 640 227 640 183.5 622.5 c 128,-1,44
 140 605 140 605 95 570 c 1,45,-1
 56 612 l 1,46,47
 108 655 108 655 162.5 676 c 128,-1,48
 217 697 217 697 280 697 c 0,49,50
 350 697 350 697 402 674.5 c 128,-1,51
 454 652 454 652 482 611.5 c 128,-1,52
 510 571 510 571 510 519 c 0,53,54
 510 459 510 459 469.5 421 c 128,-1,55
 429 383 429 383 372 376 c 1,56,57
 413 373 413 373 450.5 352.5 c 128,-1,58
 488 332 488 332 511 295 c 128,-1,59
 534 258 534 258 534 207 c 0,60,0
 534 151 534 151 507 104 c 128,-1,1
EndSplineSet
EndChar

StartChar: uni049A
Encoding: 1178 1178 349
Width: 600
GlyphClass: 2
Flags: W
AnchorPoint: "Anchor-3" 318 687 basechar 0
AnchorPoint: "Anchor-2" 300 0 basechar 0
LayerCount: 2
Fore
SplineSet
537 58 m 1,0,-1
 580 58 l 1,1,-1
 580 -139 l 1,2,-1
 528 -139 l 1,3,-1
 516 0 l 1,4,-1
 497 0 l 1,5,-1
 256 333 l 1,6,-1
 171 333 l 1,7,-1
 171 0 l 1,8,-1
 107 0 l 1,9,-1
 107 687 l 1,10,-1
 171 687 l 1,11,-1
 171 392 l 1,12,-1
 258 392 l 1,13,-1
 487 687 l 1,14,-1
 561 687 l 1,15,-1
 313 360 l 1,16,-1
 537 58 l 1,0,-1
EndSplineSet
EndChar

StartChar: uni049C
Encoding: 1180 1180 350
Width: 600
GlyphClass: 2
Flags: W
AnchorPoint: "Anchor-3" 300 687 basechar 0
AnchorPoint: "Anchor-2" 300 0 basechar 0
LayerCount: 2
Fore
SplineSet
226 151 m 1,0,-1
 226 331 l 1,1,-1
 174 331 l 1,2,-1
 174 0 l 1,3,-1
 107 0 l 1,4,-1
 107 687 l 1,5,-1
 174 687 l 1,6,-1
 174 394 l 1,7,-1
 226 394 l 1,8,-1
 226 569 l 1,9,-1
 279 569 l 1,10,-1
 279 394 l 1,11,-1
 308 394 l 1,12,-1
 492 687 l 1,13,-1
 563 687 l 1,14,-1
 361 360 l 1,15,-1
 582 0 l 1,16,-1
 508 0 l 1,17,-1
 307 331 l 1,18,-1
 279 331 l 1,19,-1
 279 151 l 1,20,-1
 226 151 l 1,0,-1
EndSplineSet
EndChar

StartChar: uni049E
Encoding: 1182 1182 351
Width: 600
Flags: W
LayerCount: 2
Fore
SplineSet
331 360 m 1,0,-1
 578 0 l 1,1,-1
 495 0 l 1,2,-1
 274 333 l 1,3,-1
 189 333 l 1,4,-1
 189 0 l 1,5,-1
 125 0 l 1,6,-1
 125 520 l 1,7,-1
 45 520 l 1,8,-1
 45 582 l 1,9,-1
 125 582 l 1,10,-1
 125 687 l 1,11,-1
 189 687 l 1,12,-1
 189 582 l 1,13,-1
 312 582 l 1,14,-1
 312 520 l 1,15,-1
 189 520 l 1,16,-1
 189 392 l 1,17,-1
 276 392 l 1,18,-1
 485 687 l 1,19,-1
 559 687 l 1,20,-1
 331 360 l 1,0,-1
EndSplineSet
EndChar

StartChar: uni04A0
Encoding: 1184 1184 352
Width: 600
Flags: W
LayerCount: 2
Fore
SplineSet
285 331 m 1,0,-1
 212 331 l 1,1,-1
 212 0 l 1,2,-1
 143 0 l 1,3,-1
 143 624 l 1,4,-1
 14 624 l 1,5,-1
 14 687 l 1,6,-1
 212 687 l 1,7,-1
 212 394 l 1,8,-1
 288 394 l 1,9,-1
 502 687 l 1,10,-1
 578 687 l 1,11,-1
 346 360 l 1,12,-1
 598 0 l 1,13,-1
 512 0 l 1,14,-1
 285 331 l 1,0,-1
EndSplineSet
EndChar

StartChar: uni04A2
Encoding: 1186 1186 353
Width: 600
GlyphClass: 2
Flags: W
AnchorPoint: "Anchor-3" 300 687 basechar 0
AnchorPoint: "Anchor-2" 300 0 basechar 0
LayerCount: 2
Fore
SplineSet
507 58 m 1,0,-1
 572 58 l 1,1,-1
 572 -139 l 1,2,-1
 520 -139 l 1,3,-1
 508 0 l 1,4,-1
 444 0 l 1,5,-1
 444 337 l 1,6,-1
 156 337 l 1,7,-1
 156 0 l 1,8,-1
 93 0 l 1,9,-1
 93 687 l 1,10,-1
 156 687 l 1,11,-1
 156 389 l 1,12,-1
 444 389 l 1,13,-1
 444 687 l 1,14,-1
 507 687 l 1,15,-1
 507 58 l 1,0,-1
EndSplineSet
EndChar

StartChar: uni04A4
Encoding: 1188 1188 354
Width: 600
Flags: W
LayerCount: 2
Fore
SplineSet
600 687 m 1,0,-1
 595 632 l 1,1,-1
 457 632 l 1,2,-1
 457 0 l 1,3,-1
 393 0 l 1,4,-1
 393 338 l 1,5,-1
 142 338 l 1,6,-1
 142 0 l 1,7,-1
 78 0 l 1,8,-1
 78 687 l 1,9,-1
 142 687 l 1,10,-1
 142 388 l 1,11,-1
 393 388 l 1,12,-1
 393 687 l 1,13,-1
 600 687 l 1,0,-1
EndSplineSet
EndChar

StartChar: uni04A6
Encoding: 1190 1190 355
Width: 600
GlyphClass: 2
Flags: W
AnchorPoint: "Anchor-3" 300 687 basechar 0
AnchorPoint: "Anchor-2" 300 -193 basechar 0
LayerCount: 2
Fore
SplineSet
555.5 405 m 128,-1,1
 596 362 596 362 596 289 c 2,2,-1
 596 -62 l 2,3,4
 596 -133 596 -133 558 -170 c 128,-1,5
 520 -207 520 -207 459 -207 c 0,6,7
 426 -207 426 -207 398.5 -196.5 c 128,-1,8
 371 -186 371 -186 353 -172 c 1,9,-1
 380 -121 l 1,10,11
 402 -134 402 -134 417.5 -139.5 c 128,-1,12
 433 -145 433 -145 458 -145 c 0,13,14
 523 -145 523 -145 523 -68 c 2,15,-1
 523 294 l 2,16,17
 523 381 523 381 443 381 c 0,18,19
 390 381 390 381 341 339 c 1,20,-1
 341 0 l 1,21,-1
 268 0 l 1,22,-1
 268 619 l 1,23,-1
 101 619 l 1,24,-1
 101 0 l 1,25,-1
 29 0 l 1,26,-1
 29 687 l 1,27,-1
 341 687 l 1,28,-1
 341 406 l 1,29,30
 364 427 364 427 389 437.5 c 128,-1,31
 414 448 414 448 446 448 c 0,32,0
 515 448 515 448 555.5 405 c 128,-1,1
EndSplineSet
EndChar

StartChar: uni0524
Encoding: 1316 1316 356
Width: 600
GlyphClass: 2
Flags: W
AnchorPoint: "Anchor-3" 300 687 basechar 0
AnchorPoint: "Anchor-2" 300 0 basechar 0
LayerCount: 2
Fore
SplineSet
507 58 m 1,0,-1
 572 58 l 1,1,-1
 572 -139 l 1,2,-1
 520 -139 l 1,3,-1
 508 0 l 1,4,-1
 444 0 l 1,5,-1
 444 627 l 1,6,-1
 156 627 l 1,7,-1
 156 0 l 1,8,-1
 93 0 l 1,9,-1
 93 687 l 1,10,-1
 507 687 l 1,11,-1
 507 58 l 1,0,-1
EndSplineSet
EndChar

StartChar: uni04A8
Encoding: 1192 1192 357
Width: 600
GlyphClass: 2
Flags: W
AnchorPoint: "Anchor-3" 300 687 basechar 0
AnchorPoint: "Anchor-2" 300 -193 basechar 0
LayerCount: 2
Fore
SplineSet
546 120.5 m 128,-1,1
 510 56 510 56 444 22 c 1,2,3
 450 15 450 15 475 -13.5 c 128,-1,4
 500 -42 500 -42 521 -72 c 1,5,-1
 471 -110 l 1,6,-1
 421 -49 l 2,7,8
 407 -33 407 -33 381 -1 c 1,9,10
 353 -8 353 -8 316 -8 c 0,11,12
 232 -8 232 -8 169.5 32.5 c 128,-1,13
 107 73 107 73 73 152.5 c 128,-1,14
 39 232 39 232 39 345 c 0,15,16
 39 456 39 456 76.5 535.5 c 128,-1,17
 114 615 114 615 175 655.5 c 128,-1,18
 236 696 236 696 306 696 c 0,19,20
 362 696 362 696 401 681.5 c 128,-1,21
 440 667 440 667 481 634 c 1,22,-1
 445 586 l 1,23,24
 383 637 383 637 307 637 c 0,25,26
 224 637 224 637 167 568 c 128,-1,27
 110 499 110 499 110 345 c 0,28,29
 110 196 110 196 165.5 126 c 128,-1,30
 221 56 221 56 320 56 c 2,31,-1
 335 56 l 1,32,33
 297 108 297 108 276.5 154.5 c 128,-1,34
 256 201 256 201 256 248 c 0,35,36
 256 298 256 298 277.5 340 c 128,-1,37
 299 382 299 382 336.5 406.5 c 128,-1,38
 374 431 374 431 420 431 c 0,39,40
 499 431 499 431 540.5 381.5 c 128,-1,41
 582 332 582 332 582 255 c 0,42,0
 582 185 582 185 546 120.5 c 128,-1,1
351.5 155.5 m 128,-1,44
 369 114 369 114 402 72 c 1,45,46
 451 94 451 94 476.5 141 c 128,-1,47
 502 188 502 188 502 255 c 0,48,49
 502 369 502 369 421 369 c 0,50,51
 378 369 378 369 356 336.5 c 128,-1,52
 334 304 334 304 334 248 c 0,53,43
 334 197 334 197 351.5 155.5 c 128,-1,44
EndSplineSet
EndChar

StartChar: uni04AA
Encoding: 1194 1194 358
Width: 600
GlyphClass: 2
Flags: W
AnchorPoint: "Anchor-3" 367 687 basechar 0
AnchorPoint: "Anchor-2" 349 0 basechar 0
LayerCount: 2
Fore
SplineSet
445 -62 m 128,-1,1
 464 -92 464 -92 464 -126 c 0,2,3
 464 -174 464 -174 432 -204 c 128,-1,4
 400 -234 400 -234 347 -234 c 256,5,6
 294 -234 294 -234 253 -209 c 1,7,-1
 272 -166 l 2,8,9
 275 -167 275 -167 286.5 -173 c 128,-1,10
 298 -179 298 -179 312.5 -182 c 128,-1,11
 327 -185 327 -185 344 -185 c 0,12,13
 372 -185 372 -185 386.5 -169.5 c 128,-1,14
 401 -154 401 -154 401 -126 c 0,15,16
 401 -93 401 -93 381 -62 c 128,-1,17
 361 -31 361 -31 324 -7 c 1,18,19
 251 2 251 2 194 45.5 c 128,-1,20
 137 89 137 89 104.5 165 c 128,-1,21
 72 241 72 241 72 344 c 0,22,23
 72 456 72 456 111 535.5 c 128,-1,24
 150 615 150 615 215 656 c 128,-1,25
 280 697 280 697 358 697 c 0,26,27
 420 697 420 697 464 681.5 c 128,-1,28
 508 666 508 666 551 632 c 1,29,-1
 512 587 l 1,30,31
 479 615 479 615 443 626.5 c 128,-1,32
 407 638 407 638 365 638 c 0,33,34
 265 638 265 638 202 568.5 c 128,-1,35
 139 499 139 499 139 344 c 0,36,37
 139 190 139 190 200 119.5 c 128,-1,38
 261 49 261 49 362 49 c 0,39,40
 416 49 416 49 454.5 64 c 128,-1,41
 493 79 493 79 525 105 c 1,42,-1
 561 60 l 1,43,44
 498 -1 498 -1 391 -9 c 1,45,0
 426 -32 426 -32 445 -62 c 128,-1,1
EndSplineSet
EndChar

StartChar: uni04AC
Encoding: 1196 1196 359
Width: 600
GlyphClass: 2
Flags: W
AnchorPoint: "Anchor-3" 299 687 basechar 0
AnchorPoint: "Anchor-2" 299 0 basechar 0
LayerCount: 2
Fore
SplineSet
545 628 m 1,0,-1
 330 628 l 1,1,-1
 330 58 l 1,2,-1
 395 58 l 1,3,-1
 395 -139 l 1,4,-1
 343 -139 l 1,5,-1
 331 0 l 1,6,-1
 266 0 l 1,7,-1
 266 628 l 1,8,-1
 45 628 l 1,9,-1
 45 687 l 1,10,-1
 552 687 l 1,11,-1
 545 628 l 1,0,-1
EndSplineSet
EndChar

StartChar: uni04B0
Encoding: 1200 1200 361
Width: 600
GlyphClass: 2
Flags: W
AnchorPoint: "Anchor-3" 304 687 basechar 0
AnchorPoint: "Anchor-2" 300 0 basechar 0
LayerCount: 2
Fore
SplineSet
567 687 m 1,0,-1
 366 326 l 1,1,-1
 464 326 l 1,2,-1
 464 266 l 1,3,-1
 333 266 l 1,4,-1
 333 0 l 1,5,-1
 267 0 l 1,6,-1
 267 266 l 1,7,-1
 136 266 l 1,8,-1
 136 326 l 1,9,-1
 234 326 l 1,10,-1
 33 687 l 1,11,-1
 104 687 l 1,12,-1
 302 328 l 1,13,-1
 502 687 l 1,14,-1
 567 687 l 1,0,-1
EndSplineSet
EndChar

StartChar: uni04B2
Encoding: 1202 1202 362
Width: 600
GlyphClass: 2
Flags: W
AnchorPoint: "Anchor-3" 300 687 basechar 0
AnchorPoint: "Anchor-2" 300 0 basechar 0
LayerCount: 2
Fore
SplineSet
526 58 m 1,0,-1
 567 58 l 1,1,-1
 567 -139 l 1,2,-1
 515 -139 l 1,3,-1
 503 0 l 1,4,-1
 484 0 l 1,5,-1
 298 325 l 1,6,-1
 108 0 l 1,7,-1
 39 0 l 1,8,-1
 261 367 l 1,9,-1
 58 687 l 1,10,-1
 135 687 l 1,11,-1
 300 410 l 1,12,-1
 465 687 l 1,13,-1
 535 687 l 1,14,-1
 336 371 l 1,15,-1
 526 58 l 1,0,-1
EndSplineSet
EndChar

StartChar: uni04B4
Encoding: 1204 1204 363
Width: 600
GlyphClass: 2
Flags: W
AnchorPoint: "Anchor-3" 300 687 basechar 0
AnchorPoint: "Anchor-2" 300 -193 basechar 0
LayerCount: 2
Fore
SplineSet
512 58 m 1,0,-1
 563 58 l 1,1,-1
 563 -139 l 1,2,-1
 502 -139 l 1,3,-1
 489 0 l 1,4,-1
 139 0 l 1,5,-1
 139 626 l 1,6,-1
 0 626 l 1,7,-1
 0 687 l 1,8,-1
 351 687 l 1,9,-1
 344 626 l 1,10,-1
 212 626 l 1,11,-1
 212 56 l 1,12,-1
 440 56 l 1,13,-1
 440 687 l 1,14,-1
 512 687 l 1,15,-1
 512 58 l 1,0,-1
EndSplineSet
EndChar

StartChar: uni04B6
Encoding: 1206 1206 364
Width: 600
GlyphClass: 2
Flags: W
AnchorPoint: "Anchor-3" 290 687 basechar 0
AnchorPoint: "Anchor-2" 300 0 basechar 0
LayerCount: 2
Fore
SplineSet
572 58 m 1,0,-1
 572 -139 l 1,1,-1
 520 -139 l 1,2,-1
 508 0 l 1,3,-1
 444 0 l 1,4,-1
 444 293 l 1,5,6
 392 256 392 256 351 241 c 128,-1,7
 310 226 310 226 254 226 c 0,8,9
 197 226 197 226 152.5 250.5 c 128,-1,10
 108 275 108 275 83.5 319 c 128,-1,11
 59 363 59 363 59 420 c 2,12,-1
 59 687 l 1,13,-1
 122 687 l 1,14,-1
 122 427 l 2,15,16
 122 358 122 358 160.5 323 c 128,-1,17
 199 288 199 288 269 288 c 0,18,19
 374 288 374 288 444 356 c 1,20,-1
 444 687 l 1,21,-1
 507 687 l 1,22,-1
 507 58 l 1,23,-1
 572 58 l 1,0,-1
EndSplineSet
EndChar

StartChar: uni04B8
Encoding: 1208 1208 365
Width: 600
GlyphClass: 2
Flags: W
AnchorPoint: "Anchor-3" 290 687 basechar 0
AnchorPoint: "Anchor-2" 300 0 basechar 0
LayerCount: 2
Fore
SplineSet
507 687 m 1,0,-1
 507 0 l 1,1,-1
 444 0 l 1,2,-1
 444 293 l 1,3,4
 408 267 408 267 378 252 c 128,-1,5
 348 237 348 237 316 231 c 1,6,-1
 316 118 l 1,7,-1
 260 118 l 1,8,-1
 260 226 l 1,9,-1
 254 226 l 2,10,11
 197 226 197 226 152.5 250.5 c 128,-1,12
 108 275 108 275 83.5 319 c 128,-1,13
 59 363 59 363 59 420 c 2,14,-1
 59 687 l 1,15,-1
 122 687 l 1,16,-1
 122 427 l 2,17,18
 122 360 122 360 158 325 c 128,-1,19
 194 290 194 290 260 288 c 1,20,-1
 260 533 l 1,21,-1
 316 533 l 1,22,-1
 316 292 l 1,23,24
 392 304 392 304 444 356 c 1,25,-1
 444 687 l 1,26,-1
 507 687 l 1,0,-1
EndSplineSet
EndChar

StartChar: uni04BA
Encoding: 1210 1210 366
Width: 600
GlyphClass: 2
Flags: W
AnchorPoint: "Anchor-3" 300 687 basechar 0
AnchorPoint: "Anchor-2" 300 0 basechar 0
LayerCount: 2
Fore
SplineSet
448.5 418.5 m 128,-1,1
 492 393 492 393 516 346.5 c 128,-1,2
 540 300 540 300 540 237 c 2,3,-1
 540 0 l 1,4,-1
 476 0 l 1,5,-1
 476 236 l 2,6,7
 476 305 476 305 442 343 c 128,-1,8
 408 381 408 381 343 381 c 0,9,10
 284 381 284 381 240.5 358 c 128,-1,11
 197 335 197 335 156 288 c 1,12,-1
 156 0 l 1,13,-1
 93 0 l 1,14,-1
 93 687 l 1,15,-1
 156 687 l 1,16,-1
 156 360 l 1,17,18
 193 402 193 402 239.5 423 c 128,-1,19
 286 444 286 444 349 444 c 0,20,0
 405 444 405 444 448.5 418.5 c 128,-1,1
EndSplineSet
EndChar

StartChar: uni0526
Encoding: 1318 1318 367
Width: 600
Flags: W
LayerCount: 2
Fore
SplineSet
599 58 m 1,0,-1
 599 -139 l 1,1,-1
 547 -139 l 1,2,-1
 535 0 l 1,3,-1
 474 0 l 1,4,-1
 474 236 l 2,5,6
 474 305 474 305 437.5 343 c 128,-1,7
 401 381 401 381 326 381 c 0,8,9
 272 381 272 381 231 358 c 128,-1,10
 190 335 190 335 156 290 c 1,11,-1
 156 0 l 1,12,-1
 93 0 l 1,13,-1
 93 687 l 1,14,-1
 156 687 l 1,15,-1
 156 366 l 1,16,17
 187 404 187 404 231 424 c 128,-1,18
 275 444 275 444 337 444 c 0,19,20
 430 444 430 444 483.5 388.5 c 128,-1,21
 537 333 537 333 537 237 c 2,22,-1
 537 58 l 1,23,-1
 599 58 l 1,0,-1
EndSplineSet
EndChar

StartChar: uni04BC
Encoding: 1212 1212 368
Width: 600
GlyphClass: 2
Flags: W
AnchorPoint: "Anchor-3" 300 687 basechar 0
AnchorPoint: "Anchor-2" 300 0 basechar 0
LayerCount: 2
Fore
SplineSet
204 314 m 1,0,-1
 202 314 l 1,1,2
 205 179 205 179 250.5 114 c 128,-1,3
 296 49 296 49 366 49 c 0,4,5
 411 49 411 49 438 60.5 c 128,-1,6
 465 72 465 72 499 95 c 1,7,-1
 535 51 l 1,8,9
 502 24 502 24 463.5 7 c 128,-1,10
 425 -10 425 -10 370 -10 c 0,11,12
 302 -10 302 -10 249 26.5 c 128,-1,13
 196 63 196 63 164.5 135.5 c 128,-1,14
 133 208 133 208 130 314 c 1,15,16
 69 315 69 315 35.5 345 c 128,-1,17
 2 375 2 375 2 418 c 0,18,19
 2 470 2 470 45 523 c 1,20,-1
 93 499 l 1,21,22
 81 474 81 474 75.5 458 c 128,-1,23
 70 442 70 442 70 425 c 0,24,25
 70 401 70 401 83.5 388 c 128,-1,26
 97 375 97 375 123 375 c 2,27,-1
 131 375 l 1,28,29
 137 473 137 473 167.5 546 c 128,-1,30
 198 619 198 619 247.5 658 c 128,-1,31
 297 697 297 697 359 697 c 0,32,33
 418 697 418 697 464.5 659.5 c 128,-1,34
 511 622 511 622 537.5 545.5 c 128,-1,35
 564 469 564 469 564 357 c 0,36,37
 564 332 564 332 562 315 c 1,38,-1
 204 315 l 1,39,-1
 204 314 l 1,0,-1
251 571.5 m 128,-1,41
 210 505 210 505 202 375 c 1,42,-1
 500 375 l 1,43,44
 486 638 486 638 358 638 c 0,45,40
 292 638 292 638 251 571.5 c 128,-1,41
EndSplineSet
EndChar

StartChar: uni04BE
Encoding: 1214 1214 369
Width: 600
GlyphClass: 2
Flags: W
AnchorPoint: "Anchor-3" 300 687 basechar 0
AnchorPoint: "Anchor-2" 300 0 basechar 0
LayerCount: 2
Fore
SplineSet
204 314 m 1,0,-1
 202 314 l 1,1,2
 205 179 205 179 250.5 114 c 128,-1,3
 296 49 296 49 366 49 c 0,4,5
 411 49 411 49 438 60.5 c 128,-1,6
 465 72 465 72 499 95 c 1,7,-1
 535 51 l 1,8,9
 490 14 490 14 441 0 c 1,10,11
 368 -34 368 -34 341.5 -61 c 128,-1,12
 315 -88 315 -88 315 -116 c 0,13,14
 315 -139 315 -139 327.5 -151 c 128,-1,15
 340 -163 340 -163 370 -163 c 0,16,17
 403 -163 403 -163 434 -156 c 1,18,-1
 427 -216 l 1,19,20
 385 -222 385 -222 362 -222 c 0,21,22
 309 -222 309 -222 279 -196 c 128,-1,23
 249 -170 249 -170 249 -131 c 0,24,25
 249 -57 249 -57 343 -9 c 1,26,27
 249 2 249 2 191.5 84.5 c 128,-1,28
 134 167 134 167 130 314 c 1,29,30
 69 315 69 315 35.5 345 c 128,-1,31
 2 375 2 375 2 418 c 0,32,33
 2 470 2 470 45 523 c 1,34,-1
 93 499 l 1,35,36
 81 474 81 474 75.5 458 c 128,-1,37
 70 442 70 442 70 425 c 0,38,39
 70 401 70 401 83.5 388 c 128,-1,40
 97 375 97 375 123 375 c 2,41,-1
 131 375 l 1,42,43
 137 473 137 473 167.5 546 c 128,-1,44
 198 619 198 619 247.5 658 c 128,-1,45
 297 697 297 697 359 697 c 0,46,47
 418 697 418 697 464.5 659.5 c 128,-1,48
 511 622 511 622 537.5 545.5 c 128,-1,49
 564 469 564 469 564 357 c 0,50,51
 564 332 564 332 562 315 c 1,52,-1
 204 315 l 1,53,-1
 204 314 l 1,0,-1
251 571.5 m 128,-1,55
 210 505 210 505 202 375 c 1,56,-1
 500 375 l 1,57,58
 486 638 486 638 358 638 c 0,59,54
 292 638 292 638 251 571.5 c 128,-1,55
EndSplineSet
EndChar

StartChar: uni04C3
Encoding: 1219 1219 372
Width: 600
GlyphClass: 2
Flags: W
AnchorPoint: "Anchor-3" 300 687 basechar 0
AnchorPoint: "Anchor-2" 300 -193 basechar 0
LayerCount: 2
Fore
SplineSet
473.5 313 m 128,-1,1
 521 256 521 256 521 161 c 2,2,-1
 521 -71 l 2,3,4
 521 -138 521 -138 486.5 -172.5 c 128,-1,5
 452 -207 452 -207 393 -207 c 0,6,7
 359 -207 359 -207 332 -197 c 128,-1,8
 305 -187 305 -187 287 -172 c 1,9,-1
 312 -125 l 1,10,11
 334 -139 334 -139 350.5 -145 c 128,-1,12
 367 -151 367 -151 392 -151 c 0,13,14
 424 -151 424 -151 440.5 -131.5 c 128,-1,15
 457 -112 457 -112 457 -74 c 2,16,-1
 457 1 l 1,17,-1
 458 1 l 1,18,-1
 458 161 l 2,19,20
 458 241 458 241 421.5 279.5 c 128,-1,21
 385 318 385 318 311 318 c 1,22,-1
 307 342 l 1,23,-1
 292 318 l 1,24,-1
 156 318 l 1,25,-1
 156 0 l 1,26,-1
 93 0 l 1,27,-1
 93 687 l 1,28,-1
 156 687 l 1,29,-1
 156 378 l 1,30,-1
 265 378 l 1,31,-1
 445 687 l 1,32,-1
 518 687 l 1,33,-1
 328 377 l 1,34,0
 426 370 426 370 473.5 313 c 128,-1,1
EndSplineSet
EndChar

StartChar: uni04C5
Encoding: 1221 1221 373
Width: 600
Flags: W
LayerCount: 2
Fore
SplineSet
572 44 m 1,0,-1
 500 -139 l 1,1,-1
 453 -139 l 1,2,-1
 486 0 l 1,3,-1
 418 0 l 1,4,-1
 418 628 l 1,5,-1
 241 628 l 1,6,-1
 212 396 l 2,7,8
 192 245 192 245 171.5 169 c 128,-1,9
 151 93 151 93 127.5 61 c 128,-1,10
 104 29 104 29 58 -8 c 1,11,-1
 28 43 l 1,12,13
 55 67 55 67 71 90.5 c 128,-1,14
 87 114 87 114 105 177 c 128,-1,15
 123 240 123 240 140 360 c 2,16,-1
 185 687 l 1,17,-1
 482 687 l 1,18,-1
 482 44 l 1,19,-1
 572 44 l 1,0,-1
EndSplineSet
EndChar

StartChar: uni04C7
Encoding: 1223 1223 374
Width: 600
GlyphClass: 2
Flags: W
AnchorPoint: "Anchor-3" 300 687 basechar 0
AnchorPoint: "Anchor-2" 300 0 basechar 0
LayerCount: 2
Fore
SplineSet
507 687 m 1,0,-1
 507 -71 l 2,1,2
 507 -138 507 -138 472.5 -172.5 c 128,-1,3
 438 -207 438 -207 379 -207 c 0,4,5
 345 -207 345 -207 318 -197 c 128,-1,6
 291 -187 291 -187 273 -172 c 1,7,-1
 298 -125 l 1,8,9
 320 -139 320 -139 336.5 -145 c 128,-1,10
 353 -151 353 -151 378 -151 c 0,11,12
 410 -151 410 -151 426.5 -131.5 c 128,-1,13
 443 -112 443 -112 443 -74 c 2,14,-1
 443 1 l 1,15,-1
 444 1 l 1,16,-1
 444 337 l 1,17,-1
 156 337 l 1,18,-1
 156 0 l 1,19,-1
 93 0 l 1,20,-1
 93 687 l 1,21,-1
 156 687 l 1,22,-1
 156 389 l 1,23,-1
 444 389 l 1,24,-1
 444 687 l 1,25,-1
 507 687 l 1,0,-1
EndSplineSet
EndChar

StartChar: uni04C9
Encoding: 1225 1225 375
Width: 600
Flags: W
LayerCount: 2
Fore
SplineSet
480 44 m 1,0,-1
 570 44 l 1,1,-1
 498 -139 l 1,2,-1
 451 -139 l 1,3,-1
 484 0 l 1,4,-1
 416 0 l 1,5,-1
 416 338 l 1,6,-1
 145 338 l 1,7,-1
 145 0 l 1,8,-1
 81 0 l 1,9,-1
 81 687 l 1,10,-1
 145 687 l 1,11,-1
 145 388 l 1,12,-1
 416 388 l 1,13,-1
 416 687 l 1,14,-1
 480 687 l 1,15,-1
 480 44 l 1,0,-1
EndSplineSet
EndChar

StartChar: uni04CB
Encoding: 1227 1227 376
Width: 600
GlyphClass: 2
Flags: W
AnchorPoint: "Anchor-3" 290 687 basechar 0
AnchorPoint: "Anchor-2" 300 0 basechar 0
LayerCount: 2
Fore
SplineSet
507 687 m 1,0,-1
 507 0 l 1,1,-1
 444 0 l 1,2,-1
 444 293 l 1,3,4
 392 256 392 256 351 241 c 128,-1,5
 310 226 310 226 254 226 c 0,6,7
 197 226 197 226 152.5 250.5 c 128,-1,8
 108 275 108 275 83.5 319 c 128,-1,9
 59 363 59 363 59 420 c 2,10,-1
 59 687 l 1,11,-1
 122 687 l 1,12,-1
 122 427 l 2,13,14
 122 358 122 358 160.5 323 c 128,-1,15
 199 288 199 288 269 288 c 0,16,17
 374 288 374 288 444 356 c 1,18,-1
 444 687 l 1,19,-1
 507 687 l 1,0,-1
303 -139 m 1,20,-1
 303 58 l 1,21,-1
 390 58 l 1,22,-1
 386 0 l 1,23,-1
 367 0 l 1,24,-1
 355 -139 l 1,25,-1
 303 -139 l 1,20,-1
EndSplineSet
EndChar

StartChar: uni04CD
Encoding: 1229 1229 377
Width: 600
Flags: W
LayerCount: 2
Fore
SplineSet
596 44 m 1,0,-1
 525 -139 l 1,1,-1
 469 -139 l 1,2,-1
 502 0 l 1,3,-1
 458 0 l 1,4,-1
 433 379 l 2,5,6
 427 475 427 475 426 547 c 0,7,8
 424 611 424 611 423 615 c 2,9,-1
 309 125 l 1,10,-1
 233 125 l 1,11,-1
 112 615 l 2,12,13
 111 607 111 607 109 533 c 0,14,15
 107 414 107 414 105 380 c 2,16,-1
 82 0 l 1,17,-1
 18 0 l 1,18,-1
 57 687 l 1,19,-1
 164 687 l 1,20,-1
 273 209 l 1,21,-1
 377 687 l 1,22,-1
 485 687 l 1,23,-1
 522 44 l 1,24,-1
 596 44 l 1,0,-1
EndSplineSet
EndChar

StartChar: uni04D8
Encoding: 1240 1240 382
Width: 600
GlyphClass: 2
Flags: W
AnchorPoint: "Anchor-3" 293 687 basechar 0
AnchorPoint: "Anchor-2" 300 0 basechar 0
LayerCount: 2
Fore
SplineSet
54 374 m 1,0,-1
 477 374 l 1,1,2
 472 515 472 515 425.5 578 c 128,-1,3
 379 641 379 641 294 641 c 0,4,5
 247 641 247 641 209.5 626 c 128,-1,6
 172 611 172 611 132 582 c 1,7,-1
 96 623 l 1,8,9
 184 697 184 697 293 697 c 0,10,11
 416 697 416 697 480 610.5 c 128,-1,12
 544 524 544 524 544 354 c 0,13,14
 544 242 544 242 514 159.5 c 128,-1,15
 484 77 484 77 428.5 33.5 c 128,-1,16
 373 -10 373 -10 297 -10 c 0,17,18
 184 -10 184 -10 118 76 c 128,-1,19
 52 162 52 162 52 330 c 1,20,-1
 54 374 l 1,0,-1
477 314 m 1,22,-1
 115 314 l 1,23,24
 122 171 122 171 166.5 109 c 128,-1,25
 211 47 211 47 299 47 c 0,26,21
 461 47 461 47 477 314 c 1,22,-1
EndSplineSet
EndChar

StartChar: uni04E0
Encoding: 1248 1248 386
Width: 600
Flags: W
LayerCount: 2
Fore
SplineSet
521 203 m 0,1,2
 521 106 521 106 456.5 49 c 128,-1,3
 392 -8 392 -8 282 -8 c 0,4,5
 215 -8 215 -8 168.5 9 c 128,-1,6
 122 26 122 26 79 61 c 1,7,-1
 114 106 l 1,8,9
 157 78 157 78 193.5 64.5 c 128,-1,10
 230 51 230 51 286 51 c 0,11,12
 368 51 368 51 411 92.5 c 128,-1,13
 454 134 454 134 454 205 c 0,14,15
 454 272 454 272 417 305 c 128,-1,16
 380 338 380 338 310 338 c 2,17,-1
 182 338 l 1,18,-1
 182 396 l 1,19,-1
 415 630 l 1,20,-1
 102 630 l 1,21,-1
 102 687 l 1,22,-1
 494 687 l 1,23,-1
 494 629 l 1,24,-1
 259 399 l 1,25,-1
 279 399 l 2,26,0
 521 399 521 399 521 203 c 0,1,2
EndSplineSet
EndChar

StartChar: uni04E8
Encoding: 1256 1256 390
Width: 600
GlyphClass: 2
Flags: W
AnchorPoint: "Anchor-3" 300 687 basechar 0
AnchorPoint: "Anchor-2" 300 0 basechar 0
LayerCount: 2
Fore
SplineSet
482.5 86.5 m 128,-1,1
 419 -10 419 -10 300 -10 c 256,2,3
 181 -10 181 -10 117.5 85 c 128,-1,4
 54 180 54 180 54 341 c 0,5,6
 54 446 54 446 82 526 c 128,-1,7
 110 606 110 606 165.5 651.5 c 128,-1,8
 221 697 221 697 300 697 c 0,9,10
 419 697 419 697 482.5 601 c 128,-1,11
 546 505 546 505 546 343 c 0,12,0
 546 183 546 183 482.5 86.5 c 128,-1,1
173.5 572.5 m 128,-1,14
 131 507 131 507 125 379 c 1,15,-1
 474 379 l 1,16,17
 469 507 469 507 426.5 572.5 c 128,-1,18
 384 638 384 638 300 638 c 256,19,13
 216 638 216 638 173.5 572.5 c 128,-1,14
430 118 m 128,-1,21
 472 187 472 187 475 323 c 1,22,-1
 124 323 l 1,23,24
 127 188 127 188 170 118.5 c 128,-1,25
 213 49 213 49 300 49 c 0,26,20
 388 49 388 49 430 118 c 128,-1,21
EndSplineSet
EndChar

StartChar: uni04F6
Encoding: 1270 1270 397
Width: 600
GlyphClass: 2
Flags: W
AnchorPoint: "Anchor-3" 354 687 basechar 0
AnchorPoint: "Anchor-2" 182 0 basechar 0
LayerCount: 2
Fore
SplineSet
533 626 m 1,0,-1
 213 626 l 1,1,-1
 213 58 l 1,2,-1
 269 58 l 1,3,-1
 269 -139 l 1,4,-1
 217 -139 l 1,5,-1
 205 0 l 1,6,-1
 150 0 l 1,7,-1
 150 687 l 1,8,-1
 540 687 l 1,9,-1
 533 626 l 1,0,-1
EndSplineSet
EndChar

StartChar: uni04FA
Encoding: 1274 1274 399
Width: 600
GlyphClass: 2
Flags: W
AnchorPoint: "Anchor-3" 383 687 basechar 0
AnchorPoint: "Anchor-2" 211 0 basechar 0
LayerCount: 2
Fore
SplineSet
242 626 m 1,0,-1
 242 433 l 1,1,-1
 405 433 l 1,2,-1
 405 376 l 1,3,-1
 242 376 l 1,4,-1
 242 1 l 1,5,-1
 251 1 l 1,6,-1
 251 58 l 1,7,-1
 298 58 l 1,8,-1
 298 -71 l 2,9,10
 298 -138 298 -138 263.5 -172.5 c 128,-1,11
 229 -207 229 -207 170 -207 c 0,12,13
 136 -207 136 -207 109 -197 c 128,-1,14
 82 -187 82 -187 64 -172 c 1,15,-1
 89 -125 l 1,16,17
 111 -139 111 -139 127.5 -145 c 128,-1,18
 144 -151 144 -151 169 -151 c 0,19,20
 201 -151 201 -151 217.5 -131.5 c 128,-1,21
 234 -112 234 -112 234 -74 c 2,22,-1
 234 0 l 1,23,-1
 179 0 l 1,24,-1
 179 376 l 1,25,-1
 71 376 l 1,26,-1
 71 433 l 1,27,-1
 179 433 l 1,28,-1
 179 687 l 1,29,-1
 569 687 l 1,30,-1
 562 626 l 1,31,-1
 242 626 l 1,0,-1
EndSplineSet
EndChar

StartChar: uni04FC
Encoding: 1276 1276 400
Width: 600
GlyphClass: 2
Flags: W
AnchorPoint: "Anchor-3" 280 687 basechar 0
AnchorPoint: "Anchor-2" 280 0 basechar 0
LayerCount: 2
Fore
SplineSet
567 58 m 1,0,-1
 567 -71 l 2,1,2
 567 -138 567 -138 532.5 -172.5 c 128,-1,3
 498 -207 498 -207 439 -207 c 0,4,5
 405 -207 405 -207 378 -197 c 128,-1,6
 351 -187 351 -187 333 -172 c 1,7,-1
 358 -125 l 1,8,9
 380 -139 380 -139 396.5 -145 c 128,-1,10
 413 -151 413 -151 438 -151 c 0,11,12
 470 -151 470 -151 486.5 -131.5 c 128,-1,13
 503 -112 503 -112 503 -74 c 2,14,-1
 503 0 l 1,15,-1
 464 0 l 1,16,-1
 278 325 l 1,17,-1
 88 0 l 1,18,-1
 19 0 l 1,19,-1
 241 367 l 1,20,-1
 38 687 l 1,21,-1
 115 687 l 1,22,-1
 280 410 l 1,23,-1
 445 687 l 1,24,-1
 515 687 l 1,25,-1
 316 371 l 1,26,-1
 513 46 l 1,27,-1
 513 58 l 1,28,-1
 567 58 l 1,0,-1
EndSplineSet
EndChar

StartChar: uni04FE
Encoding: 1278 1278 401
Width: 600
GlyphClass: 2
Flags: W
AnchorPoint: "Anchor-3" 300 687 basechar 0
AnchorPoint: "Anchor-2" 300 0 basechar 0
LayerCount: 2
Fore
SplineSet
355 340 m 1,0,-1
 561 0 l 1,1,-1
 484 0 l 1,2,-1
 298 325 l 1,3,-1
 108 0 l 1,4,-1
 39 0 l 1,5,-1
 245 340 l 1,6,-1
 46 340 l 1,7,-1
 46 395 l 1,8,-1
 243 395 l 1,9,-1
 58 687 l 1,10,-1
 135 687 l 1,11,-1
 300 410 l 1,12,-1
 465 687 l 1,13,-1
 535 687 l 1,14,-1
 351 395 l 1,15,-1
 553 395 l 1,16,-1
 553 340 l 1,17,-1
 355 340 l 1,0,-1
EndSplineSet
EndChar

StartChar: uni0500
Encoding: 1280 1280 402
Width: 600
GlyphClass: 2
Flags: W
AnchorPoint: "Anchor-3" 300 687 basechar 0
AnchorPoint: "Anchor-2" 300 0 basechar 0
LayerCount: 2
Fore
SplineSet
125.5 52.5 m 128,-1,1
 56 105 56 105 56 204 c 0,2,3
 56 304 56 304 123.5 360.5 c 128,-1,4
 191 417 191 417 307 417 c 2,5,-1
 430 417 l 1,6,-1
 430 687 l 1,7,-1
 494 687 l 1,8,-1
 494 0 l 1,9,-1
 304 0 l 2,10,0
 195 0 195 0 125.5 52.5 c 128,-1,1
430 56 m 1,11,-1
 430 362 l 1,12,-1
 303 362 l 2,13,14
 219 362 219 362 172.5 323.5 c 128,-1,15
 126 285 126 285 126 204 c 0,16,17
 126 125 126 125 173.5 90.5 c 128,-1,18
 221 56 221 56 301 56 c 2,19,-1
 430 56 l 1,11,-1
EndSplineSet
EndChar

StartChar: uni0502
Encoding: 1282 1282 403
Width: 600
GlyphClass: 2
Flags: W
AnchorPoint: "Anchor-3" 300 687 basechar 0
AnchorPoint: "Anchor-2" 300 0 basechar 0
LayerCount: 2
Fore
SplineSet
586 252 m 0,1,2
 586 162 586 162 564 102.5 c 128,-1,3
 542 43 542 43 505.5 15 c 128,-1,4
 469 -13 469 -13 425 -13 c 256,5,6
 381 -13 381 -13 348.5 9 c 128,-1,7
 316 31 316 31 300 73 c 1,8,9
 255 -14 255 -14 163 -14 c 0,10,11
 121 -14 121 -14 86 8.5 c 128,-1,12
 51 31 51 31 30 76 c 128,-1,13
 9 121 9 121 9 185 c 0,14,15
 9 299 9 299 65 360 c 128,-1,16
 121 421 121 421 237 421 c 2,17,-1
 286 421 l 1,18,-1
 286 687 l 1,19,-1
 362 687 l 1,20,-1
 362 159 l 2,21,22
 362 104 362 104 378 75 c 128,-1,23
 394 46 394 46 425 46 c 0,24,25
 463 46 463 46 487 92 c 128,-1,26
 511 138 511 138 511 249 c 0,27,28
 511 304 511 304 506 376 c 1,29,-1
 581 376 l 1,30,0
 586 311 586 311 586 252 c 0,1,2
237 70.5 m 128,-1,32
 262 95 262 95 286 146 c 1,33,-1
 286 364 l 1,34,-1
 233 364 l 2,35,36
 163 364 163 364 123.5 319 c 128,-1,37
 84 274 84 274 84 184 c 0,38,39
 84 113 84 113 109.5 79.5 c 128,-1,40
 135 46 135 46 176 46 c 0,41,31
 212 46 212 46 237 70.5 c 128,-1,32
EndSplineSet
EndChar

StartChar: uni0504
Encoding: 1284 1284 404
Width: 600
GlyphClass: 2
Flags: W
AnchorPoint: "Anchor-3" 300 687 basechar 0
AnchorPoint: "Anchor-2" 300 0 basechar 0
LayerCount: 2
Fore
SplineSet
572 255 m 0,1,2
 572 120 572 120 525 55 c 128,-1,3
 478 -10 478 -10 401 -10 c 0,4,5
 342 -10 342 -10 302 23.5 c 128,-1,6
 262 57 262 57 228 130 c 2,7,-1
 147 301 l 1,8,-1
 139 300 l 1,9,-1
 147 302 l 1,10,-1
 146 304 l 1,11,-1
 60 304 l 1,12,-1
 60 360 l 1,13,-1
 131 360 l 2,14,15
 214 360 214 360 257.5 393 c 128,-1,16
 301 426 301 426 301 499 c 0,17,18
 301 569 301 569 258 600 c 128,-1,19
 215 631 215 631 118 631 c 2,20,-1
 28 631 l 1,21,-1
 28 687 l 1,22,-1
 119 687 l 2,23,24
 242 687 242 687 306.5 638.5 c 128,-1,25
 371 590 371 590 371 499 c 0,26,27
 371 425 371 425 333.5 380.5 c 128,-1,28
 296 336 296 336 215 314 c 1,29,-1
 285 152 l 2,30,31
 313 91 313 91 338.5 66.5 c 128,-1,32
 364 42 364 42 402 42 c 0,33,34
 506 42 506 42 506 255 c 0,35,36
 506 310 506 310 501 380 c 1,37,-1
 568 380 l 1,38,0
 572 302 572 302 572 255 c 0,1,2
EndSplineSet
EndChar

StartChar: uni0506
Encoding: 1286 1286 405
Width: 600
GlyphClass: 2
Flags: W
AnchorPoint: "Anchor-3" 300 687 basechar 0
AnchorPoint: "Anchor-2" 300 -193 basechar 0
LayerCount: 2
Fore
SplineSet
551 58 m 1,0,-1
 551 -139 l 1,1,-1
 499 -139 l 1,2,-1
 487 0 l 1,3,-1
 455 0 l 1,4,-1
 255 304 l 1,5,-1
 106 304 l 1,6,-1
 106 359 l 1,7,-1
 260 359 l 2,8,9
 344 359 344 359 387 392 c 128,-1,10
 430 425 430 425 430 499 c 0,11,12
 430 569 430 569 389.5 600.5 c 128,-1,13
 349 632 349 632 262 632 c 2,14,-1
 77 632 l 1,15,-1
 77 687 l 1,16,-1
 249 687 l 2,17,18
 373 687 373 687 436.5 639 c 128,-1,19
 500 591 500 591 500 499 c 0,20,21
 500 424 500 424 451.5 375 c 128,-1,22
 403 326 403 326 324 309 c 1,23,-1
 495 58 l 1,24,-1
 551 58 l 1,0,-1
EndSplineSet
EndChar

StartChar: uni0508
Encoding: 1288 1288 406
Width: 600
GlyphClass: 2
Flags: W
AnchorPoint: "Anchor-3" 300 687 basechar 0
AnchorPoint: "Anchor-2" 300 0 basechar 0
LayerCount: 2
Fore
SplineSet
584 252 m 0,1,2
 584 162 584 162 562 102.5 c 128,-1,3
 540 43 540 43 503.5 15 c 128,-1,4
 467 -13 467 -13 422 -13 c 0,5,6
 361 -13 361 -13 322.5 31.5 c 128,-1,7
 284 76 284 76 284 161 c 2,8,-1
 284 625 l 1,9,-1
 177 625 l 1,10,-1
 156 356 l 2,11,12
 146 225 146 225 132.5 156.5 c 128,-1,13
 119 88 119 88 103 58.5 c 128,-1,14
 87 29 87 29 56 -8 c 1,15,-1
 8 42 l 1,16,17
 27 64 27 64 37.5 89 c 128,-1,18
 48 114 48 114 58.5 178 c 128,-1,19
 69 242 69 242 80 369 c 2,20,-1
 107 687 l 1,21,-1
 359 687 l 1,22,-1
 359 159 l 2,23,24
 359 105 359 105 375.5 75.5 c 128,-1,25
 392 46 392 46 423 46 c 0,26,27
 461 46 461 46 484.5 92 c 128,-1,28
 508 138 508 138 508 249 c 0,29,30
 508 304 508 304 503 376 c 1,31,-1
 579 376 l 1,32,0
 584 311 584 311 584 252 c 0,1,2
EndSplineSet
EndChar

StartChar: uni050A
Encoding: 1290 1290 407
Width: 600
GlyphClass: 2
Flags: W
AnchorPoint: "Anchor-3" 300 687 basechar 0
AnchorPoint: "Anchor-2" 300 0 basechar 0
LayerCount: 2
Fore
SplineSet
589 252 m 0,1,2
 589 162 589 162 567 102.5 c 128,-1,3
 545 43 545 43 509.5 15 c 128,-1,4
 474 -13 474 -13 431 -13 c 0,5,6
 370 -13 370 -13 333 31 c 128,-1,7
 296 75 296 75 296 161 c 2,8,-1
 296 338 l 1,9,-1
 127 338 l 1,10,-1
 127 0 l 1,11,-1
 55 0 l 1,12,-1
 55 687 l 1,13,-1
 127 687 l 1,14,-1
 127 397 l 1,15,-1
 296 397 l 1,16,-1
 296 687 l 1,17,-1
 368 687 l 1,18,-1
 368 159 l 2,19,20
 368 104 368 104 384 75 c 128,-1,21
 400 46 400 46 432 46 c 0,22,23
 469 46 469 46 493 92.5 c 128,-1,24
 517 139 517 139 517 249 c 0,25,26
 517 304 517 304 512 376 c 1,27,-1
 585 376 l 1,28,0
 589 298 589 298 589 252 c 0,1,2
EndSplineSet
EndChar

StartChar: uni050E
Encoding: 1294 1294 409
Width: 600
GlyphClass: 2
Flags: W
AnchorPoint: "Anchor-3" 300 687 basechar 0
AnchorPoint: "Anchor-2" 300 0 basechar 0
LayerCount: 2
Fore
SplineSet
564 259 m 0,1,2
 564 169 564 169 532 108 c 128,-1,3
 500 47 500 47 452 18.5 c 128,-1,4
 404 -10 404 -10 356 -10 c 0,5,6
 314 -10 314 -10 279 10 c 128,-1,7
 244 30 244 30 223 70 c 128,-1,8
 202 110 202 110 202 165 c 2,9,-1
 202 625 l 1,10,-1
 16 625 l 1,11,-1
 16 687 l 1,12,-1
 480 687 l 1,13,-1
 473 625 l 1,14,-1
 266 625 l 1,15,-1
 266 195 l 2,16,17
 266 45 266 45 360 45 c 0,18,19
 420 45 420 45 460 93 c 128,-1,20
 500 141 500 141 500 259 c 0,21,22
 500 307 500 307 495 379 c 1,23,-1
 560 379 l 1,24,0
 564 301 564 301 564 259 c 0,1,2
EndSplineSet
EndChar

StartChar: uni0510
Encoding: 1296 1296 410
Width: 600
Flags: W
LayerCount: 2
Fore
SplineSet
544 612 m 1,1,-1
 505 570 l 1,2,3
 460 605 460 605 417 622.5 c 128,-1,4
 374 640 374 640 317 640 c 0,5,6
 247 640 247 640 202.5 609.5 c 128,-1,7
 158 579 158 579 158 521 c 0,8,9
 158 460 158 460 203.5 430 c 128,-1,10
 249 400 249 400 316 400 c 2,11,-1
 433 400 l 1,12,-1
 426 340 l 1,13,-1
 308 340 l 2,14,15
 232 340 232 340 185 305.5 c 128,-1,16
 138 271 138 271 138 199 c 0,17,18
 138 129 138 129 185.5 89 c 128,-1,19
 233 49 233 49 320 49 c 0,20,21
 424 49 424 49 514 125 c 1,22,-1
 557 88 l 1,23,24
 514 41 514 41 451 15.5 c 128,-1,25
 388 -10 388 -10 317 -10 c 0,26,27
 241 -10 241 -10 184 17.5 c 128,-1,28
 127 45 127 45 96.5 92.5 c 128,-1,29
 66 140 66 140 66 200 c 0,30,31
 66 252 66 252 89 290.5 c 128,-1,32
 112 329 112 329 149 350 c 128,-1,33
 186 371 186 371 228 376 c 1,34,35
 171 384 171 384 130.5 422.5 c 128,-1,36
 90 461 90 461 90 517 c 0,37,38
 90 570 90 570 119 611 c 128,-1,39
 148 652 148 652 200 674.5 c 128,-1,40
 252 697 252 697 319 697 c 0,41,0
 442 697 442 697 544 612 c 1,1,-1
EndSplineSet
EndChar

StartChar: uni0512
Encoding: 1298 1298 411
Width: 600
GlyphClass: 2
Flags: W
AnchorPoint: "Anchor-3" 300 687 basechar 0
AnchorPoint: "Anchor-2" 300 0 basechar 0
LayerCount: 2
Fore
SplineSet
507 687 m 1,0,-1
 507 -71 l 2,1,2
 507 -138 507 -138 472.5 -172.5 c 128,-1,3
 438 -207 438 -207 379 -207 c 0,4,5
 345 -207 345 -207 318 -197 c 128,-1,6
 291 -187 291 -187 273 -172 c 1,7,-1
 298 -125 l 1,8,9
 320 -139 320 -139 336.5 -145 c 128,-1,10
 353 -151 353 -151 378 -151 c 0,11,12
 410 -151 410 -151 426.5 -131.5 c 128,-1,13
 443 -112 443 -112 443 -74 c 2,14,-1
 443 1 l 1,15,-1
 444 1 l 1,16,-1
 444 628 l 1,17,-1
 236 628 l 1,18,-1
 207 396 l 2,19,20
 187 245 187 245 166.5 169 c 128,-1,21
 146 93 146 93 122.5 60.5 c 128,-1,22
 99 28 99 28 53 -8 c 1,23,-1
 23 43 l 1,24,25
 50 67 50 67 66 90.5 c 128,-1,26
 82 114 82 114 100 177 c 128,-1,27
 118 240 118 240 136 360 c 2,28,-1
 180 687 l 1,29,-1
 507 687 l 1,0,-1
EndSplineSet
EndChar

StartChar: uni0514
Encoding: 1300 1300 412
Width: 600
GlyphClass: 2
Flags: W
AnchorPoint: "Anchor-3" 300 687 basechar 0
AnchorPoint: "Anchor-2" 300 0 basechar 0
LayerCount: 2
Fore
SplineSet
609 0 m 1,0,-1
 533 0 l 1,1,-1
 393 316 l 1,2,-1
 261 0 l 1,3,-1
 190 0 l 1,4,-1
 359 368 l 1,5,-1
 238 620 l 1,6,-1
 185 620 l 1,7,-1
 180 625 l 1,8,-1
 159 356 l 2,9,10
 149 225 149 225 135.5 156.5 c 128,-1,11
 122 88 122 88 106 58.5 c 128,-1,12
 90 29 90 29 59 -8 c 1,13,-1
 11 42 l 1,14,15
 30 64 30 64 40.5 89 c 128,-1,16
 51 114 51 114 61.5 178 c 128,-1,17
 72 242 72 242 83 369 c 2,18,-1
 110 687 l 1,19,-1
 156 646 l 1,20,-1
 111 687 l 1,21,-1
 282 687 l 1,22,-1
 402 416 l 1,23,-1
 517 687 l 1,24,-1
 587 687 l 1,25,-1
 441 366 l 1,26,-1
 609 0 l 1,0,-1
EndSplineSet
EndChar

StartChar: uni0516
Encoding: 1302 1302 413
Width: 600
GlyphClass: 2
Flags: W
AnchorPoint: "Anchor-3" 300 687 basechar 0
AnchorPoint: "Anchor-2" 300 0 basechar 0
LayerCount: 2
Fore
SplineSet
395 349 m 1,0,-1
 583 0 l 1,1,-1
 507 0 l 1,2,-1
 330 327 l 1,3,4
 299 296 299 296 257 279.5 c 128,-1,5
 215 263 215 263 167 263 c 2,6,-1
 130 263 l 1,7,-1
 130 0 l 1,8,-1
 64 0 l 1,9,-1
 64 687 l 1,10,-1
 171 687 l 2,11,12
 238 687 238 687 287 660 c 128,-1,13
 336 633 336 633 362 586 c 128,-1,14
 388 539 388 539 388 480 c 0,15,16
 388 470 388 470 386 450 c 1,17,-1
 511 687 l 1,18,-1
 584 687 l 1,19,-1
 395 349 l 1,0,-1
279 357.5 m 128,-1,21
 321 394 321 394 321 479 c 0,22,23
 321 553 321 553 281.5 591.5 c 128,-1,24
 242 630 242 630 173 630 c 2,25,-1
 130 630 l 1,26,-1
 130 321 l 1,27,-1
 167 321 l 2,28,20
 237 321 237 321 279 357.5 c 128,-1,21
EndSplineSet
EndChar

StartChar: uni0518
Encoding: 1304 1304 414
Width: 600
GlyphClass: 2
Flags: W
AnchorPoint: "Anchor-3" 300 687 basechar 0
AnchorPoint: "Anchor-2" 300 0 basechar 0
LayerCount: 2
Fore
SplineSet
598 57 m 1,0,-1
 598 0 l 1,1,-1
 300 0 l 1,2,-1
 300 285 l 1,3,-1
 218 285 l 1,4,-1
 92 0 l 1,5,-1
 11 0 l 1,6,-1
 148 301 l 1,7,8
 83 326 83 326 51.5 374 c 128,-1,9
 20 422 20 422 20 487 c 0,10,11
 20 580 20 580 83 633.5 c 128,-1,12
 146 687 146 687 263 687 c 2,13,-1
 586 687 l 1,14,-1
 578 628 l 1,15,-1
 373 628 l 1,16,-1
 373 379 l 1,17,-1
 533 379 l 1,18,-1
 533 319 l 1,19,-1
 373 319 l 1,20,-1
 373 57 l 1,21,-1
 598 57 l 1,0,-1
300 630 m 1,22,-1
 251 630 l 2,23,24
 178 630 178 630 138 593.5 c 128,-1,25
 98 557 98 557 98 488 c 0,26,27
 98 416 98 416 133.5 380 c 128,-1,28
 169 344 169 344 229 344 c 2,29,-1
 300 344 l 1,30,-1
 300 630 l 1,22,-1
EndSplineSet
EndChar

StartChar: uni051E
Encoding: 1310 1310 417
Width: 600
GlyphClass: 2
Flags: W
AnchorPoint: "Anchor-3" 311 687 basechar 0
AnchorPoint: "Anchor-2" 293 0 basechar 0
LayerCount: 2
Fore
SplineSet
306 360 m 1,0,-1
 573 0 l 1,1,-1
 490 0 l 1,2,-1
 249 333 l 1,3,-1
 164 333 l 1,4,-1
 164 0 l 1,5,-1
 100 0 l 1,6,-1
 100 687 l 1,7,-1
 164 687 l 1,8,-1
 164 392 l 1,9,-1
 251 392 l 1,10,-1
 350 520 l 1,11,-1
 223 610 l 1,12,-1
 260 658 l 1,13,-1
 387 567 l 1,14,-1
 480 687 l 1,15,-1
 554 687 l 1,16,-1
 436 532 l 1,17,-1
 547 453 l 1,18,-1
 510 406 l 1,19,-1
 400 484 l 1,20,-1
 306 360 l 1,0,-1
EndSplineSet
EndChar

StartChar: uni0520
Encoding: 1312 1312 418
Width: 600
GlyphClass: 2
Flags: W
AnchorPoint: "Anchor-3" 300 687 basechar 0
AnchorPoint: "Anchor-2" 300 -193 basechar 0
LayerCount: 2
Fore
SplineSet
545.5 407 m 128,-1,1
 584 366 584 366 584 303 c 2,2,-1
 584 -62 l 2,3,4
 584 -134 584 -134 545 -170.5 c 128,-1,5
 506 -207 506 -207 442 -207 c 0,6,7
 409 -207 409 -207 381 -196.5 c 128,-1,8
 353 -186 353 -186 335 -172 c 1,9,-1
 363 -119 l 1,10,11
 385 -132 385 -132 401 -137.5 c 128,-1,12
 417 -143 417 -143 442 -143 c 0,13,14
 507 -143 507 -143 507 -66 c 2,15,-1
 507 294 l 2,16,17
 507 381 507 381 440 381 c 0,18,19
 416 381 416 381 394 371.5 c 128,-1,20
 372 362 372 362 347 340 c 1,21,-1
 347 0 l 1,22,-1
 272 0 l 1,23,-1
 272 625 l 1,24,-1
 165 625 l 1,25,-1
 145 356 l 2,26,27
 135 225 135 225 121 156.5 c 128,-1,28
 107 88 107 88 91 58 c 128,-1,29
 75 28 75 28 44 -8 c 1,30,-1
 -4 42 l 1,31,32
 15 63 15 63 25.5 88.5 c 128,-1,33
 36 114 36 114 46.5 178 c 128,-1,34
 57 242 57 242 68 369 c 2,35,-1
 95 687 l 1,36,-1
 347 687 l 1,37,-1
 347 405 l 1,38,39
 368 427 368 427 391 437.5 c 128,-1,40
 414 448 414 448 444 448 c 0,41,0
 507 448 507 448 545.5 407 c 128,-1,1
EndSplineSet
EndChar

StartChar: uni0522
Encoding: 1314 1314 419
Width: 600
GlyphClass: 2
Flags: W
AnchorPoint: "Anchor-3" 300 687 basechar 0
AnchorPoint: "Anchor-2" 300 -193 basechar 0
LayerCount: 2
Fore
SplineSet
556 405 m 128,-1,1
 597 362 597 362 597 289 c 2,2,-1
 597 -62 l 2,3,4
 597 -133 597 -133 559 -170 c 128,-1,5
 521 -207 521 -207 459 -207 c 0,6,7
 426 -207 426 -207 398.5 -196.5 c 128,-1,8
 371 -186 371 -186 353 -172 c 1,9,-1
 380 -121 l 1,10,11
 402 -134 402 -134 417.5 -139.5 c 128,-1,12
 433 -145 433 -145 458 -145 c 0,13,14
 523 -145 523 -145 523 -68 c 2,15,-1
 523 294 l 2,16,17
 523 381 523 381 443 381 c 0,18,19
 416 381 416 381 391 371 c 128,-1,20
 366 361 366 361 340 338 c 1,21,-1
 340 0 l 1,22,-1
 268 0 l 1,23,-1
 268 338 l 1,24,-1
 99 338 l 1,25,-1
 99 0 l 1,26,-1
 27 0 l 1,27,-1
 27 687 l 1,28,-1
 99 687 l 1,29,-1
 99 397 l 1,30,-1
 268 397 l 1,31,-1
 268 687 l 1,32,-1
 340 687 l 1,33,-1
 340 405 l 1,34,35
 385 448 385 448 446 448 c 0,36,0
 515 448 515 448 556 405 c 128,-1,1
EndSplineSet
EndChar

StartChar: uni048C
Encoding: 1164 1164 420
Width: 600
GlyphClass: 2
Flags: W
AnchorPoint: "Anchor-3" 300 687 basechar 0
AnchorPoint: "Anchor-2" 300 0 basechar 0
LayerCount: 2
Fore
SplineSet
499.5 372 m 128,-1,1
 566 320 566 320 566 218 c 0,2,3
 566 106 566 106 494 53 c 128,-1,4
 422 0 422 0 296 0 c 2,5,-1
 137 0 l 1,6,-1
 137 534 l 1,7,-1
 30 534 l 1,8,-1
 30 589 l 1,9,-1
 137 589 l 1,10,-1
 137 687 l 1,11,-1
 201 687 l 1,12,-1
 201 589 l 1,13,-1
 335 589 l 1,14,-1
 335 534 l 1,15,-1
 201 534 l 1,16,-1
 201 424 l 1,17,-1
 315 424 l 2,18,0
 433 424 433 424 499.5 372 c 128,-1,1
448 91 m 128,-1,20
 496 126 496 126 496 216 c 0,21,22
 496 299 496 299 451 334 c 128,-1,23
 406 369 406 369 319 369 c 2,24,-1
 201 369 l 1,25,-1
 201 56 l 1,26,-1
 312 56 l 2,27,19
 400 56 400 56 448 91 c 128,-1,20
EndSplineSet
EndChar

StartChar: uni048E
Encoding: 1166 1166 421
Width: 600
GlyphClass: 2
Flags: W
AnchorPoint: "Anchor-3" 300 687 basechar 0
AnchorPoint: "Anchor-2" 300 0 basechar 0
LayerCount: 2
Fore
SplineSet
485 168 m 1,0,-1
 415 283 l 1,1,2
 358 263 358 263 288 263 c 2,3,-1
 195 263 l 1,4,-1
 195 0 l 1,5,-1
 132 0 l 1,6,-1
 132 687 l 1,7,-1
 294 687 l 2,8,9
 416 687 416 687 483.5 635 c 128,-1,10
 551 583 551 583 551 477 c 0,11,12
 551 424 551 424 531.5 383 c 128,-1,13
 512 342 512 342 475 314 c 1,14,-1
 564 168 l 1,15,-1
 485 168 l 1,0,-1
386 330 m 1,17,-1
 295 479 l 1,18,-1
 374 479 l 1,19,-1
 444 365 l 1,20,21
 477 403 477 403 477 476 c 0,22,23
 477 560 477 560 430 596.5 c 128,-1,24
 383 633 383 633 304 633 c 2,25,-1
 195 633 l 1,26,-1
 195 318 l 1,27,-1
 297 318 l 2,28,16
 350 318 350 318 386 330 c 1,17,-1
EndSplineSet
EndChar

StartChar: uni0431
Encoding: 1073 1073 423
Width: 600
GlyphClass: 2
Flags: W
AnchorPoint: "Anchor-3" 300 738 basechar 0
AnchorPoint: "Anchor-2" 300 0 basechar 0
LayerCount: 2
Fore
SplineSet
463.5 426 m 128,-1,1
 514 363 514 363 514 254 c 0,2,3
 514 171 514 171 487 111.5 c 128,-1,4
 460 52 460 52 411.5 21 c 128,-1,5
 363 -10 363 -10 299 -10 c 0,6,7
 239 -10 239 -10 190.5 22 c 128,-1,8
 142 54 142 54 113.5 120.5 c 128,-1,9
 85 187 85 187 85 286 c 0,10,11
 85 400 85 400 101 474 c 128,-1,12
 117 548 117 548 157.5 596 c 128,-1,13
 198 644 198 644 271 671 c 0,14,15
 333 694 333 694 365.5 709 c 128,-1,16
 398 724 398 724 429 747 c 1,17,-1
 459 693 l 1,18,19
 386 648 386 648 306 617 c 0,20,21
 259 600 259 600 230.5 577.5 c 128,-1,22
 202 555 202 555 183 512 c 128,-1,23
 164 469 164 469 156 395 c 1,24,-1
 157 396 l 1,25,-1
 157 388 l 1,26,27
 183 434 183 434 227 461.5 c 128,-1,28
 271 489 271 489 326 489 c 0,29,0
 413 489 413 489 463.5 426 c 128,-1,1
403 92 m 128,-1,31
 441 137 441 137 441 250 c 0,32,33
 441 433 441 433 323 433 c 0,34,35
 273 433 273 433 229.5 406 c 128,-1,36
 186 379 186 379 157 314 c 1,37,-1
 157 253 l 2,38,39
 157 156 157 156 195.5 101.5 c 128,-1,40
 234 47 234 47 299 47 c 0,41,30
 365 47 365 47 403 92 c 128,-1,31
EndSplineSet
EndChar

StartChar: uni0432
Encoding: 1074 1074 424
Width: 600
Flags: W
LayerCount: 2
Fore
SplineSet
491.5 246.5 m 128,-1,1
 524 215 524 215 524 154 c 0,2,3
 524 78 524 78 460.5 39 c 128,-1,4
 397 0 397 0 305 0 c 2,5,-1
 121 0 l 1,6,-1
 121 517 l 1,7,8
 209 535 209 535 288 535 c 0,9,10
 386 535 386 535 441 499 c 128,-1,11
 496 463 496 463 496 398 c 0,12,13
 496 355 496 355 473.5 326.5 c 128,-1,14
 451 298 451 298 391 283 c 1,15,0
 459 278 459 278 491.5 246.5 c 128,-1,1
183 470 m 1,17,-1
 183 308 l 1,18,-1
 304 308 l 2,19,20
 365 308 365 308 397 327.5 c 128,-1,21
 429 347 429 347 429 395 c 0,22,23
 429 440 429 440 395.5 458.5 c 128,-1,24
 362 477 362 477 290 477 c 0,25,16
 233 477 233 477 183 470 c 1,17,-1
371 61.5 m 128,-1,27
 405 66 405 66 430.5 86.5 c 128,-1,28
 456 107 456 107 456 150 c 0,29,30
 456 208 456 208 414.5 227.5 c 128,-1,31
 373 247 373 247 309 247 c 2,32,-1
 183 247 l 1,33,-1
 183 57 l 1,34,-1
 286 57 l 2,35,26
 337 57 337 57 371 61.5 c 128,-1,27
EndSplineSet
EndChar

StartChar: uni0433
Encoding: 1075 1075 425
Width: 600
GlyphClass: 2
Flags: W
AnchorPoint: "Anchor-3" 341 525 basechar 0
AnchorPoint: "Anchor-2" 200 0 basechar 0
LayerCount: 2
Fore
SplineSet
231 0 m 1,0,-1
 169 0 l 1,1,-1
 169 525 l 1,2,-1
 520 525 l 1,3,-1
 512 470 l 1,4,-1
 231 470 l 1,5,-1
 231 0 l 1,0,-1
EndSplineSet
EndChar

StartChar: uni0491
Encoding: 1169 1169 427
Width: 600
GlyphClass: 2
Flags: W
AnchorPoint: "Anchor-3" 341 525 basechar 0
AnchorPoint: "Anchor-2" 200 0 basechar 0
LayerCount: 2
Fore
SplineSet
452 652 m 1,0,-1
 520 652 l 1,1,-1
 520 525 l 1,2,-1
 512 470 l 1,3,-1
 231 470 l 1,4,-1
 231 0 l 1,5,-1
 169 0 l 1,6,-1
 169 525 l 1,7,-1
 452 525 l 1,8,-1
 452 652 l 1,0,-1
EndSplineSet
EndChar

StartChar: uni0434
Encoding: 1076 1076 428
Width: 600
GlyphClass: 2
Flags: W
AnchorPoint: "Anchor-3" 300 525 basechar 0
AnchorPoint: "Anchor-2" 300 -193 basechar 0
LayerCount: 2
Fore
SplineSet
523 55 m 1,0,-1
 523 -139 l 1,1,-1
 468 -139 l 1,2,-1
 456 0 l 1,3,-1
 98 0 l 1,4,-1
 86 -139 l 1,5,-1
 31 -139 l 1,6,-1
 31 55 l 1,7,-1
 64 55 l 1,8,9
 91 77 91 77 107 109 c 128,-1,10
 123 141 123 141 134 198.5 c 128,-1,11
 145 256 145 256 152 355 c 2,12,-1
 163 525 l 1,13,-1
 488 525 l 1,14,-1
 488 55 l 1,15,-1
 523 55 l 1,0,-1
422 469 m 1,16,-1
 220 469 l 1,17,-1
 213 361 l 2,18,19
 206 256 206 256 196 199 c 128,-1,20
 186 142 186 142 168.5 110 c 128,-1,21
 151 78 151 78 118 55 c 1,22,-1
 422 55 l 1,23,-1
 422 469 l 1,16,-1
EndSplineSet
EndChar

StartChar: uni0435
Encoding: 1077 1077 429
Width: 600
GlyphClass: 2
Flags: W
AnchorPoint: "Anchor-3" 311 525 basechar 0
AnchorPoint: "Anchor-2" 300 0 basechar 0
LayerCount: 2
Fore
SplineSet
202 95.5 m 128,-1,1
 248 47 248 47 316 47 c 0,2,3
 356 47 356 47 388 58.5 c 128,-1,4
 420 70 420 70 458 95 c 1,5,-1
 490 49 l 1,6,7
 454 21 454 21 408.5 5.5 c 128,-1,8
 363 -10 363 -10 319 -10 c 0,9,10
 248 -10 248 -10 195.5 24 c 128,-1,11
 143 58 143 58 115.5 119.5 c 128,-1,12
 88 181 88 181 88 262 c 0,13,14
 88 341 88 341 115.5 403 c 128,-1,15
 143 465 143 465 193.5 500 c 128,-1,16
 244 535 244 535 309 535 c 0,17,18
 405 535 405 535 459 466.5 c 128,-1,19
 513 398 513 398 513 280 c 2,20,-1
 512 238 l 1,21,-1
 155 238 l 1,22,0
 156 144 156 144 202 95.5 c 128,-1,1
203 430 m 128,-1,24
 161 383 161 383 156 293 c 1,25,-1
 454 293 l 1,26,27
 452 384 452 384 413.5 430.5 c 128,-1,28
 375 477 375 477 311 477 c 0,29,23
 245 477 245 477 203 430 c 128,-1,24
EndSplineSet
EndChar

StartChar: uni0436
Encoding: 1078 1078 432
Width: 600
GlyphClass: 2
Flags: W
AnchorPoint: "Anchor-3" 300 525 basechar 0
AnchorPoint: "Anchor-2" 300 0 basechar 0
LayerCount: 2
Fore
SplineSet
268 0 m 1,0,-1
 268 251 l 1,1,-1
 202 251 l 1,2,-1
 92 0 l 1,3,-1
 27 0 l 1,4,-1
 149 282 l 1,5,-1
 39 525 l 1,6,-1
 109 525 l 1,7,-1
 203 310 l 1,8,-1
 268 310 l 1,9,-1
 268 525 l 1,10,-1
 332 525 l 1,11,-1
 332 310 l 1,12,-1
 397 310 l 1,13,-1
 494 525 l 1,14,-1
 561 525 l 1,15,-1
 450 282 l 1,16,-1
 572 0 l 1,17,-1
 503 0 l 1,18,-1
 395 251 l 1,19,-1
 332 251 l 1,20,-1
 332 0 l 1,21,-1
 268 0 l 1,0,-1
EndSplineSet
EndChar

StartChar: uni0437
Encoding: 1079 1079 433
Width: 600
GlyphClass: 2
Flags: W
AnchorPoint: "Anchor-3" 296 527 basechar 0
AnchorPoint: "Anchor-2" 302 0 basechar 0
LayerCount: 2
Fore
SplineSet
293 305 m 2,0,1
 349 305 349 305 382 328.5 c 128,-1,2
 415 352 415 352 415 390 c 0,3,4
 415 480 415 480 280 480 c 0,5,6
 240 480 240 480 195.5 467 c 128,-1,7
 151 454 151 454 114 431 c 1,8,-1
 82 471 l 1,9,10
 120 500 120 500 174 517.5 c 128,-1,11
 228 535 228 535 281 535 c 0,12,13
 368 535 368 535 424.5 498 c 128,-1,14
 481 461 481 461 481 392 c 0,15,16
 481 351 481 351 453.5 323 c 128,-1,17
 426 295 426 295 381 281 c 1,18,19
 407 282 407 282 438 267 c 128,-1,20
 469 252 469 252 490 223.5 c 128,-1,21
 511 195 511 195 511 158 c 0,22,23
 511 78 511 78 447 34 c 128,-1,24
 383 -10 383 -10 281 -10 c 0,25,26
 152 -10 152 -10 62 65 c 1,27,-1
 94 108 l 1,28,29
 174 47 174 47 285 47 c 0,30,31
 361 47 361 47 401.5 75.5 c 128,-1,32
 442 104 442 104 442 153 c 0,33,34
 442 247 442 247 297 247 c 2,35,-1
 194 247 l 1,36,-1
 198 305 l 1,37,-1
 293 305 l 2,0,1
EndSplineSet
EndChar

StartChar: uni0438
Encoding: 1080 1080 434
Width: 600
GlyphClass: 2
Flags: W
AnchorPoint: "Anchor-3" 300 525 basechar 0
AnchorPoint: "Anchor-2" 300 0 basechar 0
LayerCount: 2
Fore
SplineSet
491 0 m 1,0,-1
 426 0 l 1,1,-1
 426 269 l 2,2,3
 426 335 426 335 430 397 c 0,4,5
 430 404 430 404 431 422 c 128,-1,6
 432 440 432 440 430 437 c 2,7,-1
 194 0 l 1,8,-1
 109 0 l 1,9,-1
 109 525 l 1,10,-1
 174 525 l 1,11,-1
 174 257 l 2,12,13
 174 196 174 196 171 151 c 2,14,-1
 170 104 l 2,15,16
 170 98 170 98 170.5 94.5 c 128,-1,17
 171 91 171 91 172 93 c 2,18,-1
 404 525 l 1,19,-1
 491 525 l 1,20,-1
 491 0 l 1,0,-1
EndSplineSet
EndChar

StartChar: uni048B
Encoding: 1163 1163 437
Width: 600
Flags: W
LayerCount: 2
Fore
SplineSet
192.5 681.5 m 128,-1,1
 153 706 153 706 147 757 c 1,2,-1
 196 769 l 1,3,4
 208 736 208 736 229 722.5 c 128,-1,5
 250 709 250 709 287 709 c 256,6,7
 324 709 324 709 347 722.5 c 128,-1,8
 370 736 370 736 382 769 c 1,9,-1
 431 757 l 1,10,11
 425 706 425 706 384 681.5 c 128,-1,12
 343 657 343 657 287 657 c 0,13,0
 232 657 232 657 192.5 681.5 c 128,-1,1
547 44 m 1,14,-1
 490 -139 l 1,15,-1
 440 -139 l 1,16,-1
 472 0 l 1,17,-1
 416 0 l 1,18,-1
 416 269 l 2,19,20
 416 347 416 347 421 439 c 2,21,-1
 422 468 l 1,22,-1
 185 0 l 1,23,-1
 101 0 l 1,24,-1
 101 525 l 1,25,-1
 163 525 l 1,26,-1
 163 257 l 2,27,28
 163 200 163 200 160 144 c 128,-1,29
 157 88 157 88 153 63 c 1,30,-1
 392 525 l 1,31,-1
 477 525 l 1,32,-1
 477 44 l 1,33,-1
 547 44 l 1,14,-1
EndSplineSet
EndChar

StartChar: uni043A
Encoding: 1082 1082 438
Width: 600
GlyphClass: 2
Flags: W
AnchorPoint: "Anchor-3" 320 525 basechar 0
AnchorPoint: "Anchor-2" 300 0 basechar 0
LayerCount: 2
Fore
SplineSet
115 0 m 1,0,-1
 115 525 l 1,1,-1
 177 525 l 1,2,-1
 177 309 l 1,3,-1
 292 309 l 1,4,-1
 455 525 l 1,5,-1
 533 525 l 1,6,-1
 346 282 l 1,7,-1
 564 0 l 1,8,-1
 481 0 l 1,9,-1
 291 252 l 1,10,-1
 177 252 l 1,11,-1
 177 0 l 1,12,-1
 115 0 l 1,0,-1
EndSplineSet
EndChar

StartChar: uni043B
Encoding: 1083 1083 440
Width: 600
GlyphClass: 2
Flags: W
AnchorPoint: "Anchor-3" 300 525 basechar 0
AnchorPoint: "Anchor-2" 300 0 basechar 0
LayerCount: 2
Fore
SplineSet
505 0 m 1,0,-1
 443 0 l 1,1,-1
 443 469 l 1,2,-1
 221 469 l 1,3,-1
 206 308 l 2,4,5
 196 192 196 192 182 134 c 128,-1,6
 168 76 168 76 145.5 47.5 c 128,-1,7
 123 19 123 19 77 -8 c 1,8,-1
 50 32 l 1,9,10
 79 49 79 49 96 71 c 128,-1,11
 113 93 113 93 126 147 c 128,-1,12
 139 201 139 201 147 305 c 2,13,-1
 164 525 l 1,14,-1
 505 525 l 1,15,-1
 505 0 l 1,0,-1
EndSplineSet
EndChar

StartChar: uni043C
Encoding: 1084 1084 441
Width: 600
GlyphClass: 2
Flags: W
AnchorPoint: "Anchor-3" 300 525 basechar 0
AnchorPoint: "Anchor-2" 300 0 basechar 0
LayerCount: 2
Fore
SplineSet
551 0 m 1,0,-1
 488 0 l 1,1,-1
 464 280 l 2,2,3
 457 375 457 375 457 460 c 1,4,-1
 453 460 l 1,5,-1
 339 90 l 1,6,-1
 265 90 l 1,7,-1
 137 460 l 1,8,-1
 133 460 l 1,9,-1
 133 429 l 2,10,11
 133 366 133 366 129 284 c 2,12,-1
 111 0 l 1,13,-1
 49 0 l 1,14,-1
 87 525 l 1,15,-1
 179 525 l 1,16,-1
 303 156 l 1,17,-1
 419 525 l 1,18,-1
 512 525 l 1,19,-1
 551 0 l 1,0,-1
EndSplineSet
EndChar

StartChar: uni043D
Encoding: 1085 1085 442
Width: 600
Flags: W
LayerCount: 2
Fore
SplineSet
429 0 m 1,0,-1
 429 241 l 1,1,-1
 171 241 l 1,2,-1
 171 0 l 1,3,-1
 109 0 l 1,4,-1
 109 525 l 1,5,-1
 171 525 l 1,6,-1
 171 296 l 1,7,-1
 429 296 l 1,8,-1
 429 525 l 1,9,-1
 491 525 l 1,10,-1
 491 0 l 1,11,-1
 429 0 l 1,0,-1
EndSplineSet
EndChar

StartChar: uni043E
Encoding: 1086 1086 443
Width: 600
GlyphClass: 2
Flags: W
AnchorPoint: "Anchor-3" 300 525 basechar 0
AnchorPoint: "Anchor-2" 300 0 basechar 0
LayerCount: 2
Fore
SplineSet
462 462.5 m 128,-1,1
 517 390 517 390 517 263 c 0,2,3
 517 141 517 141 460.5 65.5 c 128,-1,4
 404 -10 404 -10 300 -10 c 0,5,6
 195 -10 195 -10 139 63.5 c 128,-1,7
 83 137 83 137 83 262 c 0,8,9
 83 386 83 386 139.5 460.5 c 128,-1,10
 196 535 196 535 301 535 c 0,11,0
 407 535 407 535 462 462.5 c 128,-1,1
151 262 m 0,13,14
 151 45 151 45 300 45 c 256,15,16
 449 45 449 45 449 263 c 0,17,18
 449 480 449 480 301 480 c 0,19,12
 151 480 151 480 151 262 c 0,13,14
EndSplineSet
EndChar

StartChar: uni043F
Encoding: 1087 1087 444
Width: 600
GlyphClass: 2
Flags: W
AnchorPoint: "Anchor-3" 300 525 basechar 0
AnchorPoint: "Anchor-2" 300 0 basechar 0
LayerCount: 2
Fore
SplineSet
428 0 m 1,0,-1
 428 471 l 1,1,-1
 172 471 l 1,2,-1
 172 0 l 1,3,-1
 109 0 l 1,4,-1
 109 525 l 1,5,-1
 491 525 l 1,6,-1
 491 0 l 1,7,-1
 428 0 l 1,0,-1
EndSplineSet
EndChar

StartChar: uni0442
Encoding: 1090 1090 447
Width: 600
GlyphClass: 2
Flags: W
AnchorPoint: "Anchor-3" 300 525 basechar 0
AnchorPoint: "Anchor-2" 300 0 basechar 0
LayerCount: 2
Fore
SplineSet
534 525 m 1,0,-1
 526 469 l 1,1,-1
 331 469 l 1,2,-1
 331 0 l 1,3,-1
 269 0 l 1,4,-1
 269 469 l 1,5,-1
 72 469 l 1,6,-1
 72 525 l 1,7,-1
 534 525 l 1,0,-1
EndSplineSet
EndChar

StartChar: uni0443
Encoding: 1091 1091 448
Width: 600
GlyphClass: 2
Flags: W
AnchorPoint: "Anchor-3" 300 525 basechar 0
AnchorPoint: "Anchor-2" 0 0 basechar 0
LayerCount: 2
Fore
SplineSet
341 -4 m 2,0,1
 310 -92 310 -92 262.5 -144.5 c 128,-1,2
 215 -197 215 -197 124 -209 c 1,3,-1
 114 -155 l 1,4,5
 167 -145 167 -145 198.5 -125 c 128,-1,6
 230 -105 230 -105 247.5 -76 c 128,-1,7
 265 -47 265 -47 280 0 c 1,8,-1
 260 0 l 1,9,-1
 72 525 l 1,10,-1
 138 525 l 1,11,-1
 304 53 l 1,12,-1
 464 525 l 1,13,-1
 528 525 l 1,14,-1
 341 -4 l 2,0,1
EndSplineSet
EndChar

StartChar: uni0444
Encoding: 1092 1092 450
Width: 600
GlyphClass: 2
Flags: W
AnchorPoint: "Anchor-3" 300 738 basechar 0
AnchorPoint: "Anchor-2" 300 -193 basechar 0
LayerCount: 2
Fore
SplineSet
333 736 m 1,0,-1
 333 480 l 1,1,2
 375 535 375 535 431 535 c 0,3,4
 504 535 504 535 535.5 464 c 128,-1,5
 567 393 567 393 567 264 c 0,6,7
 567 140 567 140 528.5 65 c 128,-1,8
 490 -10 490 -10 423 -10 c 0,9,10
 400 -10 400 -10 376.5 5 c 128,-1,11
 353 20 353 20 333 49 c 1,12,-1
 333 -199 l 1,13,-1
 268 -209 l 1,14,-1
 268 50 l 1,15,16
 248 21 248 21 223 5.5 c 128,-1,17
 198 -10 198 -10 175 -10 c 0,18,19
 108 -10 108 -10 70.5 64.5 c 128,-1,20
 33 139 33 139 33 264 c 0,21,22
 33 535 33 535 173 535 c 0,23,24
 226 535 226 535 268 482 c 1,25,-1
 268 746 l 1,26,-1
 333 736 l 1,0,-1
124.5 429 m 128,-1,28
 105 378 105 378 105 264 c 0,29,30
 105 149 105 149 124.5 97 c 128,-1,31
 144 45 144 45 184 45 c 0,32,33
 207 45 207 45 224.5 58 c 128,-1,34
 242 71 242 71 268 102 c 1,35,-1
 268 428 l 1,36,37
 242 457 242 457 225 468.5 c 128,-1,38
 208 480 208 480 184 480 c 0,39,27
 144 480 144 480 124.5 429 c 128,-1,28
374.5 467.5 m 128,-1,41
 355 455 355 455 333 427 c 1,42,-1
 333 102 l 1,43,44
 354 72 354 72 372 58.5 c 128,-1,45
 390 45 390 45 413 45 c 0,46,47
 497 45 497 45 497 264 c 0,48,49
 497 380 497 380 479 430 c 128,-1,50
 461 480 461 480 420 480 c 0,51,40
 394 480 394 480 374.5 467.5 c 128,-1,41
EndSplineSet
EndChar

StartChar: uni0447
Encoding: 1095 1095 452
Width: 600
GlyphClass: 2
Flags: W
AnchorPoint: "Anchor-3" 287 525 basechar 0
AnchorPoint: "Anchor-2" 300 0 basechar 0
LayerCount: 2
Fore
SplineSet
478 0 m 1,0,-1
 416 0 l 1,1,-1
 416 231 l 1,2,3
 385 202 385 202 340.5 185 c 128,-1,4
 296 168 296 168 247 168 c 0,5,6
 172 168 172 168 134 207.5 c 128,-1,7
 96 247 96 247 96 320 c 2,8,-1
 96 525 l 1,9,-1
 158 525 l 1,10,-1
 158 327 l 2,11,12
 158 270 158 270 181.5 245 c 128,-1,13
 205 220 205 220 257 220 c 0,14,15
 300 220 300 220 345.5 238.5 c 128,-1,16
 391 257 391 257 416 288 c 1,17,-1
 416 525 l 1,18,-1
 478 525 l 1,19,-1
 478 0 l 1,0,-1
EndSplineSet
EndChar

StartChar: uni0446
Encoding: 1094 1094 453
Width: 600
GlyphClass: 2
Flags: W
AnchorPoint: "Anchor-3" 0 0 basechar 0
AnchorPoint: "Anchor-2" 297 0 basechar 0
LayerCount: 2
Fore
SplineSet
488 55 m 1,0,-1
 572 55 l 1,1,-1
 572 -139 l 1,2,-1
 517 -139 l 1,3,-1
 505 0 l 1,4,-1
 106 0 l 1,5,-1
 106 525 l 1,6,-1
 169 525 l 1,7,-1
 169 56 l 1,8,-1
 425 56 l 1,9,-1
 425 525 l 1,10,-1
 488 525 l 1,11,-1
 488 55 l 1,0,-1
EndSplineSet
EndChar

StartChar: uni0448
Encoding: 1096 1096 454
Width: 600
GlyphClass: 2
Flags: W
AnchorPoint: "Anchor-3" 300 525 basechar 0
AnchorPoint: "Anchor-2" 300 0 basechar 0
LayerCount: 2
Fore
SplineSet
544 525 m 1,0,-1
 544 0 l 1,1,-1
 56 0 l 1,2,-1
 56 525 l 1,3,-1
 118 525 l 1,4,-1
 118 56 l 1,5,-1
 267 56 l 1,6,-1
 267 525 l 1,7,-1
 333 525 l 1,8,-1
 333 56 l 1,9,-1
 482 56 l 1,10,-1
 482 525 l 1,11,-1
 544 525 l 1,0,-1
EndSplineSet
EndChar

StartChar: uni0449
Encoding: 1097 1097 455
Width: 600
GlyphClass: 2
Flags: W
AnchorPoint: "Anchor-3" 300 525 basechar 0
AnchorPoint: "Anchor-2" 300 0 basechar 0
LayerCount: 2
Fore
SplineSet
544 55 m 1,0,-1
 621 55 l 1,1,-1
 621 -139 l 1,2,-1
 566 -139 l 1,3,-1
 554 0 l 1,4,-1
 56 0 l 1,5,-1
 56 525 l 1,6,-1
 118 525 l 1,7,-1
 118 56 l 1,8,-1
 267 56 l 1,9,-1
 267 525 l 1,10,-1
 333 525 l 1,11,-1
 333 56 l 1,12,-1
 482 56 l 1,13,-1
 482 525 l 1,14,-1
 544 525 l 1,15,-1
 544 55 l 1,0,-1
EndSplineSet
EndChar

StartChar: uni045F
Encoding: 1119 1119 456
Width: 600
GlyphClass: 2
Flags: W
AnchorPoint: "Anchor-3" 0 0 basechar 0
AnchorPoint: "Anchor-2" 300 0 basechar 0
LayerCount: 2
Fore
SplineSet
491 525 m 1,0,-1
 491 0 l 1,1,-1
 334 0 l 1,2,-1
 334 -139 l 1,3,-1
 279 -139 l 1,4,-1
 267 0 l 1,5,-1
 109 0 l 1,6,-1
 109 525 l 1,7,-1
 172 525 l 1,8,-1
 172 56 l 1,9,-1
 428 56 l 1,10,-1
 428 525 l 1,11,-1
 491 525 l 1,0,-1
EndSplineSet
EndChar

StartChar: uni044C
Encoding: 1100 1100 457
Width: 600
GlyphClass: 2
Flags: W
AnchorPoint: "Anchor-3" 300 525 basechar 0
AnchorPoint: "Anchor-2" 300 0 basechar 0
LayerCount: 2
Fore
SplineSet
199 357 m 1,0,-1
 317 357 l 2,1,2
 432 357 432 357 479.5 310.5 c 128,-1,3
 527 264 527 264 527 179 c 0,4,5
 527 122 527 122 500 81.5 c 128,-1,6
 473 41 473 41 430 20.5 c 128,-1,7
 387 0 387 0 340 0 c 2,8,-1
 137 0 l 1,9,-1
 137 525 l 1,10,-1
 199 525 l 1,11,-1
 199 357 l 1,0,-1
199 303 m 1,12,-1
 199 55 l 1,13,-1
 327 55 l 2,14,15
 458 55 458 55 458 178 c 0,16,17
 458 242 458 242 426.5 272.5 c 128,-1,18
 395 303 395 303 315 303 c 2,19,-1
 199 303 l 1,12,-1
EndSplineSet
EndChar

StartChar: uni044A
Encoding: 1098 1098 458
Width: 600
Flags: W
LayerCount: 2
Fore
SplineSet
232 358 m 1,0,-1
 301 358 l 2,1,2
 537 358 537 358 537 183 c 0,3,4
 537 84 537 84 472.5 42 c 128,-1,5
 408 0 408 0 296 0 c 2,6,-1
 170 0 l 1,7,-1
 170 475 l 1,8,-1
 39 475 l 1,9,-1
 39 525 l 1,10,-1
 232 525 l 1,11,-1
 232 358 l 1,0,-1
232 303 m 1,12,-1
 232 55 l 1,13,-1
 311 55 l 2,14,15
 386 55 386 55 427.5 82 c 128,-1,16
 469 109 469 109 469 181 c 0,17,18
 469 246 469 246 429 274.5 c 128,-1,19
 389 303 389 303 314 303 c 2,20,-1
 232 303 l 1,12,-1
EndSplineSet
EndChar

StartChar: uni044B
Encoding: 1099 1099 459
Width: 600
GlyphClass: 2
Flags: W
AnchorPoint: "Anchor-3" 300 525 basechar 0
AnchorPoint: "Anchor-2" 300 0 basechar 0
LayerCount: 2
Fore
SplineSet
137 352 m 1,0,-1
 180 352 l 2,1,2
 285 352 285 352 343 310.5 c 128,-1,3
 401 269 401 269 401 181 c 0,4,5
 401 88 401 88 341 44 c 128,-1,6
 281 0 281 0 175 0 c 2,7,-1
 73 0 l 1,8,-1
 73 525 l 1,9,-1
 137 525 l 1,10,-1
 137 352 l 1,0,-1
527 525 m 1,11,-1
 527 0 l 1,12,-1
 462 0 l 1,13,-1
 462 525 l 1,14,-1
 527 525 l 1,11,-1
137 298 m 1,15,-1
 137 56 l 1,16,-1
 180 56 l 2,17,18
 255 56 255 56 292.5 83 c 128,-1,19
 330 110 330 110 330 180 c 0,20,21
 330 243 330 243 294.5 270.5 c 128,-1,22
 259 298 259 298 182 298 c 2,23,-1
 137 298 l 1,15,-1
EndSplineSet
EndChar

StartChar: uni0459
Encoding: 1113 1113 460
Width: 600
GlyphClass: 2
Flags: W
AnchorPoint: "Anchor-3" 300 525 basechar 0
AnchorPoint: "Anchor-2" 300 0 basechar 0
LayerCount: 2
Fore
SplineSet
358 353 m 1,0,-1
 372 353 l 2,1,2
 475 353 475 353 532 311.5 c 128,-1,3
 589 270 589 270 589 183 c 0,4,5
 589 92 589 92 531 46 c 128,-1,6
 473 0 473 0 370 0 c 2,7,-1
 290 0 l 1,8,-1
 290 470 l 1,9,-1
 170 470 l 1,10,-1
 164 321 l 2,11,12
 159 209 159 209 144 147 c 128,-1,13
 129 85 129 85 103.5 53 c 128,-1,14
 78 21 78 21 32 -8 c 1,15,-1
 7 36 l 1,16,17
 32 57 32 57 47.5 80.5 c 128,-1,18
 63 104 63 104 75.5 158.5 c 128,-1,19
 88 213 88 213 94 310 c 2,20,-1
 106 525 l 1,21,-1
 358 525 l 1,22,-1
 358 353 l 1,0,-1
358 299 m 1,23,-1
 358 57 l 1,24,-1
 380 57 l 2,25,26
 450 57 450 57 483 84 c 128,-1,27
 516 111 516 111 516 182 c 0,28,29
 516 245 516 245 483 272 c 128,-1,30
 450 299 450 299 378 299 c 2,31,-1
 358 299 l 1,23,-1
EndSplineSet
EndChar

StartChar: uni045A
Encoding: 1114 1114 461
Width: 600
GlyphClass: 2
Flags: W
AnchorPoint: "Anchor-3" 300 525 basechar 0
AnchorPoint: "Anchor-2" 300 0 basechar 0
LayerCount: 2
Fore
SplineSet
361 324 m 1,0,-1
 375 324 l 2,1,2
 479 324 479 324 535.5 286.5 c 128,-1,3
 592 249 592 249 592 163 c 0,4,5
 592 76 592 76 536 38 c 128,-1,6
 480 0 480 0 380 0 c 2,7,-1
 294 0 l 1,8,-1
 294 272 l 1,9,-1
 153 272 l 1,10,-1
 153 0 l 1,11,-1
 84 0 l 1,12,-1
 84 525 l 1,13,-1
 153 525 l 1,14,-1
 153 324 l 1,15,-1
 294 324 l 1,16,-1
 294 525 l 1,17,-1
 361 525 l 1,18,-1
 361 324 l 1,0,-1
361 271 m 1,19,-1
 361 55 l 1,20,-1
 384 55 l 2,21,22
 431 55 431 55 458.5 62 c 128,-1,23
 486 69 486 69 502 92 c 128,-1,24
 518 115 518 115 518 162 c 0,25,26
 518 224 518 224 485.5 247.5 c 128,-1,27
 453 271 453 271 378 271 c 2,28,-1
 361 271 l 1,19,-1
EndSplineSet
EndChar

StartChar: uni0454
Encoding: 1108 1108 463
Width: 600
GlyphClass: 2
Flags: W
AnchorPoint: "Anchor-3" 300 525 basechar 0
AnchorPoint: "Anchor-2" 300 0 basechar 0
LayerCount: 2
Fore
SplineSet
509 479 m 1,1,-1
 477 435 l 1,2,3
 440 460 440 460 407 470.5 c 128,-1,4
 374 481 374 481 334 481 c 0,5,6
 268 481 268 481 221.5 433.5 c 128,-1,7
 175 386 175 386 165 298 c 1,8,-1
 415 298 l 1,9,-1
 415 241 l 1,10,-1
 164 241 l 1,11,12
 169 144 169 144 215 95.5 c 128,-1,13
 261 47 261 47 333 47 c 0,14,15
 374 47 374 47 408 58.5 c 128,-1,16
 442 70 442 70 479 94 c 1,17,-1
 509 51 l 1,18,19
 475 22 475 22 428.5 6 c 128,-1,20
 382 -10 382 -10 341 -10 c 0,21,22
 225 -10 225 -10 161.5 63 c 128,-1,23
 98 136 98 136 98 261 c 0,24,25
 98 339 98 339 126 401.5 c 128,-1,26
 154 464 154 464 208.5 499.5 c 128,-1,27
 263 535 263 535 338 535 c 0,28,0
 435 535 435 535 509 479 c 1,1,-1
EndSplineSet
EndChar

StartChar: uni044D
Encoding: 1101 1101 464
Width: 600
GlyphClass: 2
Flags: W
AnchorPoint: "Anchor-3" 292 525 basechar 0
AnchorPoint: "Anchor-2" 300 0 basechar 0
LayerCount: 2
Fore
SplineSet
452 464.5 m 128,-1,1
 509 394 509 394 509 267 c 256,2,3
 509 140 509 140 449 65 c 128,-1,4
 389 -10 389 -10 276 -10 c 0,5,6
 230 -10 230 -10 181.5 6 c 128,-1,7
 133 22 133 22 98 51 c 1,8,-1
 130 98 l 1,9,10
 199 47 199 47 276 47 c 0,11,12
 351 47 351 47 395 95 c 128,-1,13
 439 143 439 143 444 241 c 1,14,-1
 180 241 l 1,15,-1
 180 298 l 1,16,-1
 443 298 l 1,17,18
 436 389 436 389 394 435 c 128,-1,19
 352 481 352 481 281 481 c 0,20,21
 200 481 200 481 134 431 c 1,22,-1
 102 475 l 1,23,24
 134 503 134 503 183.5 519 c 128,-1,25
 233 535 233 535 278 535 c 0,26,0
 395 535 395 535 452 464.5 c 128,-1,1
EndSplineSet
EndChar

StartChar: uni044E
Encoding: 1102 1102 469
Width: 600
GlyphClass: 2
Flags: W
AnchorPoint: "Anchor-3" 300 525 basechar 0
AnchorPoint: "Anchor-2" 300 0 basechar 0
LayerCount: 2
Fore
SplineSet
516.5 464 m 128,-1,1
 563 393 563 393 563 263 c 0,2,3
 563 138 563 138 517 64 c 128,-1,4
 471 -10 471 -10 381 -10 c 0,5,6
 295 -10 295 -10 251 58.5 c 128,-1,7
 207 127 207 127 203 239 c 1,8,-1
 130 239 l 1,9,-1
 130 0 l 1,10,-1
 63 0 l 1,11,-1
 63 525 l 1,12,-1
 130 525 l 1,13,-1
 130 299 l 1,14,-1
 203 299 l 1,15,16
 208 411 208 411 252.5 473 c 128,-1,17
 297 535 297 535 381 535 c 0,18,0
 470 535 470 535 516.5 464 c 128,-1,1
299 425 m 128,-1,20
 276 374 276 374 276 262 c 0,21,22
 276 157 276 157 299 103 c 128,-1,23
 322 49 322 49 381 49 c 0,24,25
 442 49 442 49 464.5 103 c 128,-1,26
 487 157 487 157 487 263 c 0,27,28
 487 373 487 373 463 424.5 c 128,-1,29
 439 476 439 476 381 476 c 0,30,19
 322 476 322 476 299 425 c 128,-1,20
EndSplineSet
EndChar

StartChar: uni044F
Encoding: 1103 1103 470
Width: 600
GlyphClass: 2
Flags: W
AnchorPoint: "Anchor-3" 300 525 basechar 0
AnchorPoint: "Anchor-2" 300 0 basechar 0
LayerCount: 2
Fore
SplineSet
474 525 m 1,0,-1
 474 0 l 1,1,-1
 412 0 l 1,2,-1
 412 210 l 1,3,-1
 252 210 l 1,4,-1
 136 0 l 1,5,-1
 62 0 l 1,6,-1
 186 225 l 1,7,8
 92 268 92 268 92 371 c 0,9,10
 92 448 92 448 144 486.5 c 128,-1,11
 196 525 196 525 286 525 c 2,12,-1
 474 525 l 1,0,-1
412 268 m 1,13,-1
 412 467 l 1,14,-1
 284 467 l 2,15,16
 223 467 223 467 191.5 444 c 128,-1,17
 160 421 160 421 160 369 c 0,18,19
 160 314 160 314 187.5 291 c 128,-1,20
 215 268 215 268 280 268 c 2,21,-1
 412 268 l 1,13,-1
EndSplineSet
EndChar

StartChar: uni0452
Encoding: 1106 1106 471
Width: 600
GlyphClass: 2
Flags: W
AnchorPoint: "Anchor-3" 300 738 basechar 0
AnchorPoint: "Anchor-2" 300 -193 basechar 0
LayerCount: 2
Fore
SplineSet
171 659 m 1,0,-1
 349 659 l 1,1,-1
 349 599 l 1,2,-1
 171 599 l 1,3,-1
 171 452 l 1,4,5
 201 490 201 490 248 512.5 c 128,-1,6
 295 535 295 535 343 535 c 0,7,8
 492 535 492 535 492 380 c 2,9,-1
 492 10 l 2,10,11
 492 -55 492 -55 477.5 -95 c 128,-1,12
 463 -135 463 -135 434 -159.5 c 128,-1,13
 405 -184 405 -184 354 -208 c 1,14,-1
 330 -163 l 1,15,16
 370 -144 370 -144 390 -126 c 128,-1,17
 410 -108 410 -108 420 -75 c 128,-1,18
 430 -42 430 -42 430 18 c 2,19,-1
 430 380 l 2,20,21
 430 434 430 434 405.5 458.5 c 128,-1,22
 381 483 381 483 327 483 c 0,23,24
 280 483 280 483 237.5 454 c 128,-1,25
 195 425 195 425 171 389 c 1,26,-1
 171 0 l 1,27,-1
 109 0 l 1,28,-1
 109 599 l 1,29,-1
 22 599 l 1,30,-1
 22 659 l 1,31,-1
 109 659 l 1,32,-1
 109 736 l 1,33,-1
 171 744 l 1,34,-1
 171 659 l 1,0,-1
EndSplineSet
EndChar

StartChar: uni0463
Encoding: 1123 1123 473
Width: 600
GlyphClass: 2
Flags: W
AnchorPoint: "Anchor-3" 190 652 basechar 0
AnchorPoint: "Anchor-2" 300 0 basechar 0
LayerCount: 2
Fore
SplineSet
221 532 m 1,0,-1
 354 532 l 1,1,-1
 344 472 l 1,2,-1
 221 472 l 1,3,-1
 221 352 l 1,4,-1
 297 352 l 2,5,6
 533 352 533 352 533 179 c 0,7,8
 533 81 533 81 467 40.5 c 128,-1,9
 401 0 401 0 288 0 c 2,10,-1
 159 0 l 1,11,-1
 159 472 l 1,12,-1
 65 472 l 1,13,-1
 65 532 l 1,14,-1
 159 532 l 1,15,-1
 159 641 l 1,16,-1
 221 650 l 1,17,-1
 221 532 l 1,0,-1
221 297 m 1,18,-1
 221 55 l 1,19,-1
 307 55 l 2,20,21
 382 55 382 55 423.5 81 c 128,-1,22
 465 107 465 107 465 177 c 0,23,24
 465 241 465 241 425 269 c 128,-1,25
 385 297 385 297 309 297 c 2,26,-1
 221 297 l 1,18,-1
EndSplineSet
EndChar

StartChar: uni0465
Encoding: 1125 1125 474
Width: 600
GlyphClass: 2
Flags: W
AnchorPoint: "Anchor-3" 300 525 basechar 0
AnchorPoint: "Anchor-2" 300 0 basechar 0
LayerCount: 2
Fore
SplineSet
489 63.5 m 128,-1,1
 514 75 514 75 541 98 c 1,2,-1
 582 51 l 1,3,4
 551 21 551 21 512 5.5 c 128,-1,5
 473 -10 473 -10 436 -10 c 0,6,7
 345 -10 345 -10 287.5 56.5 c 128,-1,8
 230 123 230 123 224 239 c 1,9,-1
 156 239 l 1,10,-1
 156 0 l 1,11,-1
 85 0 l 1,12,-1
 85 525 l 1,13,-1
 156 525 l 1,14,-1
 156 299 l 1,15,-1
 226 299 l 1,16,17
 235 405 235 405 290 470 c 128,-1,18
 345 535 345 535 439 535 c 0,19,20
 480 535 480 535 515.5 521 c 128,-1,21
 551 507 551 507 587 478 c 1,22,-1
 550 431 l 1,23,24
 522 454 522 454 494.5 465 c 128,-1,25
 467 476 467 476 434 476 c 0,26,27
 371 476 371 476 337 430 c 128,-1,28
 303 384 303 384 293 298 c 1,29,-1
 506 298 l 1,30,-1
 506 241 l 1,31,-1
 291 241 l 1,32,33
 295 147 295 147 333 99.5 c 128,-1,34
 371 52 371 52 432 52 c 0,35,0
 464 52 464 52 489 63.5 c 128,-1,1
EndSplineSet
EndChar

StartChar: uni0467
Encoding: 1127 1127 475
Width: 600
GlyphClass: 2
Flags: W
AnchorPoint: "Anchor-3" 300 525 basechar 0
AnchorPoint: "Anchor-2" 300 0 basechar 0
LayerCount: 2
Fore
SplineSet
486 0 m 1,0,-1
 401 211 l 1,1,-1
 328 211 l 1,2,-1
 328 0 l 1,3,-1
 268 0 l 1,4,-1
 268 211 l 1,5,-1
 199 211 l 1,6,-1
 111 0 l 1,7,-1
 42 0 l 1,8,-1
 268 525 l 1,9,-1
 335 525 l 1,10,-1
 560 0 l 1,11,-1
 486 0 l 1,0,-1
377 269 m 1,12,-1
 301 457 l 1,13,-1
 223 269 l 1,14,-1
 377 269 l 1,12,-1
EndSplineSet
EndChar

StartChar: uni0469
Encoding: 1129 1129 476
Width: 600
GlyphClass: 2
Flags: W
AnchorPoint: "Anchor-3" 300 525 basechar 0
AnchorPoint: "Anchor-2" 300 0 basechar 0
LayerCount: 2
Fore
SplineSet
514 0 m 1,0,-1
 453 213 l 1,1,-1
 411 213 l 1,2,-1
 411 0 l 1,3,-1
 351 0 l 1,4,-1
 351 213 l 1,5,-1
 311 213 l 1,6,-1
 249 0 l 1,7,-1
 182 0 l 1,8,-1
 248 213 l 1,9,-1
 134 213 l 1,10,-1
 134 0 l 1,11,-1
 63 0 l 1,12,-1
 63 525 l 1,13,-1
 134 525 l 1,14,-1
 134 274 l 1,15,-1
 267 274 l 1,16,-1
 344 525 l 1,17,-1
 427 525 l 1,18,-1
 503 274 l 1,19,-1
 519 274 l 1,20,-1
 519 221 l 1,21,-1
 586 0 l 1,22,-1
 514 0 l 1,0,-1
329 274 m 1,23,-1
 436 274 l 1,24,-1
 383 460 l 1,25,-1
 329 274 l 1,23,-1
EndSplineSet
EndChar

StartChar: uni046B
Encoding: 1131 1131 477
Width: 600
GlyphClass: 2
Flags: W
AnchorPoint: "Anchor-3" 300 525 basechar 0
AnchorPoint: "Anchor-2" 300 0 basechar 0
LayerCount: 2
Fore
SplineSet
462 298 m 1,0,-1
 573 0 l 1,1,-1
 512 0 l 1,2,-1
 417 241 l 1,3,-1
 334 241 l 1,4,-1
 334 0 l 1,5,-1
 265 0 l 1,6,-1
 265 241 l 1,7,-1
 184 241 l 1,8,-1
 90 0 l 1,9,-1
 27 0 l 1,10,-1
 138 298 l 1,11,-1
 234 298 l 1,12,-1
 109 488 l 1,13,-1
 109 525 l 1,14,-1
 486 525 l 1,15,-1
 486 488 l 1,16,-1
 360 298 l 1,17,-1
 462 298 l 1,0,-1
190 468 m 1,18,-1
 299 298 l 1,19,-1
 409 468 l 1,20,-1
 190 468 l 1,18,-1
EndSplineSet
EndChar

StartChar: uni046D
Encoding: 1133 1133 478
Width: 600
GlyphClass: 2
Flags: W
AnchorPoint: "Anchor-3" 300 525 basechar 0
AnchorPoint: "Anchor-2" 300 0 basechar 0
LayerCount: 2
Fore
SplineSet
496 296 m 1,0,-1
 606 0 l 1,1,-1
 538 0 l 1,2,-1
 452 235 l 1,3,-1
 414 235 l 1,4,-1
 414 0 l 1,5,-1
 347 0 l 1,6,-1
 347 235 l 1,7,-1
 310 235 l 1,8,-1
 223 0 l 1,9,-1
 155 0 l 1,10,-1
 246 235 l 1,11,-1
 116 235 l 1,12,-1
 116 0 l 1,13,-1
 46 0 l 1,14,-1
 46 525 l 1,15,-1
 116 525 l 1,16,-1
 116 296 l 1,17,-1
 319 296 l 1,18,-1
 208 488 l 1,19,-1
 208 525 l 1,20,-1
 549 525 l 1,21,-1
 549 488 l 1,22,-1
 439 296 l 1,23,-1
 496 296 l 1,0,-1
285 470 m 1,24,-1
 382 296 l 1,25,-1
 477 470 l 1,26,-1
 285 470 l 1,24,-1
EndSplineSet
EndChar

StartChar: uni046F
Encoding: 1135 1135 479
Width: 600
GlyphClass: 2
Flags: W
AnchorPoint: "Anchor-3" 283 525 basechar 0
AnchorPoint: "Anchor-2" 0 0 basechar 0
LayerCount: 2
Fore
SplineSet
406 781 m 1,0,-1
 438 747 l 1,1,-1
 306 634 l 1,2,-1
 261 634 l 1,3,-1
 128 747 l 1,4,-1
 163 781 l 1,5,-1
 284 692 l 1,6,-1
 406 781 l 1,0,-1
123 -148 m 128,-1,8
 93 -115 93 -115 93 -75 c 0,9,10
 93 -25 93 -25 136 0.5 c 128,-1,11
 179 26 179 26 272 31 c 0,12,13
 363 36 363 36 404 57 c 128,-1,14
 445 78 445 78 445 132 c 0,15,16
 445 229 445 229 349 229 c 2,17,-1
 174 229 l 1,18,-1
 174 285 l 1,19,-1
 392 466 l 1,20,-1
 82 466 l 1,21,-1
 82 525 l 1,22,-1
 484 525 l 1,23,-1
 484 474 l 1,24,-1
 245 281 l 1,25,-1
 330 281 l 2,26,27
 416 281 416 281 464 245 c 128,-1,28
 512 209 512 209 512 132 c 0,29,30
 512 59 512 59 453.5 19 c 128,-1,31
 395 -21 395 -21 296 -27 c 0,32,33
 240 -31 240 -31 211 -37 c 128,-1,34
 182 -43 182 -43 170 -52.5 c 128,-1,35
 158 -62 158 -62 158 -79 c 0,36,37
 158 -101 158 -101 180 -121.5 c 128,-1,38
 202 -142 202 -142 247 -165 c 1,39,-1
 217 -210 l 1,40,7
 153 -181 153 -181 123 -148 c 128,-1,8
EndSplineSet
EndChar

StartChar: uni0475
Encoding: 1141 1141 482
Width: 600
GlyphClass: 2
Flags: W
AnchorPoint: "Anchor-3" 302 525 basechar 0
AnchorPoint: "Anchor-2" 300 0 basechar 0
LayerCount: 2
Fore
SplineSet
68 525 m 1,0,-1
 136 525 l 1,1,-1
 294 64 l 1,2,-1
 435 476 l 2,3,4
 455 531 455 531 475 552 c 128,-1,5
 495 573 495 573 536 573 c 0,6,7
 564 573 564 573 601 552 c 1,8,-1
 573 513 l 1,9,10
 556 520 556 520 539 520 c 0,11,12
 521 520 521 520 511.5 509 c 128,-1,13
 502 498 502 498 493 472 c 2,14,-1
 332 0 l 1,15,-1
 255 0 l 1,16,-1
 68 525 l 1,0,-1
EndSplineSet
EndChar

StartChar: uni0479
Encoding: 1145 1145 484
Width: 600
Flags: W
LayerCount: 2
Fore
SplineSet
35.5 61 m 128,-1,1
 1 132 1 132 1 262 c 0,2,3
 1 535 1 535 153 535 c 0,4,5
 302 535 302 535 302 263 c 0,6,7
 302 138 302 138 265 64 c 128,-1,8
 228 -10 228 -10 151 -10 c 0,9,0
 70 -10 70 -10 35.5 61 c 128,-1,1
235 -149 m 1,10,11
 322 -134 322 -134 365 -102 c 128,-1,12
 408 -70 408 -70 426 0 c 1,13,-1
 391 0 l 1,14,-1
 290 525 l 1,15,-1
 375 525 l 1,16,-1
 450 53 l 1,17,-1
 521 525 l 1,18,-1
 603 525 l 1,19,-1
 506 9 l 2,20,21
 486 -91 486 -91 422.5 -145.5 c 128,-1,22
 359 -200 359 -200 243 -209 c 1,23,-1
 235 -149 l 1,10,11
206.5 102 m 128,-1,25
 221 151 221 151 221 263 c 256,26,27
 221 375 221 375 206.5 424 c 128,-1,28
 192 473 192 473 153 473 c 0,29,30
 112 473 112 473 97 424 c 128,-1,31
 82 375 82 375 82 262 c 0,32,33
 82 150 82 150 96 101.5 c 128,-1,34
 110 53 110 53 151 53 c 256,35,24
 192 53 192 53 206.5 102 c 128,-1,25
EndSplineSet
EndChar

StartChar: uni0493
Encoding: 1171 1171 485
Width: 600
GlyphClass: 2
Flags: W
AnchorPoint: "Anchor-3" 373 525 basechar 0
AnchorPoint: "Anchor-2" 232 0 basechar 0
LayerCount: 2
Fore
SplineSet
544 470 m 1,0,-1
 263 470 l 1,1,-1
 263 299 l 1,2,-1
 390 299 l 1,3,-1
 390 242 l 1,4,-1
 263 242 l 1,5,-1
 263 0 l 1,6,-1
 201 0 l 1,7,-1
 201 242 l 1,8,-1
 101 242 l 1,9,-1
 101 299 l 1,10,-1
 201 299 l 1,11,-1
 201 525 l 1,12,-1
 552 525 l 1,13,-1
 544 470 l 1,0,-1
EndSplineSet
EndChar

StartChar: uni0495
Encoding: 1173 1173 486
Width: 600
GlyphClass: 2
Flags: W
AnchorPoint: "Anchor-3" 300 525 basechar 0
AnchorPoint: "Anchor-2" 300 -193 basechar 0
LayerCount: 2
Fore
SplineSet
485 1 m 1,0,-1
 485 -71 l 2,1,2
 485 -137 485 -137 449 -172 c 128,-1,3
 413 -207 413 -207 354 -207 c 0,4,5
 320 -207 320 -207 293 -197 c 128,-1,6
 266 -187 266 -187 248 -172 c 1,7,-1
 273 -128 l 1,8,9
 294 -141 294 -141 311 -146.5 c 128,-1,10
 328 -152 328 -152 353 -152 c 0,11,12
 423 -152 423 -152 423 -75 c 2,13,-1
 423 0 l 1,14,-1
 422 0 l 1,15,-1
 422 190 l 2,16,17
 422 246 422 246 397 272.5 c 128,-1,18
 372 299 372 299 328 299 c 0,19,20
 280 299 280 299 245 276 c 128,-1,21
 210 253 210 253 174 210 c 1,22,-1
 170 217 l 1,23,-1
 170 0 l 1,24,-1
 108 0 l 1,25,-1
 108 525 l 1,26,-1
 412 525 l 1,27,-1
 405 473 l 1,28,-1
 170 473 l 1,29,-1
 170 269 l 1,30,31
 199 306 199 306 240.5 328 c 128,-1,32
 282 350 282 350 334 350 c 0,33,34
 398 350 398 350 441 309 c 128,-1,35
 484 268 484 268 484 197 c 2,36,-1
 484 1 l 1,37,-1
 485 1 l 1,0,-1
EndSplineSet
EndChar

StartChar: uni0497
Encoding: 1175 1175 487
Width: 600
Flags: W
LayerCount: 2
Fore
SplineSet
547 55 m 1,0,-1
 597 55 l 1,1,-1
 597 -139 l 1,2,-1
 547 -139 l 1,3,-1
 534 0 l 1,4,-1
 500 0 l 1,5,-1
 395 251 l 1,6,-1
 332 251 l 1,7,-1
 332 0 l 1,8,-1
 268 0 l 1,9,-1
 268 251 l 1,10,-1
 202 251 l 1,11,-1
 95 0 l 1,12,-1
 30 0 l 1,13,-1
 149 282 l 1,14,-1
 42 525 l 1,15,-1
 111 525 l 1,16,-1
 203 310 l 1,17,-1
 268 310 l 1,18,-1
 268 525 l 1,19,-1
 332 525 l 1,20,-1
 332 310 l 1,21,-1
 397 310 l 1,22,-1
 491 525 l 1,23,-1
 558 525 l 1,24,-1
 450 282 l 1,25,-1
 547 55 l 1,0,-1
EndSplineSet
EndChar

StartChar: uni0499
Encoding: 1177 1177 488
Width: 600
GlyphClass: 2
Flags: W
AnchorPoint: "Anchor-3" 296 527 basechar 0
AnchorPoint: "Anchor-2" 302 0 basechar 0
LayerCount: 2
Fore
SplineSet
458.5 43 m 128,-1,1
 406 0 406 0 319 -8 c 1,2,-1
 319 -60 l 1,3,4
 364 -63 364 -63 386.5 -86 c 128,-1,5
 409 -109 409 -109 409 -138 c 0,6,7
 409 -184 409 -184 375.5 -207.5 c 128,-1,8
 342 -231 342 -231 295 -231 c 0,9,10
 232 -231 232 -231 194 -209 c 1,11,-1
 218 -168 l 1,12,13
 247 -183 247 -183 286 -183 c 0,14,15
 348 -183 348 -183 348 -139 c 0,16,17
 348 -112 348 -112 327.5 -102.5 c 128,-1,18
 307 -93 307 -93 264 -93 c 1,19,-1
 269 -10 l 1,20,21
 149 -6 149 -6 62 65 c 1,22,-1
 94 108 l 1,23,24
 174 47 174 47 285 47 c 0,25,26
 361 47 361 47 401.5 75.5 c 128,-1,27
 442 104 442 104 442 153 c 0,28,29
 442 247 442 247 297 247 c 2,30,-1
 194 247 l 1,31,-1
 198 305 l 1,32,-1
 293 305 l 2,33,34
 349 305 349 305 382 328.5 c 128,-1,35
 415 352 415 352 415 390 c 0,36,37
 415 480 415 480 280 480 c 0,38,39
 240 480 240 480 195.5 467 c 128,-1,40
 151 454 151 454 114 431 c 1,41,-1
 82 471 l 1,42,43
 120 500 120 500 174 517.5 c 128,-1,44
 228 535 228 535 281 535 c 0,45,46
 368 535 368 535 424.5 498 c 128,-1,47
 481 461 481 461 481 392 c 0,48,49
 481 351 481 351 453.5 323 c 128,-1,50
 426 295 426 295 381 281 c 1,51,52
 407 282 407 282 438 267 c 128,-1,53
 469 252 469 252 490 223.5 c 128,-1,54
 511 195 511 195 511 158 c 0,55,0
 511 86 511 86 458.5 43 c 128,-1,1
EndSplineSet
EndChar

StartChar: uni049B
Encoding: 1179 1179 489
Width: 600
GlyphClass: 2
Flags: W
AnchorPoint: "Anchor-3" 320 525 basechar 0
AnchorPoint: "Anchor-2" 300 0 basechar 0
LayerCount: 2
Fore
SplineSet
521 55 m 1,0,-1
 583 55 l 1,1,-1
 583 -139 l 1,2,-1
 528 -139 l 1,3,-1
 516 0 l 1,4,-1
 481 0 l 1,5,-1
 291 252 l 1,6,-1
 177 252 l 1,7,-1
 177 0 l 1,8,-1
 115 0 l 1,9,-1
 115 525 l 1,10,-1
 177 525 l 1,11,-1
 177 309 l 1,12,-1
 292 309 l 1,13,-1
 455 525 l 1,14,-1
 533 525 l 1,15,-1
 346 282 l 1,16,-1
 521 55 l 1,0,-1
EndSplineSet
EndChar

StartChar: uni049D
Encoding: 1181 1181 490
Width: 600
GlyphClass: 2
Flags: W
AnchorPoint: "Anchor-3" 300 525 basechar 0
AnchorPoint: "Anchor-2" 300 0 basechar 0
LayerCount: 2
Fore
SplineSet
115 0 m 1,0,-1
 115 525 l 1,1,-1
 181 525 l 1,2,-1
 181 314 l 1,3,-1
 230 314 l 1,4,-1
 230 429 l 1,5,-1
 274 429 l 1,6,-1
 274 314 l 1,7,-1
 305 314 l 1,8,-1
 464 525 l 1,9,-1
 533 525 l 1,10,-1
 357 284 l 1,11,-1
 564 0 l 1,12,-1
 494 0 l 1,13,-1
 305 247 l 1,14,-1
 274 247 l 1,15,-1
 274 121 l 1,16,-1
 230 121 l 1,17,-1
 230 247 l 1,18,-1
 181 247 l 1,19,-1
 181 0 l 1,20,-1
 115 0 l 1,0,-1
EndSplineSet
EndChar

StartChar: uni049F
Encoding: 1183 1183 491
Width: 600
Flags: W
LayerCount: 2
Fore
SplineSet
336 282 m 1,0,-1
 554 0 l 1,1,-1
 471 0 l 1,2,-1
 281 252 l 1,3,-1
 188 252 l 1,4,-1
 188 0 l 1,5,-1
 126 0 l 1,6,-1
 126 568 l 1,7,-1
 47 568 l 1,8,-1
 47 628 l 1,9,-1
 126 628 l 1,10,-1
 126 738 l 1,11,-1
 188 746 l 1,12,-1
 188 628 l 1,13,-1
 344 628 l 1,14,-1
 344 568 l 1,15,-1
 188 568 l 1,16,-1
 188 309 l 1,17,-1
 282 309 l 1,18,-1
 445 525 l 1,19,-1
 523 525 l 1,20,-1
 336 282 l 1,0,-1
EndSplineSet
EndChar

StartChar: uni04A1
Encoding: 1185 1185 492
Width: 600
Flags: W
LayerCount: 2
Fore
SplineSet
362 282 m 1,0,-1
 584 0 l 1,1,-1
 502 0 l 1,2,-1
 307 252 l 1,3,-1
 203 252 l 1,4,-1
 203 0 l 1,5,-1
 141 0 l 1,6,-1
 141 475 l 1,7,-1
 10 475 l 1,8,-1
 10 525 l 1,9,-1
 203 525 l 1,10,-1
 203 309 l 1,11,-1
 308 309 l 1,12,-1
 476 525 l 1,13,-1
 553 525 l 1,14,-1
 362 282 l 1,0,-1
EndSplineSet
EndChar

StartChar: uni04A3
Encoding: 1187 1187 493
Width: 600
Flags: W
LayerCount: 2
Fore
SplineSet
478 55 m 1,0,-1
 562 55 l 1,1,-1
 562 -139 l 1,2,-1
 507 -139 l 1,3,-1
 495 0 l 1,4,-1
 416 0 l 1,5,-1
 416 241 l 1,6,-1
 158 241 l 1,7,-1
 158 0 l 1,8,-1
 96 0 l 1,9,-1
 96 525 l 1,10,-1
 158 525 l 1,11,-1
 158 296 l 1,12,-1
 416 296 l 1,13,-1
 416 525 l 1,14,-1
 478 525 l 1,15,-1
 478 55 l 1,0,-1
EndSplineSet
EndChar

StartChar: uni04A5
Encoding: 1189 1189 494
Width: 600
Flags: W
LayerCount: 2
Fore
SplineSet
601 525 m 1,0,-1
 597 471 l 1,1,-1
 454 471 l 1,2,-1
 454 0 l 1,3,-1
 392 0 l 1,4,-1
 392 241 l 1,5,-1
 165 241 l 1,6,-1
 165 0 l 1,7,-1
 103 0 l 1,8,-1
 103 525 l 1,9,-1
 165 525 l 1,10,-1
 165 296 l 1,11,-1
 392 296 l 1,12,-1
 392 525 l 1,13,-1
 601 525 l 1,0,-1
EndSplineSet
EndChar

StartChar: uni0525
Encoding: 1317 1317 495
Width: 600
GlyphClass: 2
Flags: W
AnchorPoint: "Anchor-3" 294 525 basechar 0
AnchorPoint: "Anchor-2" 294 0 basechar 0
LayerCount: 2
Fore
SplineSet
485 55 m 1,0,-1
 569 55 l 1,1,-1
 569 -139 l 1,2,-1
 514 -139 l 1,3,-1
 502 0 l 1,4,-1
 422 0 l 1,5,-1
 422 471 l 1,6,-1
 166 471 l 1,7,-1
 166 0 l 1,8,-1
 103 0 l 1,9,-1
 103 525 l 1,10,-1
 485 525 l 1,11,-1
 485 55 l 1,0,-1
EndSplineSet
EndChar

StartChar: uni04A7
Encoding: 1191 1191 496
Width: 600
GlyphClass: 2
Flags: W
AnchorPoint: "Anchor-3" 300 525 basechar 0
AnchorPoint: "Anchor-2" 300 -193 basechar 0
LayerCount: 2
Fore
SplineSet
557 313 m 128,-1,1
 593 276 593 276 593 218 c 2,2,-1
 593 -67 l 2,3,4
 593 -136 593 -136 556 -171.5 c 128,-1,5
 519 -207 519 -207 453 -207 c 0,6,7
 392 -207 392 -207 346 -172 c 1,8,-1
 373 -124 l 1,9,10
 394 -136 394 -136 411 -141.5 c 128,-1,11
 428 -147 428 -147 452 -147 c 0,12,13
 524 -147 524 -147 524 -67 c 2,14,-1
 524 209 l 2,15,16
 524 250 524 250 505.5 272.5 c 128,-1,17
 487 295 487 295 452 295 c 0,18,19
 420 295 420 295 395.5 283 c 128,-1,20
 371 271 371 271 348 247 c 1,21,-1
 348 0 l 1,22,-1
 277 0 l 1,23,-1
 277 468 l 1,24,-1
 102 468 l 1,25,-1
 102 0 l 1,26,-1
 31 0 l 1,27,-1
 31 525 l 1,28,-1
 348 525 l 1,29,-1
 348 303 l 1,30,31
 392 350 392 350 464 350 c 0,32,0
 521 350 521 350 557 313 c 128,-1,1
EndSplineSet
EndChar

